<?xml version="1.0" encoding="utf-8" standalone="no"?>
<!DOCTYPE svg PUBLIC "-//W3C//DTD SVG 1.1//EN"
  "http://www.w3.org/Graphics/SVG/1.1/DTD/svg11.dtd">
<svg xmlns:xlink="http://www.w3.org/1999/xlink" width="331.628469pt" height="351.759463pt" viewBox="0 0 331.628469 351.759463" xmlns="http://www.w3.org/2000/svg" version="1.1">
 <metadata>
  <rdf:RDF xmlns:dc="http://purl.org/dc/elements/1.1/" xmlns:cc="http://creativecommons.org/ns#" xmlns:rdf="http://www.w3.org/1999/02/22-rdf-syntax-ns#">
   <cc:Work>
    <dc:type rdf:resource="http://purl.org/dc/dcmitype/StillImage"/>
    <dc:date>2023-08-26T13:03:13.030569</dc:date>
    <dc:format>image/svg+xml</dc:format>
    <dc:creator>
     <cc:Agent>
      <dc:title>Matplotlib v3.7.1, https://matplotlib.org/</dc:title>
     </cc:Agent>
    </dc:creator>
   </cc:Work>
  </rdf:RDF>
 </metadata>
 <defs>
  <style type="text/css">*{stroke-linejoin: round; stroke-linecap: butt}</style>
 </defs>
 <g id="figure_1">
  <g id="patch_1">
   <path d="M 0 351.759463 
L 331.628469 351.759463 
L 331.628469 0 
L 0 0 
z
" style="fill: #ffffff"/>
  </g>
  <g id="axes_1">
   <g id="patch_2">
    <path d="M 312.512844 185.5714 
C 312.512844 166.444949 308.74535 147.504478 301.425974 129.833941 
C 294.106598 112.163404 283.377683 96.106448 269.853239 82.582004 
C 256.328796 69.057561 240.27184 58.328646 222.601303 51.00927 
C 204.930766 43.689894 185.990295 39.9224 166.863844 39.9224 
C 147.737392 39.9224 128.796922 43.689894 111.126385 51.00927 
C 93.455847 58.328646 77.398892 69.057561 63.874448 82.582004 
C 50.350005 96.106448 39.62109 112.163404 32.301714 129.833941 
C 24.982338 147.504478 21.214844 166.444949 21.214844 185.5714 
C 21.214844 204.697851 24.982338 223.638322 32.301714 241.308859 
C 39.62109 258.979396 50.350005 275.036352 63.874448 288.560796 
C 77.398892 302.085239 93.455847 312.814154 111.126385 320.13353 
C 128.796922 327.452906 147.737392 331.2204 166.863844 331.2204 
C 185.990295 331.2204 204.930766 327.452906 222.601303 320.13353 
C 240.27184 312.814154 256.328796 302.085239 269.853239 288.560796 
C 283.377683 275.036352 294.106598 258.979396 301.425974 241.308859 
C 308.74535 223.638322 312.512844 204.697851 312.512844 185.5714 
M 166.863844 185.5714 
C 166.863844 185.5714 166.863844 185.5714 166.863844 185.5714 
C 166.863844 185.5714 166.863844 185.5714 166.863844 185.5714 
C 166.863844 185.5714 166.863844 185.5714 166.863844 185.5714 
C 166.863844 185.5714 166.863844 185.5714 166.863844 185.5714 
C 166.863844 185.5714 166.863844 185.5714 166.863844 185.5714 
C 166.863844 185.5714 166.863844 185.5714 166.863844 185.5714 
C 166.863844 185.5714 166.863844 185.5714 166.863844 185.5714 
C 166.863844 185.5714 166.863844 185.5714 166.863844 185.5714 
C 166.863844 185.5714 166.863844 185.5714 166.863844 185.5714 
C 166.863844 185.5714 166.863844 185.5714 166.863844 185.5714 
C 166.863844 185.5714 166.863844 185.5714 166.863844 185.5714 
C 166.863844 185.5714 166.863844 185.5714 166.863844 185.5714 
C 166.863844 185.5714 166.863844 185.5714 166.863844 185.5714 
C 166.863844 185.5714 166.863844 185.5714 166.863844 185.5714 
C 166.863844 185.5714 166.863844 185.5714 166.863844 185.5714 
C 166.863844 185.5714 166.863844 185.5714 166.863844 185.5714 
z
" style="fill: #ffffff"/>
   </g>
   <g id="matplotlib.axis_1">
    <g id="xtick_1">
     <g id="line2d_1">
      <path d="M 166.863844 185.5714 
L 166.863844 39.9224 
" clip-path="url(#p6a61e7594f)" style="fill: none; stroke: #b0b0b0; stroke-width: 0.8; stroke-linecap: square"/>
     </g>
     <g id="text_1">
      <!-- N -->
      <g transform="translate(162.679469 34.181775) scale(0.1 -0.1)">
       <defs>
        <path id="DejaVuSans-Bold-4e" d="M 588 4666 
L 1931 4666 
L 3628 1466 
L 3628 4666 
L 4769 4666 
L 4769 0 
L 3425 0 
L 1728 3200 
L 1728 0 
L 588 0 
L 588 4666 
z
" transform="scale(0.015625)"/>
       </defs>
       <use xlink:href="#DejaVuSans-Bold-4e"/>
      </g>
     </g>
    </g>
    <g id="xtick_2">
     <g id="line2d_2">
      <path d="M 166.863844 185.5714 
L 269.853239 82.582004 
" clip-path="url(#p6a61e7594f)" style="fill: none; stroke: #b0b0b0; stroke-width: 0.8; stroke-linecap: square"/>
     </g>
    </g>
    <g id="xtick_3">
     <g id="line2d_3">
      <path d="M 166.863844 185.5714 
L 312.512844 185.5714 
" clip-path="url(#p6a61e7594f)" style="fill: none; stroke: #b0b0b0; stroke-width: 0.8; stroke-linecap: square"/>
     </g>
     <g id="text_2">
      <!-- E -->
      <g transform="translate(317.597219 188.330775) scale(0.1 -0.1)">
       <defs>
        <path id="DejaVuSans-Bold-45" d="M 588 4666 
L 3834 4666 
L 3834 3756 
L 1791 3756 
L 1791 2888 
L 3713 2888 
L 3713 1978 
L 1791 1978 
L 1791 909 
L 3903 909 
L 3903 0 
L 588 0 
L 588 4666 
z
" transform="scale(0.015625)"/>
       </defs>
       <use xlink:href="#DejaVuSans-Bold-45"/>
      </g>
     </g>
    </g>
    <g id="xtick_4">
     <g id="line2d_4">
      <path d="M 166.863844 185.5714 
L 269.853239 288.560796 
" clip-path="url(#p6a61e7594f)" style="fill: none; stroke: #b0b0b0; stroke-width: 0.8; stroke-linecap: square"/>
     </g>
    </g>
    <g id="xtick_5">
     <g id="line2d_5">
      <path d="M 166.863844 185.5714 
L 166.863844 331.2204 
" clip-path="url(#p6a61e7594f)" style="fill: none; stroke: #b0b0b0; stroke-width: 0.8; stroke-linecap: square"/>
     </g>
     <g id="text_3">
      <!-- S -->
      <g transform="translate(163.263062 342.479775) scale(0.1 -0.1)">
       <defs>
        <path id="DejaVuSans-Bold-53" d="M 3834 4519 
L 3834 3531 
Q 3450 3703 3084 3790 
Q 2719 3878 2394 3878 
Q 1963 3878 1756 3759 
Q 1550 3641 1550 3391 
Q 1550 3203 1689 3098 
Q 1828 2994 2194 2919 
L 2706 2816 
Q 3484 2659 3812 2340 
Q 4141 2022 4141 1434 
Q 4141 663 3683 286 
Q 3225 -91 2284 -91 
Q 1841 -91 1394 -6 
Q 947 78 500 244 
L 500 1259 
Q 947 1022 1364 901 
Q 1781 781 2169 781 
Q 2563 781 2772 912 
Q 2981 1044 2981 1288 
Q 2981 1506 2839 1625 
Q 2697 1744 2272 1838 
L 1806 1941 
Q 1106 2091 782 2419 
Q 459 2747 459 3303 
Q 459 4000 909 4375 
Q 1359 4750 2203 4750 
Q 2588 4750 2994 4692 
Q 3400 4634 3834 4519 
z
" transform="scale(0.015625)"/>
       </defs>
       <use xlink:href="#DejaVuSans-Bold-53"/>
      </g>
     </g>
    </g>
    <g id="xtick_6">
     <g id="line2d_6">
      <path d="M 166.863844 185.5714 
L 63.874448 288.560796 
" clip-path="url(#p6a61e7594f)" style="fill: none; stroke: #b0b0b0; stroke-width: 0.8; stroke-linecap: square"/>
     </g>
    </g>
    <g id="xtick_7">
     <g id="line2d_7">
      <path d="M 166.863844 185.5714 
L 21.214844 185.5714 
" clip-path="url(#p6a61e7594f)" style="fill: none; stroke: #b0b0b0; stroke-width: 0.8; stroke-linecap: square"/>
     </g>
     <g id="text_4">
      <!-- W -->
      <g transform="translate(7.2 188.330775) scale(0.1 -0.1)">
       <defs>
        <path id="DejaVuSans-Bold-57" d="M 191 4666 
L 1344 4666 
L 2150 1275 
L 2950 4666 
L 4109 4666 
L 4909 1275 
L 5716 4666 
L 6859 4666 
L 5759 0 
L 4372 0 
L 3525 3547 
L 2688 0 
L 1300 0 
L 191 4666 
z
" transform="scale(0.015625)"/>
       </defs>
       <use xlink:href="#DejaVuSans-Bold-57"/>
      </g>
     </g>
    </g>
    <g id="xtick_8">
     <g id="line2d_8">
      <path d="M 166.863844 185.5714 
L 63.874448 82.582004 
" clip-path="url(#p6a61e7594f)" style="fill: none; stroke: #b0b0b0; stroke-width: 0.8; stroke-linecap: square"/>
     </g>
    </g>
   </g>
   <g id="matplotlib.axis_2">
    <g id="ytick_1">
     <g id="line2d_9">
      <path d="M 166.863844 185.5714 
C 166.863844 185.5714 166.863844 185.5714 166.863844 185.5714 
C 166.863844 185.5714 166.863844 185.5714 166.863844 185.5714 
C 166.863844 185.5714 166.863844 185.5714 166.863844 185.5714 
C 166.863844 185.5714 166.863844 185.5714 166.863844 185.5714 
C 166.863844 185.5714 166.863844 185.5714 166.863844 185.5714 
C 166.863844 185.5714 166.863844 185.5714 166.863844 185.5714 
C 166.863844 185.5714 166.863844 185.5714 166.863844 185.5714 
C 166.863844 185.5714 166.863844 185.5714 166.863844 185.5714 
C 166.863844 185.5714 166.863844 185.5714 166.863844 185.5714 
C 166.863844 185.5714 166.863844 185.5714 166.863844 185.5714 
C 166.863844 185.5714 166.863844 185.5714 166.863844 185.5714 
C 166.863844 185.5714 166.863844 185.5714 166.863844 185.5714 
C 166.863844 185.5714 166.863844 185.5714 166.863844 185.5714 
C 166.863844 185.5714 166.863844 185.5714 166.863844 185.5714 
C 166.863844 185.5714 166.863844 185.5714 166.863844 185.5714 
C 166.863844 185.5714 166.863844 185.5714 166.863844 185.5714 
" clip-path="url(#p6a61e7594f)" style="fill: none; stroke: #b0b0b0; stroke-width: 0.8; stroke-linecap: square"/>
     </g>
    </g>
    <g id="ytick_2">
     <g id="line2d_10">
      <path d="M 166.863844 149.15915 
C 171.645457 149.15915 176.380574 150.101023 180.798209 151.930867 
C 185.215843 153.760712 189.230082 156.44294 192.611193 159.824051 
C 195.992304 163.205162 198.674532 167.219401 200.504376 171.637035 
C 202.33422 176.054669 203.276094 180.789787 203.276094 185.5714 
C 203.276094 190.353013 202.33422 195.088131 200.504376 199.505765 
C 198.674532 203.923399 195.992304 207.937638 192.611193 211.318749 
C 189.230082 214.69986 185.215843 217.382088 180.798209 219.211933 
C 176.380574 221.041777 171.645457 221.98365 166.863844 221.98365 
C 162.082231 221.98365 157.347113 221.041777 152.929479 219.211933 
C 148.511845 217.382088 144.497606 214.69986 141.116495 211.318749 
C 137.735384 207.937638 135.053155 203.923399 133.223311 199.505765 
C 131.393467 195.088131 130.451594 190.353013 130.451594 185.5714 
C 130.451594 180.789787 131.393467 176.054669 133.223311 171.637035 
C 135.053155 167.219401 137.735384 163.205162 141.116495 159.824051 
C 144.497606 156.44294 148.511845 153.760712 152.929479 151.930867 
C 157.347113 150.101023 162.082231 149.15915 166.863844 149.15915 
" clip-path="url(#p6a61e7594f)" style="fill: none; stroke: #b0b0b0; stroke-width: 0.8; stroke-linecap: square"/>
     </g>
    </g>
    <g id="ytick_3">
     <g id="line2d_11">
      <path d="M 166.863844 112.7469 
C 176.427069 112.7469 185.897305 114.630647 194.732573 118.290335 
C 203.567842 121.950023 211.59632 127.31448 218.358542 134.076702 
C 225.120763 140.838924 230.485221 148.867402 234.144909 157.70267 
C 237.804597 166.537939 239.688344 176.008174 239.688344 185.5714 
C 239.688344 195.134626 237.804597 204.604861 234.144909 213.44013 
C 230.485221 222.275398 225.120763 230.303876 218.358542 237.066098 
C 211.59632 243.82832 203.567842 249.192777 194.732573 252.852465 
C 185.897305 256.512153 176.427069 258.3959 166.863844 258.3959 
C 157.300618 258.3959 147.830383 256.512153 138.995114 252.852465 
C 130.159846 249.192777 122.131368 243.82832 115.369146 237.066098 
C 108.606924 230.303876 103.242467 222.275398 99.582779 213.44013 
C 95.923091 204.604861 94.039344 195.134626 94.039344 185.5714 
C 94.039344 176.008174 95.923091 166.537939 99.582779 157.70267 
C 103.242467 148.867402 108.606924 140.838924 115.369146 134.076702 
C 122.131368 127.31448 130.159846 121.950023 138.995114 118.290335 
C 147.830383 114.630647 157.300618 112.7469 166.863844 112.7469 
" clip-path="url(#p6a61e7594f)" style="fill: none; stroke: #b0b0b0; stroke-width: 0.8; stroke-linecap: square"/>
     </g>
    </g>
    <g id="ytick_4">
     <g id="line2d_12">
      <path d="M 166.863844 76.33465 
C 181.208682 76.33465 195.414035 79.16027 208.666938 84.649802 
C 221.919841 90.139335 233.962558 98.186021 244.10589 108.329353 
C 254.249223 118.472686 262.295909 130.515403 267.785441 143.768306 
C 273.274973 157.021208 276.100594 171.226561 276.100594 185.5714 
C 276.100594 199.916239 273.274973 214.121592 267.785441 227.374494 
C 262.295909 240.627397 254.249223 252.670114 244.10589 262.813447 
C 233.962558 272.956779 221.919841 281.003465 208.666938 286.492998 
C 195.414035 291.98253 181.208682 294.80815 166.863844 294.80815 
C 152.519005 294.80815 138.313652 291.98253 125.060749 286.492998 
C 111.807847 281.003465 99.76513 272.956779 89.621797 262.813447 
C 79.478464 252.670114 71.431778 240.627397 65.942246 227.374494 
C 60.452714 214.121592 57.627094 199.916239 57.627094 185.5714 
C 57.627094 171.226561 60.452714 157.021208 65.942246 143.768306 
C 71.431778 130.515403 79.478464 118.472686 89.621797 108.329353 
C 99.76513 98.186021 111.807847 90.139335 125.060749 84.649802 
C 138.313652 79.16027 152.519005 76.33465 166.863844 76.33465 
" clip-path="url(#p6a61e7594f)" style="fill: none; stroke: #b0b0b0; stroke-width: 0.8; stroke-linecap: square"/>
     </g>
    </g>
    <g id="ytick_5">
     <g id="line2d_13">
      <path d="M 166.863844 39.9224 
C 185.990295 39.9224 204.930766 43.689894 222.601303 51.00927 
C 240.27184 58.328646 256.328796 69.057561 269.853239 82.582004 
C 283.377683 96.106448 294.106598 112.163404 301.425974 129.833941 
C 308.74535 147.504478 312.512844 166.444949 312.512844 185.5714 
C 312.512844 204.697851 308.74535 223.638322 301.425974 241.308859 
C 294.106598 258.979396 283.377683 275.036352 269.853239 288.560796 
C 256.328796 302.085239 240.27184 312.814154 222.601303 320.13353 
C 204.930766 327.452906 185.990295 331.2204 166.863844 331.2204 
C 147.737392 331.2204 128.796922 327.452906 111.126385 320.13353 
C 93.455847 312.814154 77.398892 302.085239 63.874448 288.560796 
C 50.350005 275.036352 39.62109 258.979396 32.301714 241.308859 
C 24.982338 223.638322 21.214844 204.697851 21.214844 185.5714 
C 21.214844 166.444949 24.982338 147.504478 32.301714 129.833941 
C 39.62109 112.163404 50.350005 96.106448 63.874448 82.582004 
C 77.398892 69.057561 93.455847 58.328646 111.126385 51.00927 
C 128.796922 43.689894 147.737392 39.9224 166.863844 39.9224 
" clip-path="url(#p6a61e7594f)" style="fill: none; stroke: #b0b0b0; stroke-width: 0.8; stroke-linecap: square"/>
     </g>
    </g>
   </g>
   <g id="patch_3">
    <path d="M 166.863844 185.5714 
C 166.863844 185.5714 166.863844 185.5714 166.863844 185.5714 
C 166.863844 185.5714 166.863844 185.5714 166.863844 185.5714 
L 179.2935 43.499777 
C 175.160149 43.138156 171.012984 42.957087 166.863844 42.957087 
C 162.714703 42.957087 158.567539 43.138156 154.434187 43.499777 
z
" clip-path="url(#p6a61e7594f)" style="fill: #003366; opacity: 0.7; stroke: #000000; stroke-width: 0.5; stroke-linejoin: miter"/>
   </g>
   <g id="patch_4">
    <path d="M 166.863844 185.5714 
C 166.863844 185.5714 166.863844 185.5714 166.863844 185.5714 
C 166.863844 185.5714 166.863844 185.5714 166.863844 185.5714 
L 190.988562 95.536726 
C 188.369144 94.834856 185.720343 94.247631 183.049721 93.776728 
C 180.379099 93.305825 177.689198 92.951693 174.987696 92.715342 
z
" clip-path="url(#p6a61e7594f)" style="fill: #003366; opacity: 0.7; stroke: #000000; stroke-width: 0.5; stroke-linejoin: miter"/>
   </g>
   <g id="patch_5">
    <path d="M 166.863844 185.5714 
C 166.863844 185.5714 166.863844 185.5714 166.863844 185.5714 
C 166.863844 185.5714 166.863844 185.5714 166.863844 185.5714 
L 199.611259 115.344341 
C 197.568113 114.391606 195.484362 113.528488 193.365954 112.757451 
C 191.247546 111.986414 189.096499 111.308191 186.918951 110.724719 
z
" clip-path="url(#p6a61e7594f)" style="fill: #003366; opacity: 0.7; stroke: #000000; stroke-width: 0.5; stroke-linejoin: miter"/>
   </g>
   <g id="patch_6">
    <path d="M 166.863844 185.5714 
C 166.863844 185.5714 166.863844 185.5714 166.863844 185.5714 
C 166.863844 185.5714 166.863844 185.5714 166.863844 185.5714 
L 222.779129 105.716096 
C 220.455864 104.089329 218.062713 102.564723 215.606506 101.146632 
C 213.1503 99.72854 210.633377 98.418313 208.062923 97.21969 
z
" clip-path="url(#p6a61e7594f)" style="fill: #003366; opacity: 0.7; stroke: #000000; stroke-width: 0.5; stroke-linejoin: miter"/>
   </g>
   <g id="patch_7">
    <path d="M 166.863844 185.5714 
C 166.863844 185.5714 166.863844 185.5714 166.863844 185.5714 
C 166.863844 185.5714 166.863844 185.5714 166.863844 185.5714 
L 238.310272 114.124972 
C 236.23165 112.04635 234.063307 110.059429 231.81143 108.16988 
C 229.559554 106.280332 227.22629 104.489955 224.818298 102.803861 
z
" clip-path="url(#p6a61e7594f)" style="fill: #003366; opacity: 0.7; stroke: #000000; stroke-width: 0.5; stroke-linejoin: miter"/>
   </g>
   <g id="patch_8">
    <path d="M 166.863844 185.5714 
C 166.863844 185.5714 166.863844 185.5714 166.863844 185.5714 
C 166.863844 185.5714 166.863844 185.5714 166.863844 185.5714 
L 235.146972 137.759039 
C 233.755946 135.772448 232.278887 133.847508 230.720012 131.989713 
C 229.161137 130.131918 227.521929 128.343036 225.807068 126.628176 
z
" clip-path="url(#p6a61e7594f)" style="fill: #003366; opacity: 0.7; stroke: #000000; stroke-width: 0.5; stroke-linejoin: miter"/>
   </g>
   <g id="patch_9">
    <path d="M 166.863844 185.5714 
C 166.863844 185.5714 166.863844 185.5714 166.863844 185.5714 
C 166.863844 185.5714 166.863844 185.5714 166.863844 185.5714 
L 240.274309 151.339538 
C 239.278387 149.203775 238.189734 147.112492 237.011457 145.071657 
C 235.83318 143.030822 234.566402 141.042378 233.214739 139.112003 
z
" clip-path="url(#p6a61e7594f)" style="fill: #003366; opacity: 0.7; stroke: #000000; stroke-width: 0.5; stroke-linejoin: miter"/>
   </g>
   <g id="patch_10">
    <path d="M 166.863844 185.5714 
C 166.863844 185.5714 166.863844 185.5714 166.863844 185.5714 
C 166.863844 185.5714 166.863844 185.5714 166.863844 185.5714 
L 290.721207 152.38392 
C 289.755669 148.780483 288.633337 145.220899 287.357413 141.715327 
C 286.081489 138.209756 284.653189 134.761535 283.07659 131.380507 
z
" clip-path="url(#p6a61e7594f)" style="fill: #003366; opacity: 0.7; stroke: #000000; stroke-width: 0.5; stroke-linejoin: miter"/>
   </g>
   <g id="patch_11">
    <path d="M 166.863844 185.5714 
C 166.863844 185.5714 166.863844 185.5714 166.863844 185.5714 
C 166.863844 185.5714 166.863844 185.5714 166.863844 185.5714 
L 262.132149 177.236503 
C 261.889658 174.464821 261.526326 171.705041 261.04319 168.96504 
C 260.560054 166.225039 259.957574 163.507428 259.23747 160.819962 
z
" clip-path="url(#p6a61e7594f)" style="fill: #003366; opacity: 0.7; stroke: #000000; stroke-width: 0.5; stroke-linejoin: miter"/>
   </g>
   <g id="patch_12">
    <path d="M 166.863844 185.5714 
C 166.863844 185.5714 166.863844 185.5714 166.863844 185.5714 
C 166.863844 185.5714 166.863844 185.5714 166.863844 185.5714 
L 311.958605 198.265547 
C 312.327922 194.044242 312.512844 189.80883 312.512844 185.5714 
C 312.512844 181.33397 312.327922 177.098558 311.958605 172.877253 
z
" clip-path="url(#p6a61e7594f)" style="fill: #003366; opacity: 0.7; stroke: #000000; stroke-width: 0.5; stroke-linejoin: miter"/>
   </g>
   <g id="patch_13">
    <path d="M 166.863844 185.5714 
C 166.863844 185.5714 166.863844 185.5714 166.863844 185.5714 
C 166.863844 185.5714 166.863844 185.5714 166.863844 185.5714 
L 256.95001 209.709915 
C 257.652282 207.088999 258.239843 204.438684 258.711015 201.766534 
C 259.182187 199.094385 259.536522 196.402945 259.773008 193.699899 
z
" clip-path="url(#p6a61e7594f)" style="fill: #003366; opacity: 0.7; stroke: #000000; stroke-width: 0.5; stroke-linejoin: miter"/>
   </g>
   <g id="patch_14">
    <path d="M 166.863844 185.5714 
C 166.863844 185.5714 166.863844 185.5714 166.863844 185.5714 
C 166.863844 185.5714 166.863844 185.5714 166.863844 185.5714 
L 235.977512 217.799633 
C 236.915142 215.788879 237.764576 213.738164 238.523389 211.653342 
C 239.282202 209.568519 239.949672 207.451575 240.523894 205.308551 
z
" clip-path="url(#p6a61e7594f)" style="fill: #003366; opacity: 0.7; stroke: #000000; stroke-width: 0.5; stroke-linejoin: miter"/>
   </g>
   <g id="patch_15">
    <path d="M 166.863844 185.5714 
C 166.863844 185.5714 166.863844 185.5714 166.863844 185.5714 
C 166.863844 185.5714 166.863844 185.5714 166.863844 185.5714 
L 246.510047 241.340272 
C 248.132555 239.02309 249.653168 236.636205 251.067547 234.18643 
C 252.481925 231.736656 253.788721 229.226323 254.984205 226.662599 
z
" clip-path="url(#p6a61e7594f)" style="fill: #003366; opacity: 0.7; stroke: #000000; stroke-width: 0.5; stroke-linejoin: miter"/>
   </g>
   <g id="patch_16">
    <path d="M 166.863844 185.5714 
C 166.863844 185.5714 166.863844 185.5714 166.863844 185.5714 
C 166.863844 185.5714 166.863844 185.5714 166.863844 185.5714 
L 240.772303 259.479859 
C 242.922554 257.329608 244.977944 255.086544 246.932606 252.757068 
C 248.887267 250.427593 250.73934 248.013925 252.483537 245.522954 
z
" clip-path="url(#p6a61e7594f)" style="fill: #003366; opacity: 0.7; stroke: #000000; stroke-width: 0.5; stroke-linejoin: miter"/>
   </g>
   <g id="patch_17">
    <path d="M 166.863844 185.5714 
C 166.863844 185.5714 166.863844 185.5714 166.863844 185.5714 
C 166.863844 185.5714 166.863844 185.5714 166.863844 185.5714 
L 215.389101 254.87265 
C 217.405313 253.460883 219.358954 251.961801 221.24445 250.379683 
C 223.129946 248.797564 224.945499 247.133916 226.685929 245.393486 
z
" clip-path="url(#p6a61e7594f)" style="fill: #003366; opacity: 0.7; stroke: #000000; stroke-width: 0.5; stroke-linejoin: miter"/>
   </g>
   <g id="patch_18">
    <path d="M 166.863844 185.5714 
C 166.863844 185.5714 166.863844 185.5714 166.863844 185.5714 
C 166.863844 185.5714 166.863844 185.5714 166.863844 185.5714 
L 198.676211 253.793242 
C 200.661019 252.867711 202.604491 251.856003 204.501081 250.761006 
C 206.39767 249.66601 208.245571 248.488767 210.039508 247.232639 
z
" clip-path="url(#p6a61e7594f)" style="fill: #003366; opacity: 0.7; stroke: #000000; stroke-width: 0.5; stroke-linejoin: miter"/>
   </g>
   <g id="patch_19">
    <path d="M 166.863844 185.5714 
C 166.863844 185.5714 166.863844 185.5714 166.863844 185.5714 
C 166.863844 185.5714 166.863844 185.5714 166.863844 185.5714 
L 198.772629 304.656608 
C 202.237227 303.728272 205.659662 302.649182 209.030166 301.422419 
C 212.40067 300.195656 215.716034 298.822388 218.966792 297.306534 
z
" clip-path="url(#p6a61e7594f)" style="fill: #003366; opacity: 0.7; stroke: #000000; stroke-width: 0.5; stroke-linejoin: miter"/>
   </g>
   <g id="patch_20">
    <path d="M 166.863844 185.5714 
C 166.863844 185.5714 166.863844 185.5714 166.863844 185.5714 
C 166.863844 185.5714 166.863844 185.5714 166.863844 185.5714 
L 175.17606 280.580471 
C 177.940201 280.33864 180.692471 279.976297 183.425016 279.494476 
C 186.157561 279.012654 188.867778 278.411814 191.547931 277.693669 
z
" clip-path="url(#p6a61e7594f)" style="fill: #003366; opacity: 0.7; stroke: #000000; stroke-width: 0.5; stroke-linejoin: miter"/>
   </g>
   <g id="patch_21">
    <path d="M 166.863844 185.5714 
C 166.863844 185.5714 166.863844 185.5714 166.863844 185.5714 
C 166.863844 185.5714 166.863844 185.5714 166.863844 185.5714 
L 154.434187 327.643023 
C 158.567539 328.004644 162.714703 328.185713 166.863844 328.185713 
C 171.012984 328.185713 175.160149 328.004644 179.2935 327.643023 
z
" clip-path="url(#p6a61e7594f)" style="fill: #003366; opacity: 0.7; stroke: #000000; stroke-width: 0.5; stroke-linejoin: miter"/>
   </g>
   <g id="patch_22">
    <path d="M 166.863844 185.5714 
C 166.863844 185.5714 166.863844 185.5714 166.863844 185.5714 
C 166.863844 185.5714 166.863844 185.5714 166.863844 185.5714 
L 142.739126 275.606074 
C 145.358544 276.307944 148.007344 276.895169 150.677966 277.366072 
C 153.348589 277.836975 156.03849 278.191107 158.739991 278.427458 
z
" clip-path="url(#p6a61e7594f)" style="fill: #003366; opacity: 0.7; stroke: #000000; stroke-width: 0.5; stroke-linejoin: miter"/>
   </g>
   <g id="patch_23">
    <path d="M 166.863844 185.5714 
C 166.863844 185.5714 166.863844 185.5714 166.863844 185.5714 
C 166.863844 185.5714 166.863844 185.5714 166.863844 185.5714 
L 134.116428 255.798459 
C 136.159575 256.751194 138.243326 257.614312 140.361734 258.385349 
C 142.480142 259.156386 144.631189 259.834609 146.808736 260.418081 
z
" clip-path="url(#p6a61e7594f)" style="fill: #003366; opacity: 0.7; stroke: #000000; stroke-width: 0.5; stroke-linejoin: miter"/>
   </g>
   <g id="patch_24">
    <path d="M 166.863844 185.5714 
C 166.863844 185.5714 166.863844 185.5714 166.863844 185.5714 
C 166.863844 185.5714 166.863844 185.5714 166.863844 185.5714 
L 110.948558 265.426704 
C 113.271823 267.053471 115.664975 268.578077 118.121181 269.996168 
C 120.577388 271.41426 123.09431 272.724487 125.664765 273.92311 
z
" clip-path="url(#p6a61e7594f)" style="fill: #003366; opacity: 0.7; stroke: #000000; stroke-width: 0.5; stroke-linejoin: miter"/>
   </g>
   <g id="patch_25">
    <path d="M 166.863844 185.5714 
C 166.863844 185.5714 166.863844 185.5714 166.863844 185.5714 
C 166.863844 185.5714 166.863844 185.5714 166.863844 185.5714 
L 95.417415 257.017828 
C 97.496037 259.09645 99.664381 261.083371 101.916257 262.97292 
C 104.168133 264.862468 106.501397 266.652845 108.909389 268.338939 
z
" clip-path="url(#p6a61e7594f)" style="fill: #003366; opacity: 0.7; stroke: #000000; stroke-width: 0.5; stroke-linejoin: miter"/>
   </g>
   <g id="patch_26">
    <path d="M 166.863844 185.5714 
C 166.863844 185.5714 166.863844 185.5714 166.863844 185.5714 
C 166.863844 185.5714 166.863844 185.5714 166.863844 185.5714 
L 98.580716 233.383761 
C 99.971742 235.370352 101.4488 237.295292 103.007676 239.153087 
C 104.566551 241.010882 106.205758 242.799764 107.920619 244.514624 
z
" clip-path="url(#p6a61e7594f)" style="fill: #003366; opacity: 0.7; stroke: #000000; stroke-width: 0.5; stroke-linejoin: miter"/>
   </g>
   <g id="patch_27">
    <path d="M 166.863844 185.5714 
C 166.863844 185.5714 166.863844 185.5714 166.863844 185.5714 
C 166.863844 185.5714 166.863844 185.5714 166.863844 185.5714 
L 93.453378 219.803262 
C 94.449301 221.939025 95.537954 224.030308 96.71623 226.071143 
C 97.894507 228.111978 99.161285 230.100422 100.512949 232.030797 
z
" clip-path="url(#p6a61e7594f)" style="fill: #003366; opacity: 0.7; stroke: #000000; stroke-width: 0.5; stroke-linejoin: miter"/>
   </g>
   <g id="patch_28">
    <path d="M 166.863844 185.5714 
C 166.863844 185.5714 166.863844 185.5714 166.863844 185.5714 
C 166.863844 185.5714 166.863844 185.5714 166.863844 185.5714 
L 43.00648 218.75888 
C 43.972018 222.362317 45.094351 225.921901 46.370275 229.427473 
C 47.646198 232.933044 49.074498 236.381265 50.651098 239.762293 
z
" clip-path="url(#p6a61e7594f)" style="fill: #003366; opacity: 0.7; stroke: #000000; stroke-width: 0.5; stroke-linejoin: miter"/>
   </g>
   <g id="patch_29">
    <path d="M 166.863844 185.5714 
C 166.863844 185.5714 166.863844 185.5714 166.863844 185.5714 
C 166.863844 185.5714 166.863844 185.5714 166.863844 185.5714 
L 71.595539 193.906297 
C 71.838029 196.677979 72.201361 199.437759 72.684497 202.17776 
C 73.167633 204.917761 73.770113 207.635372 74.490218 210.322838 
z
" clip-path="url(#p6a61e7594f)" style="fill: #003366; opacity: 0.7; stroke: #000000; stroke-width: 0.5; stroke-linejoin: miter"/>
   </g>
   <g id="patch_30">
    <path d="M 166.863844 185.5714 
C 166.863844 185.5714 166.863844 185.5714 166.863844 185.5714 
C 166.863844 185.5714 166.863844 185.5714 166.863844 185.5714 
L 21.769082 172.877253 
C 21.399766 177.098558 21.214844 181.33397 21.214844 185.5714 
C 21.214844 189.80883 21.399766 194.044242 21.769082 198.265547 
z
" clip-path="url(#p6a61e7594f)" style="fill: #003366; opacity: 0.7; stroke: #000000; stroke-width: 0.5; stroke-linejoin: miter"/>
   </g>
   <g id="patch_31">
    <path d="M 166.863844 185.5714 
C 166.863844 185.5714 166.863844 185.5714 166.863844 185.5714 
C 166.863844 185.5714 166.863844 185.5714 166.863844 185.5714 
L 76.777678 161.432885 
C 76.075405 164.053801 75.487845 166.704116 75.016673 169.376266 
C 74.5455 172.048415 74.191166 174.739855 73.95468 177.442901 
z
" clip-path="url(#p6a61e7594f)" style="fill: #003366; opacity: 0.7; stroke: #000000; stroke-width: 0.5; stroke-linejoin: miter"/>
   </g>
   <g id="patch_32">
    <path d="M 166.863844 185.5714 
C 166.863844 185.5714 166.863844 185.5714 166.863844 185.5714 
C 166.863844 185.5714 166.863844 185.5714 166.863844 185.5714 
L 97.750175 153.343167 
C 96.812545 155.353921 95.963112 157.404636 95.204298 159.489458 
C 94.445485 161.574281 93.778015 163.691225 93.203794 165.834249 
z
" clip-path="url(#p6a61e7594f)" style="fill: #003366; opacity: 0.7; stroke: #000000; stroke-width: 0.5; stroke-linejoin: miter"/>
   </g>
   <g id="patch_33">
    <path d="M 166.863844 185.5714 
C 166.863844 185.5714 166.863844 185.5714 166.863844 185.5714 
C 166.863844 185.5714 166.863844 185.5714 166.863844 185.5714 
L 87.217641 129.802528 
C 85.595132 132.11971 84.074519 134.506595 82.660141 136.95637 
C 81.245763 139.406144 79.938966 141.916477 78.743482 144.480201 
z
" clip-path="url(#p6a61e7594f)" style="fill: #003366; opacity: 0.7; stroke: #000000; stroke-width: 0.5; stroke-linejoin: miter"/>
   </g>
   <g id="patch_34">
    <path d="M 166.863844 185.5714 
C 166.863844 185.5714 166.863844 185.5714 166.863844 185.5714 
C 166.863844 185.5714 166.863844 185.5714 166.863844 185.5714 
L 92.955385 111.662941 
C 90.805134 113.813192 88.749744 116.056256 86.795082 118.385732 
C 84.84042 120.715207 82.988348 123.128875 81.244151 125.619846 
z
" clip-path="url(#p6a61e7594f)" style="fill: #003366; opacity: 0.7; stroke: #000000; stroke-width: 0.5; stroke-linejoin: miter"/>
   </g>
   <g id="patch_35">
    <path d="M 166.863844 185.5714 
C 166.863844 185.5714 166.863844 185.5714 166.863844 185.5714 
C 166.863844 185.5714 166.863844 185.5714 166.863844 185.5714 
L 118.338586 116.27015 
C 116.322375 117.681917 114.368733 119.180999 112.483238 120.763117 
C 110.597742 122.345236 108.782188 124.008884 107.041758 125.749314 
z
" clip-path="url(#p6a61e7594f)" style="fill: #003366; opacity: 0.7; stroke: #000000; stroke-width: 0.5; stroke-linejoin: miter"/>
   </g>
   <g id="patch_36">
    <path d="M 166.863844 185.5714 
C 166.863844 185.5714 166.863844 185.5714 166.863844 185.5714 
C 166.863844 185.5714 166.863844 185.5714 166.863844 185.5714 
L 135.051477 117.349558 
C 133.066669 118.275089 131.123197 119.286797 129.226607 120.381794 
C 127.330017 121.47679 125.482117 122.654033 123.688179 123.910161 
z
" clip-path="url(#p6a61e7594f)" style="fill: #003366; opacity: 0.7; stroke: #000000; stroke-width: 0.5; stroke-linejoin: miter"/>
   </g>
   <g id="patch_37">
    <path d="M 166.863844 185.5714 
C 166.863844 185.5714 166.863844 185.5714 166.863844 185.5714 
C 166.863844 185.5714 166.863844 185.5714 166.863844 185.5714 
L 134.955058 66.486192 
C 131.490461 67.414528 128.068025 68.493618 124.697521 69.720381 
C 121.327017 70.947144 118.011654 72.320412 114.760895 73.836266 
z
" clip-path="url(#p6a61e7594f)" style="fill: #003366; opacity: 0.7; stroke: #000000; stroke-width: 0.5; stroke-linejoin: miter"/>
   </g>
   <g id="patch_38">
    <path d="M 166.863844 185.5714 
C 166.863844 185.5714 166.863844 185.5714 166.863844 185.5714 
C 166.863844 185.5714 166.863844 185.5714 166.863844 185.5714 
L 158.551627 90.562329 
C 155.787487 90.80416 153.035216 91.166503 150.302671 91.648324 
C 147.570126 92.130146 144.85991 92.730986 142.179756 93.449131 
z
" clip-path="url(#p6a61e7594f)" style="fill: #003366; opacity: 0.7; stroke: #000000; stroke-width: 0.5; stroke-linejoin: miter"/>
   </g>
   <g id="patch_39">
    <path d="M 166.863844 39.9224 
C 147.737392 39.9224 128.796922 43.689894 111.126385 51.00927 
C 93.455847 58.328646 77.398892 69.057561 63.874448 82.582004 
C 50.350005 96.106448 39.62109 112.163404 32.301714 129.833941 
C 24.982338 147.504478 21.214844 166.444949 21.214844 185.5714 
C 21.214844 204.697851 24.982338 223.638322 32.301714 241.308859 
C 39.62109 258.979396 50.350005 275.036352 63.874448 288.560796 
C 77.398892 302.085239 93.455847 312.814154 111.126385 320.13353 
C 128.796922 327.452906 147.737392 331.2204 166.863844 331.2204 
C 185.990295 331.2204 204.930766 327.452906 222.601303 320.13353 
C 240.27184 312.814154 256.328796 302.085239 269.853239 288.560796 
C 283.377683 275.036352 294.106598 258.979396 301.425974 241.308859 
C 308.74535 223.638322 312.512844 204.697851 312.512844 185.5714 
C 312.512844 166.444949 308.74535 147.504478 301.425974 129.833941 
C 294.106598 112.163404 283.377683 96.106448 269.853239 82.582004 
C 256.328796 69.057561 240.27184 58.328646 222.601303 51.00927 
C 204.930766 43.689894 185.990295 39.9224 166.863844 39.9224 
" style="fill: none; stroke: #000000; stroke-width: 0.8; stroke-linejoin: miter; stroke-linecap: square"/>
   </g>
   <g id="text_5">
    <!-- Amsterdam -->
    <g transform="translate(120.450094 19.3575) scale(0.16 -0.16)">
     <defs>
      <path id="DejaVuSans-41" d="M 2188 4044 
L 1331 1722 
L 3047 1722 
L 2188 4044 
z
M 1831 4666 
L 2547 4666 
L 4325 0 
L 3669 0 
L 3244 1197 
L 1141 1197 
L 716 0 
L 50 0 
L 1831 4666 
z
" transform="scale(0.015625)"/>
      <path id="DejaVuSans-6d" d="M 3328 2828 
Q 3544 3216 3844 3400 
Q 4144 3584 4550 3584 
Q 5097 3584 5394 3201 
Q 5691 2819 5691 2113 
L 5691 0 
L 5113 0 
L 5113 2094 
Q 5113 2597 4934 2840 
Q 4756 3084 4391 3084 
Q 3944 3084 3684 2787 
Q 3425 2491 3425 1978 
L 3425 0 
L 2847 0 
L 2847 2094 
Q 2847 2600 2669 2842 
Q 2491 3084 2119 3084 
Q 1678 3084 1418 2786 
Q 1159 2488 1159 1978 
L 1159 0 
L 581 0 
L 581 3500 
L 1159 3500 
L 1159 2956 
Q 1356 3278 1631 3431 
Q 1906 3584 2284 3584 
Q 2666 3584 2933 3390 
Q 3200 3197 3328 2828 
z
" transform="scale(0.015625)"/>
      <path id="DejaVuSans-73" d="M 2834 3397 
L 2834 2853 
Q 2591 2978 2328 3040 
Q 2066 3103 1784 3103 
Q 1356 3103 1142 2972 
Q 928 2841 928 2578 
Q 928 2378 1081 2264 
Q 1234 2150 1697 2047 
L 1894 2003 
Q 2506 1872 2764 1633 
Q 3022 1394 3022 966 
Q 3022 478 2636 193 
Q 2250 -91 1575 -91 
Q 1294 -91 989 -36 
Q 684 19 347 128 
L 347 722 
Q 666 556 975 473 
Q 1284 391 1588 391 
Q 1994 391 2212 530 
Q 2431 669 2431 922 
Q 2431 1156 2273 1281 
Q 2116 1406 1581 1522 
L 1381 1569 
Q 847 1681 609 1914 
Q 372 2147 372 2553 
Q 372 3047 722 3315 
Q 1072 3584 1716 3584 
Q 2034 3584 2315 3537 
Q 2597 3491 2834 3397 
z
" transform="scale(0.015625)"/>
      <path id="DejaVuSans-74" d="M 1172 4494 
L 1172 3500 
L 2356 3500 
L 2356 3053 
L 1172 3053 
L 1172 1153 
Q 1172 725 1289 603 
Q 1406 481 1766 481 
L 2356 481 
L 2356 0 
L 1766 0 
Q 1100 0 847 248 
Q 594 497 594 1153 
L 594 3053 
L 172 3053 
L 172 3500 
L 594 3500 
L 594 4494 
L 1172 4494 
z
" transform="scale(0.015625)"/>
      <path id="DejaVuSans-65" d="M 3597 1894 
L 3597 1613 
L 953 1613 
Q 991 1019 1311 708 
Q 1631 397 2203 397 
Q 2534 397 2845 478 
Q 3156 559 3463 722 
L 3463 178 
Q 3153 47 2828 -22 
Q 2503 -91 2169 -91 
Q 1331 -91 842 396 
Q 353 884 353 1716 
Q 353 2575 817 3079 
Q 1281 3584 2069 3584 
Q 2775 3584 3186 3129 
Q 3597 2675 3597 1894 
z
M 3022 2063 
Q 3016 2534 2758 2815 
Q 2500 3097 2075 3097 
Q 1594 3097 1305 2825 
Q 1016 2553 972 2059 
L 3022 2063 
z
" transform="scale(0.015625)"/>
      <path id="DejaVuSans-72" d="M 2631 2963 
Q 2534 3019 2420 3045 
Q 2306 3072 2169 3072 
Q 1681 3072 1420 2755 
Q 1159 2438 1159 1844 
L 1159 0 
L 581 0 
L 581 3500 
L 1159 3500 
L 1159 2956 
Q 1341 3275 1631 3429 
Q 1922 3584 2338 3584 
Q 2397 3584 2469 3576 
Q 2541 3569 2628 3553 
L 2631 2963 
z
" transform="scale(0.015625)"/>
      <path id="DejaVuSans-64" d="M 2906 2969 
L 2906 4863 
L 3481 4863 
L 3481 0 
L 2906 0 
L 2906 525 
Q 2725 213 2448 61 
Q 2172 -91 1784 -91 
Q 1150 -91 751 415 
Q 353 922 353 1747 
Q 353 2572 751 3078 
Q 1150 3584 1784 3584 
Q 2172 3584 2448 3432 
Q 2725 3281 2906 2969 
z
M 947 1747 
Q 947 1113 1208 752 
Q 1469 391 1925 391 
Q 2381 391 2643 752 
Q 2906 1113 2906 1747 
Q 2906 2381 2643 2742 
Q 2381 3103 1925 3103 
Q 1469 3103 1208 2742 
Q 947 2381 947 1747 
z
" transform="scale(0.015625)"/>
      <path id="DejaVuSans-61" d="M 2194 1759 
Q 1497 1759 1228 1600 
Q 959 1441 959 1056 
Q 959 750 1161 570 
Q 1363 391 1709 391 
Q 2188 391 2477 730 
Q 2766 1069 2766 1631 
L 2766 1759 
L 2194 1759 
z
M 3341 1997 
L 3341 0 
L 2766 0 
L 2766 531 
Q 2569 213 2275 61 
Q 1981 -91 1556 -91 
Q 1019 -91 701 211 
Q 384 513 384 1019 
Q 384 1609 779 1909 
Q 1175 2209 1959 2209 
L 2766 2209 
L 2766 2266 
Q 2766 2663 2505 2880 
Q 2244 3097 1772 3097 
Q 1472 3097 1187 3025 
Q 903 2953 641 2809 
L 641 3341 
Q 956 3463 1253 3523 
Q 1550 3584 1831 3584 
Q 2591 3584 2966 3190 
Q 3341 2797 3341 1997 
z
" transform="scale(0.015625)"/>
     </defs>
     <use xlink:href="#DejaVuSans-41"/>
     <use xlink:href="#DejaVuSans-6d" x="68.408203"/>
     <use xlink:href="#DejaVuSans-73" x="165.820312"/>
     <use xlink:href="#DejaVuSans-74" x="217.919922"/>
     <use xlink:href="#DejaVuSans-65" x="257.128906"/>
     <use xlink:href="#DejaVuSans-72" x="318.652344"/>
     <use xlink:href="#DejaVuSans-64" x="358.015625"/>
     <use xlink:href="#DejaVuSans-61" x="421.492188"/>
     <use xlink:href="#DejaVuSans-6d" x="482.771484"/>
    </g>
   </g>
  </g>
 </g>
 <defs>
  <clipPath id="p6a61e7594f">
   <path d="M 312.512844 185.5714 
C 312.512844 166.444949 308.74535 147.504478 301.425974 129.833941 
C 294.106598 112.163404 283.377683 96.106448 269.853239 82.582004 
C 256.328796 69.057561 240.27184 58.328646 222.601303 51.00927 
C 204.930766 43.689894 185.990295 39.9224 166.863844 39.9224 
C 147.737392 39.9224 128.796922 43.689894 111.126385 51.00927 
C 93.455847 58.328646 77.398892 69.057561 63.874448 82.582004 
C 50.350005 96.106448 39.62109 112.163404 32.301714 129.833941 
C 24.982338 147.504478 21.214844 166.444949 21.214844 185.5714 
C 21.214844 204.697851 24.982338 223.638322 32.301714 241.308859 
C 39.62109 258.979396 50.350005 275.036352 63.874448 288.560796 
C 77.398892 302.085239 93.455847 312.814154 111.126385 320.13353 
C 128.796922 327.452906 147.737392 331.2204 166.863844 331.2204 
C 185.990295 331.2204 204.930766 327.452906 222.601303 320.13353 
C 240.27184 312.814154 256.328796 302.085239 269.853239 288.560796 
C 283.377683 275.036352 294.106598 258.979396 301.425974 241.308859 
C 308.74535 223.638322 312.512844 204.697851 312.512844 185.5714 
M 166.863844 185.5714 
C 166.863844 185.5714 166.863844 185.5714 166.863844 185.5714 
C 166.863844 185.5714 166.863844 185.5714 166.863844 185.5714 
C 166.863844 185.5714 166.863844 185.5714 166.863844 185.5714 
C 166.863844 185.5714 166.863844 185.5714 166.863844 185.5714 
C 166.863844 185.5714 166.863844 185.5714 166.863844 185.5714 
C 166.863844 185.5714 166.863844 185.5714 166.863844 185.5714 
C 166.863844 185.5714 166.863844 185.5714 166.863844 185.5714 
C 166.863844 185.5714 166.863844 185.5714 166.863844 185.5714 
C 166.863844 185.5714 166.863844 185.5714 166.863844 185.5714 
C 166.863844 185.5714 166.863844 185.5714 166.863844 185.5714 
C 166.863844 185.5714 166.863844 185.5714 166.863844 185.5714 
C 166.863844 185.5714 166.863844 185.5714 166.863844 185.5714 
C 166.863844 185.5714 166.863844 185.5714 166.863844 185.5714 
C 166.863844 185.5714 166.863844 185.5714 166.863844 185.5714 
C 166.863844 185.5714 166.863844 185.5714 166.863844 185.5714 
C 166.863844 185.5714 166.863844 185.5714 166.863844 185.5714 
z
"/>
  </clipPath>
 </defs>
</svg>
