<?xml version="1.0" encoding="utf-8" standalone="no"?>
<!DOCTYPE svg PUBLIC "-//W3C//DTD SVG 1.1//EN"
  "http://www.w3.org/Graphics/SVG/1.1/DTD/svg11.dtd">
<svg xmlns:xlink="http://www.w3.org/1999/xlink" width="331.628469pt" height="351.759463pt" viewBox="0 0 331.628469 351.759463" xmlns="http://www.w3.org/2000/svg" version="1.1">
 <metadata>
  <rdf:RDF xmlns:dc="http://purl.org/dc/elements/1.1/" xmlns:cc="http://creativecommons.org/ns#" xmlns:rdf="http://www.w3.org/1999/02/22-rdf-syntax-ns#">
   <cc:Work>
    <dc:type rdf:resource="http://purl.org/dc/dcmitype/StillImage"/>
    <dc:date>2023-08-26T13:04:47.777235</dc:date>
    <dc:format>image/svg+xml</dc:format>
    <dc:creator>
     <cc:Agent>
      <dc:title>Matplotlib v3.7.1, https://matplotlib.org/</dc:title>
     </cc:Agent>
    </dc:creator>
   </cc:Work>
  </rdf:RDF>
 </metadata>
 <defs>
  <style type="text/css">*{stroke-linejoin: round; stroke-linecap: butt}</style>
 </defs>
 <g id="figure_1">
  <g id="patch_1">
   <path d="M 0 351.759463 
L 331.628469 351.759463 
L 331.628469 0 
L 0 0 
z
" style="fill: #ffffff"/>
  </g>
  <g id="axes_1">
   <g id="patch_2">
    <path d="M 312.512844 185.5714 
C 312.512844 166.444949 308.74535 147.504478 301.425974 129.833941 
C 294.106598 112.163404 283.377683 96.106448 269.853239 82.582004 
C 256.328796 69.057561 240.27184 58.328646 222.601303 51.00927 
C 204.930766 43.689894 185.990295 39.9224 166.863844 39.9224 
C 147.737392 39.9224 128.796922 43.689894 111.126385 51.00927 
C 93.455847 58.328646 77.398892 69.057561 63.874448 82.582004 
C 50.350005 96.106448 39.62109 112.163404 32.301714 129.833941 
C 24.982338 147.504478 21.214844 166.444949 21.214844 185.5714 
C 21.214844 204.697851 24.982338 223.638322 32.301714 241.308859 
C 39.62109 258.979396 50.350005 275.036352 63.874448 288.560796 
C 77.398892 302.085239 93.455847 312.814154 111.126385 320.13353 
C 128.796922 327.452906 147.737392 331.2204 166.863844 331.2204 
C 185.990295 331.2204 204.930766 327.452906 222.601303 320.13353 
C 240.27184 312.814154 256.328796 302.085239 269.853239 288.560796 
C 283.377683 275.036352 294.106598 258.979396 301.425974 241.308859 
C 308.74535 223.638322 312.512844 204.697851 312.512844 185.5714 
M 166.863844 185.5714 
C 166.863844 185.5714 166.863844 185.5714 166.863844 185.5714 
C 166.863844 185.5714 166.863844 185.5714 166.863844 185.5714 
C 166.863844 185.5714 166.863844 185.5714 166.863844 185.5714 
C 166.863844 185.5714 166.863844 185.5714 166.863844 185.5714 
C 166.863844 185.5714 166.863844 185.5714 166.863844 185.5714 
C 166.863844 185.5714 166.863844 185.5714 166.863844 185.5714 
C 166.863844 185.5714 166.863844 185.5714 166.863844 185.5714 
C 166.863844 185.5714 166.863844 185.5714 166.863844 185.5714 
C 166.863844 185.5714 166.863844 185.5714 166.863844 185.5714 
C 166.863844 185.5714 166.863844 185.5714 166.863844 185.5714 
C 166.863844 185.5714 166.863844 185.5714 166.863844 185.5714 
C 166.863844 185.5714 166.863844 185.5714 166.863844 185.5714 
C 166.863844 185.5714 166.863844 185.5714 166.863844 185.5714 
C 166.863844 185.5714 166.863844 185.5714 166.863844 185.5714 
C 166.863844 185.5714 166.863844 185.5714 166.863844 185.5714 
C 166.863844 185.5714 166.863844 185.5714 166.863844 185.5714 
z
" style="fill: #ffffff"/>
   </g>
   <g id="matplotlib.axis_1">
    <g id="xtick_1">
     <g id="line2d_1">
      <path d="M 166.863844 185.5714 
L 166.863844 39.9224 
" clip-path="url(#pfc44bf9ec4)" style="fill: none; stroke: #b0b0b0; stroke-width: 0.8; stroke-linecap: square"/>
     </g>
     <g id="text_1">
      <!-- N -->
      <g transform="translate(162.679469 34.181775) scale(0.1 -0.1)">
       <defs>
        <path id="DejaVuSans-Bold-4e" d="M 588 4666 
L 1931 4666 
L 3628 1466 
L 3628 4666 
L 4769 4666 
L 4769 0 
L 3425 0 
L 1728 3200 
L 1728 0 
L 588 0 
L 588 4666 
z
" transform="scale(0.015625)"/>
       </defs>
       <use xlink:href="#DejaVuSans-Bold-4e"/>
      </g>
     </g>
    </g>
    <g id="xtick_2">
     <g id="line2d_2">
      <path d="M 166.863844 185.5714 
L 269.853239 82.582004 
" clip-path="url(#pfc44bf9ec4)" style="fill: none; stroke: #b0b0b0; stroke-width: 0.8; stroke-linecap: square"/>
     </g>
    </g>
    <g id="xtick_3">
     <g id="line2d_3">
      <path d="M 166.863844 185.5714 
L 312.512844 185.5714 
" clip-path="url(#pfc44bf9ec4)" style="fill: none; stroke: #b0b0b0; stroke-width: 0.8; stroke-linecap: square"/>
     </g>
     <g id="text_2">
      <!-- E -->
      <g transform="translate(317.597219 188.330775) scale(0.1 -0.1)">
       <defs>
        <path id="DejaVuSans-Bold-45" d="M 588 4666 
L 3834 4666 
L 3834 3756 
L 1791 3756 
L 1791 2888 
L 3713 2888 
L 3713 1978 
L 1791 1978 
L 1791 909 
L 3903 909 
L 3903 0 
L 588 0 
L 588 4666 
z
" transform="scale(0.015625)"/>
       </defs>
       <use xlink:href="#DejaVuSans-Bold-45"/>
      </g>
     </g>
    </g>
    <g id="xtick_4">
     <g id="line2d_4">
      <path d="M 166.863844 185.5714 
L 269.853239 288.560796 
" clip-path="url(#pfc44bf9ec4)" style="fill: none; stroke: #b0b0b0; stroke-width: 0.8; stroke-linecap: square"/>
     </g>
    </g>
    <g id="xtick_5">
     <g id="line2d_5">
      <path d="M 166.863844 185.5714 
L 166.863844 331.2204 
" clip-path="url(#pfc44bf9ec4)" style="fill: none; stroke: #b0b0b0; stroke-width: 0.8; stroke-linecap: square"/>
     </g>
     <g id="text_3">
      <!-- S -->
      <g transform="translate(163.263062 342.479775) scale(0.1 -0.1)">
       <defs>
        <path id="DejaVuSans-Bold-53" d="M 3834 4519 
L 3834 3531 
Q 3450 3703 3084 3790 
Q 2719 3878 2394 3878 
Q 1963 3878 1756 3759 
Q 1550 3641 1550 3391 
Q 1550 3203 1689 3098 
Q 1828 2994 2194 2919 
L 2706 2816 
Q 3484 2659 3812 2340 
Q 4141 2022 4141 1434 
Q 4141 663 3683 286 
Q 3225 -91 2284 -91 
Q 1841 -91 1394 -6 
Q 947 78 500 244 
L 500 1259 
Q 947 1022 1364 901 
Q 1781 781 2169 781 
Q 2563 781 2772 912 
Q 2981 1044 2981 1288 
Q 2981 1506 2839 1625 
Q 2697 1744 2272 1838 
L 1806 1941 
Q 1106 2091 782 2419 
Q 459 2747 459 3303 
Q 459 4000 909 4375 
Q 1359 4750 2203 4750 
Q 2588 4750 2994 4692 
Q 3400 4634 3834 4519 
z
" transform="scale(0.015625)"/>
       </defs>
       <use xlink:href="#DejaVuSans-Bold-53"/>
      </g>
     </g>
    </g>
    <g id="xtick_6">
     <g id="line2d_6">
      <path d="M 166.863844 185.5714 
L 63.874448 288.560796 
" clip-path="url(#pfc44bf9ec4)" style="fill: none; stroke: #b0b0b0; stroke-width: 0.8; stroke-linecap: square"/>
     </g>
    </g>
    <g id="xtick_7">
     <g id="line2d_7">
      <path d="M 166.863844 185.5714 
L 21.214844 185.5714 
" clip-path="url(#pfc44bf9ec4)" style="fill: none; stroke: #b0b0b0; stroke-width: 0.8; stroke-linecap: square"/>
     </g>
     <g id="text_4">
      <!-- W -->
      <g transform="translate(7.2 188.330775) scale(0.1 -0.1)">
       <defs>
        <path id="DejaVuSans-Bold-57" d="M 191 4666 
L 1344 4666 
L 2150 1275 
L 2950 4666 
L 4109 4666 
L 4909 1275 
L 5716 4666 
L 6859 4666 
L 5759 0 
L 4372 0 
L 3525 3547 
L 2688 0 
L 1300 0 
L 191 4666 
z
" transform="scale(0.015625)"/>
       </defs>
       <use xlink:href="#DejaVuSans-Bold-57"/>
      </g>
     </g>
    </g>
    <g id="xtick_8">
     <g id="line2d_8">
      <path d="M 166.863844 185.5714 
L 63.874448 82.582004 
" clip-path="url(#pfc44bf9ec4)" style="fill: none; stroke: #b0b0b0; stroke-width: 0.8; stroke-linecap: square"/>
     </g>
    </g>
   </g>
   <g id="matplotlib.axis_2">
    <g id="ytick_1">
     <g id="line2d_9">
      <path d="M 166.863844 185.5714 
C 166.863844 185.5714 166.863844 185.5714 166.863844 185.5714 
C 166.863844 185.5714 166.863844 185.5714 166.863844 185.5714 
C 166.863844 185.5714 166.863844 185.5714 166.863844 185.5714 
C 166.863844 185.5714 166.863844 185.5714 166.863844 185.5714 
C 166.863844 185.5714 166.863844 185.5714 166.863844 185.5714 
C 166.863844 185.5714 166.863844 185.5714 166.863844 185.5714 
C 166.863844 185.5714 166.863844 185.5714 166.863844 185.5714 
C 166.863844 185.5714 166.863844 185.5714 166.863844 185.5714 
C 166.863844 185.5714 166.863844 185.5714 166.863844 185.5714 
C 166.863844 185.5714 166.863844 185.5714 166.863844 185.5714 
C 166.863844 185.5714 166.863844 185.5714 166.863844 185.5714 
C 166.863844 185.5714 166.863844 185.5714 166.863844 185.5714 
C 166.863844 185.5714 166.863844 185.5714 166.863844 185.5714 
C 166.863844 185.5714 166.863844 185.5714 166.863844 185.5714 
C 166.863844 185.5714 166.863844 185.5714 166.863844 185.5714 
C 166.863844 185.5714 166.863844 185.5714 166.863844 185.5714 
" clip-path="url(#pfc44bf9ec4)" style="fill: none; stroke: #b0b0b0; stroke-width: 0.8; stroke-linecap: square"/>
     </g>
    </g>
    <g id="ytick_2">
     <g id="line2d_10">
      <path d="M 166.863844 149.15915 
C 171.645457 149.15915 176.380574 150.101023 180.798209 151.930867 
C 185.215843 153.760712 189.230082 156.44294 192.611193 159.824051 
C 195.992304 163.205162 198.674532 167.219401 200.504376 171.637035 
C 202.33422 176.054669 203.276094 180.789787 203.276094 185.5714 
C 203.276094 190.353013 202.33422 195.088131 200.504376 199.505765 
C 198.674532 203.923399 195.992304 207.937638 192.611193 211.318749 
C 189.230082 214.69986 185.215843 217.382088 180.798209 219.211933 
C 176.380574 221.041777 171.645457 221.98365 166.863844 221.98365 
C 162.082231 221.98365 157.347113 221.041777 152.929479 219.211933 
C 148.511845 217.382088 144.497606 214.69986 141.116495 211.318749 
C 137.735384 207.937638 135.053155 203.923399 133.223311 199.505765 
C 131.393467 195.088131 130.451594 190.353013 130.451594 185.5714 
C 130.451594 180.789787 131.393467 176.054669 133.223311 171.637035 
C 135.053155 167.219401 137.735384 163.205162 141.116495 159.824051 
C 144.497606 156.44294 148.511845 153.760712 152.929479 151.930867 
C 157.347113 150.101023 162.082231 149.15915 166.863844 149.15915 
" clip-path="url(#pfc44bf9ec4)" style="fill: none; stroke: #b0b0b0; stroke-width: 0.8; stroke-linecap: square"/>
     </g>
    </g>
    <g id="ytick_3">
     <g id="line2d_11">
      <path d="M 166.863844 112.7469 
C 176.427069 112.7469 185.897305 114.630647 194.732573 118.290335 
C 203.567842 121.950023 211.59632 127.31448 218.358542 134.076702 
C 225.120763 140.838924 230.485221 148.867402 234.144909 157.70267 
C 237.804597 166.537939 239.688344 176.008174 239.688344 185.5714 
C 239.688344 195.134626 237.804597 204.604861 234.144909 213.44013 
C 230.485221 222.275398 225.120763 230.303876 218.358542 237.066098 
C 211.59632 243.82832 203.567842 249.192777 194.732573 252.852465 
C 185.897305 256.512153 176.427069 258.3959 166.863844 258.3959 
C 157.300618 258.3959 147.830383 256.512153 138.995114 252.852465 
C 130.159846 249.192777 122.131368 243.82832 115.369146 237.066098 
C 108.606924 230.303876 103.242467 222.275398 99.582779 213.44013 
C 95.923091 204.604861 94.039344 195.134626 94.039344 185.5714 
C 94.039344 176.008174 95.923091 166.537939 99.582779 157.70267 
C 103.242467 148.867402 108.606924 140.838924 115.369146 134.076702 
C 122.131368 127.31448 130.159846 121.950023 138.995114 118.290335 
C 147.830383 114.630647 157.300618 112.7469 166.863844 112.7469 
" clip-path="url(#pfc44bf9ec4)" style="fill: none; stroke: #b0b0b0; stroke-width: 0.8; stroke-linecap: square"/>
     </g>
    </g>
    <g id="ytick_4">
     <g id="line2d_12">
      <path d="M 166.863844 76.33465 
C 181.208682 76.33465 195.414035 79.16027 208.666938 84.649802 
C 221.919841 90.139335 233.962558 98.186021 244.10589 108.329353 
C 254.249223 118.472686 262.295909 130.515403 267.785441 143.768306 
C 273.274973 157.021208 276.100594 171.226561 276.100594 185.5714 
C 276.100594 199.916239 273.274973 214.121592 267.785441 227.374494 
C 262.295909 240.627397 254.249223 252.670114 244.10589 262.813447 
C 233.962558 272.956779 221.919841 281.003465 208.666938 286.492998 
C 195.414035 291.98253 181.208682 294.80815 166.863844 294.80815 
C 152.519005 294.80815 138.313652 291.98253 125.060749 286.492998 
C 111.807847 281.003465 99.76513 272.956779 89.621797 262.813447 
C 79.478464 252.670114 71.431778 240.627397 65.942246 227.374494 
C 60.452714 214.121592 57.627094 199.916239 57.627094 185.5714 
C 57.627094 171.226561 60.452714 157.021208 65.942246 143.768306 
C 71.431778 130.515403 79.478464 118.472686 89.621797 108.329353 
C 99.76513 98.186021 111.807847 90.139335 125.060749 84.649802 
C 138.313652 79.16027 152.519005 76.33465 166.863844 76.33465 
" clip-path="url(#pfc44bf9ec4)" style="fill: none; stroke: #b0b0b0; stroke-width: 0.8; stroke-linecap: square"/>
     </g>
    </g>
    <g id="ytick_5">
     <g id="line2d_13">
      <path d="M 166.863844 39.9224 
C 185.990295 39.9224 204.930766 43.689894 222.601303 51.00927 
C 240.27184 58.328646 256.328796 69.057561 269.853239 82.582004 
C 283.377683 96.106448 294.106598 112.163404 301.425974 129.833941 
C 308.74535 147.504478 312.512844 166.444949 312.512844 185.5714 
C 312.512844 204.697851 308.74535 223.638322 301.425974 241.308859 
C 294.106598 258.979396 283.377683 275.036352 269.853239 288.560796 
C 256.328796 302.085239 240.27184 312.814154 222.601303 320.13353 
C 204.930766 327.452906 185.990295 331.2204 166.863844 331.2204 
C 147.737392 331.2204 128.796922 327.452906 111.126385 320.13353 
C 93.455847 312.814154 77.398892 302.085239 63.874448 288.560796 
C 50.350005 275.036352 39.62109 258.979396 32.301714 241.308859 
C 24.982338 223.638322 21.214844 204.697851 21.214844 185.5714 
C 21.214844 166.444949 24.982338 147.504478 32.301714 129.833941 
C 39.62109 112.163404 50.350005 96.106448 63.874448 82.582004 
C 77.398892 69.057561 93.455847 58.328646 111.126385 51.00927 
C 128.796922 43.689894 147.737392 39.9224 166.863844 39.9224 
" clip-path="url(#pfc44bf9ec4)" style="fill: none; stroke: #b0b0b0; stroke-width: 0.8; stroke-linecap: square"/>
     </g>
    </g>
   </g>
   <g id="patch_3">
    <path d="M 166.863844 185.5714 
C 166.863844 185.5714 166.863844 185.5714 166.863844 185.5714 
C 166.863844 185.5714 166.863844 185.5714 166.863844 185.5714 
L 178.265878 55.245555 
C 174.474251 54.913831 170.669954 54.747731 166.863844 54.747731 
C 163.057734 54.747731 159.253436 54.913831 155.46181 55.245555 
z
" clip-path="url(#pfc44bf9ec4)" style="fill: #003366; opacity: 0.7; stroke: #000000; stroke-width: 0.5; stroke-linejoin: miter"/>
   </g>
   <g id="patch_4">
    <path d="M 166.863844 185.5714 
C 166.863844 185.5714 166.863844 185.5714 166.863844 185.5714 
C 166.863844 185.5714 166.863844 185.5714 166.863844 185.5714 
L 202.85395 51.254495 
C 198.94621 50.207419 194.994636 49.331376 191.010507 48.628867 
C 187.026378 47.926358 183.013489 47.398051 178.983294 47.045454 
z
" clip-path="url(#pfc44bf9ec4)" style="fill: #003366; opacity: 0.7; stroke: #000000; stroke-width: 0.5; stroke-linejoin: miter"/>
   </g>
   <g id="patch_5">
    <path d="M 166.863844 185.5714 
C 166.863844 185.5714 166.863844 185.5714 166.863844 185.5714 
C 166.863844 185.5714 166.863844 185.5714 166.863844 185.5714 
L 209.937324 93.200024 
C 207.249923 91.946868 204.509114 90.811588 201.72272 89.797424 
C 198.936326 88.783259 196.107001 87.891176 193.24282 87.123721 
z
" clip-path="url(#pfc44bf9ec4)" style="fill: #003366; opacity: 0.7; stroke: #000000; stroke-width: 0.5; stroke-linejoin: miter"/>
   </g>
   <g id="patch_6">
    <path d="M 166.863844 185.5714 
C 166.863844 185.5714 166.863844 185.5714 166.863844 185.5714 
C 166.863844 185.5714 166.863844 185.5714 166.863844 185.5714 
L 221.782231 107.139815 
C 219.500386 105.542051 217.149902 104.044627 214.737487 102.651818 
C 212.325071 101.25901 209.853022 99.972142 207.328395 98.79489 
z
" clip-path="url(#pfc44bf9ec4)" style="fill: #003366; opacity: 0.7; stroke: #000000; stroke-width: 0.5; stroke-linejoin: miter"/>
   </g>
   <g id="patch_7">
    <path d="M 166.863844 185.5714 
C 166.863844 185.5714 166.863844 185.5714 166.863844 185.5714 
C 166.863844 185.5714 166.863844 185.5714 166.863844 185.5714 
L 245.969522 106.465722 
C 243.668066 104.164266 241.26727 101.964342 238.773987 99.872229 
C 236.280704 97.780116 233.697307 95.797806 231.031172 93.930958 
z
" clip-path="url(#pfc44bf9ec4)" style="fill: #003366; opacity: 0.7; stroke: #000000; stroke-width: 0.5; stroke-linejoin: miter"/>
   </g>
   <g id="patch_8">
    <path d="M 166.863844 185.5714 
C 166.863844 185.5714 166.863844 185.5714 166.863844 185.5714 
C 166.863844 185.5714 166.863844 185.5714 166.863844 185.5714 
L 239.745367 134.539208 
C 238.260665 132.418834 236.684137 130.364263 235.020282 128.381358 
C 233.356427 126.398453 231.606831 124.489103 229.776486 122.658758 
z
" clip-path="url(#pfc44bf9ec4)" style="fill: #003366; opacity: 0.7; stroke: #000000; stroke-width: 0.5; stroke-linejoin: miter"/>
   </g>
   <g id="patch_9">
    <path d="M 166.863844 185.5714 
C 166.863844 185.5714 166.863844 185.5714 166.863844 185.5714 
C 166.863844 185.5714 166.863844 185.5714 166.863844 185.5714 
L 259.513029 142.368375 
C 258.256105 139.672892 256.882148 137.033545 255.395079 134.457867 
C 253.908011 131.88219 252.309248 129.372634 250.603353 126.936364 
z
" clip-path="url(#pfc44bf9ec4)" style="fill: #003366; opacity: 0.7; stroke: #000000; stroke-width: 0.5; stroke-linejoin: miter"/>
   </g>
   <g id="patch_10">
    <path d="M 166.863844 185.5714 
C 166.863844 185.5714 166.863844 185.5714 166.863844 185.5714 
C 166.863844 185.5714 166.863844 185.5714 166.863844 185.5714 
L 266.783169 158.798098 
C 266.004241 155.891101 265.098823 153.019481 264.069498 150.191435 
C 263.040174 147.363389 261.887923 144.581609 260.616034 141.854035 
z
" clip-path="url(#pfc44bf9ec4)" style="fill: #003366; opacity: 0.7; stroke: #000000; stroke-width: 0.5; stroke-linejoin: miter"/>
   </g>
   <g id="patch_11">
    <path d="M 166.863844 185.5714 
C 166.863844 185.5714 166.863844 185.5714 166.863844 185.5714 
C 166.863844 185.5714 166.863844 185.5714 166.863844 185.5714 
L 284.807855 175.252636 
C 284.507647 171.82124 284.057835 168.404578 283.459703 165.012404 
C 282.861571 161.62023 282.115689 158.255774 281.224186 154.928639 
z
" clip-path="url(#pfc44bf9ec4)" style="fill: #003366; opacity: 0.7; stroke: #000000; stroke-width: 0.5; stroke-linejoin: miter"/>
   </g>
   <g id="patch_12">
    <path d="M 166.863844 185.5714 
C 166.863844 185.5714 166.863844 185.5714 166.863844 185.5714 
C 166.863844 185.5714 166.863844 185.5714 166.863844 185.5714 
L 300.9476 197.302209 
C 301.28889 193.401252 301.459778 189.487258 301.459778 185.5714 
C 301.459778 181.655542 301.28889 177.741548 300.9476 173.840591 
z
" clip-path="url(#pfc44bf9ec4)" style="fill: #003366; opacity: 0.7; stroke: #000000; stroke-width: 0.5; stroke-linejoin: miter"/>
   </g>
   <g id="patch_13">
    <path d="M 166.863844 185.5714 
C 166.863844 185.5714 166.863844 185.5714 166.863844 185.5714 
C 166.863844 185.5714 166.863844 185.5714 166.863844 185.5714 
L 307.549974 223.268135 
C 308.646702 219.175092 309.564286 215.036137 310.300108 210.863083 
C 311.03593 206.69003 311.589289 202.486852 311.958605 198.265547 
z
" clip-path="url(#pfc44bf9ec4)" style="fill: #003366; opacity: 0.7; stroke: #000000; stroke-width: 0.5; stroke-linejoin: miter"/>
   </g>
   <g id="patch_14">
    <path d="M 166.863844 185.5714 
C 166.863844 185.5714 166.863844 185.5714 166.863844 185.5714 
C 166.863844 185.5714 166.863844 185.5714 166.863844 185.5714 
L 262.111813 229.986257 
C 263.403994 227.215167 264.574628 224.389005 265.620375 221.515838 
C 266.666123 218.642671 267.585986 215.725236 268.377341 212.77186 
z
" clip-path="url(#pfc44bf9ec4)" style="fill: #003366; opacity: 0.7; stroke: #000000; stroke-width: 0.5; stroke-linejoin: miter"/>
   </g>
   <g id="patch_15">
    <path d="M 166.863844 185.5714 
C 166.863844 185.5714 166.863844 185.5714 166.863844 185.5714 
C 166.863844 185.5714 166.863844 185.5714 166.863844 185.5714 
L 239.0216 236.096805 
C 240.491558 233.997488 241.869201 231.835021 243.150597 229.615578 
C 244.431994 227.396134 245.615923 225.121827 246.699006 222.799148 
z
" clip-path="url(#pfc44bf9ec4)" style="fill: #003366; opacity: 0.7; stroke: #000000; stroke-width: 0.5; stroke-linejoin: miter"/>
   </g>
   <g id="patch_16">
    <path d="M 166.863844 185.5714 
C 166.863844 185.5714 166.863844 185.5714 166.863844 185.5714 
C 166.863844 185.5714 166.863844 185.5714 166.863844 185.5714 
L 244.270276 262.977832 
C 246.522295 260.725813 248.674963 258.376588 250.722136 255.936862 
C 252.769309 253.497136 254.709037 250.969233 256.535784 248.360369 
z
" clip-path="url(#pfc44bf9ec4)" style="fill: #003366; opacity: 0.7; stroke: #000000; stroke-width: 0.5; stroke-linejoin: miter"/>
   </g>
   <g id="patch_17">
    <path d="M 166.863844 185.5714 
C 166.863844 185.5714 166.863844 185.5714 166.863844 185.5714 
C 166.863844 185.5714 166.863844 185.5714 166.863844 185.5714 
L 214.882275 254.148827 
C 216.877428 252.751806 218.810665 251.268382 220.676467 249.702787 
C 222.54227 248.137193 224.338861 246.490921 226.061113 244.768669 
z
" clip-path="url(#pfc44bf9ec4)" style="fill: #003366; opacity: 0.7; stroke: #000000; stroke-width: 0.5; stroke-linejoin: miter"/>
   </g>
   <g id="patch_18">
    <path d="M 166.863844 185.5714 
C 166.863844 185.5714 166.863844 185.5714 166.863844 185.5714 
C 166.863844 185.5714 166.863844 185.5714 166.863844 185.5714 
L 210.002145 278.081785 
C 212.69359 276.826744 215.328983 275.454845 217.900802 273.970004 
C 220.472621 272.485164 222.978417 270.888796 225.411037 269.185457 
z
" clip-path="url(#pfc44bf9ec4)" style="fill: #003366; opacity: 0.7; stroke: #000000; stroke-width: 0.5; stroke-linejoin: miter"/>
   </g>
   <g id="patch_19">
    <path d="M 166.863844 185.5714 
C 166.863844 185.5714 166.863844 185.5714 166.863844 185.5714 
C 166.863844 185.5714 166.863844 185.5714 166.863844 185.5714 
L 192.435932 281.007731 
C 195.212502 280.263751 197.955284 279.398956 200.656446 278.415813 
C 203.357609 277.43267 206.014582 276.332116 208.619779 275.117292 
z
" clip-path="url(#pfc44bf9ec4)" style="fill: #003366; opacity: 0.7; stroke: #000000; stroke-width: 0.5; stroke-linejoin: miter"/>
   </g>
   <g id="patch_20">
    <path d="M 166.863844 185.5714 
C 166.863844 185.5714 166.863844 185.5714 166.863844 185.5714 
C 166.863844 185.5714 166.863844 185.5714 166.863844 185.5714 
L 177.633419 308.66821 
C 181.214728 308.354886 184.780658 307.885422 188.321031 307.261159 
C 191.861405 306.636895 195.372849 305.858427 198.845342 304.927975 
z
" clip-path="url(#pfc44bf9ec4)" style="fill: #003366; opacity: 0.7; stroke: #000000; stroke-width: 0.5; stroke-linejoin: miter"/>
   </g>
   <g id="patch_21">
    <path d="M 166.863844 185.5714 
C 166.863844 185.5714 166.863844 185.5714 166.863844 185.5714 
C 166.863844 185.5714 166.863844 185.5714 166.863844 185.5714 
L 155.46181 315.897245 
C 159.253436 316.228969 163.057734 316.395069 166.863844 316.395069 
C 170.669954 316.395069 174.474251 316.228969 178.265878 315.897245 
z
" clip-path="url(#pfc44bf9ec4)" style="fill: #003366; opacity: 0.7; stroke: #000000; stroke-width: 0.5; stroke-linejoin: miter"/>
   </g>
   <g id="patch_22">
    <path d="M 166.863844 185.5714 
C 166.863844 185.5714 166.863844 185.5714 166.863844 185.5714 
C 166.863844 185.5714 166.863844 185.5714 166.863844 185.5714 
L 130.873738 319.888305 
C 134.781478 320.935381 138.733052 321.811424 142.71718 322.513933 
C 146.701309 323.216442 150.714198 323.744749 154.744394 324.097346 
z
" clip-path="url(#pfc44bf9ec4)" style="fill: #003366; opacity: 0.7; stroke: #000000; stroke-width: 0.5; stroke-linejoin: miter"/>
   </g>
   <g id="patch_23">
    <path d="M 166.863844 185.5714 
C 166.863844 185.5714 166.863844 185.5714 166.863844 185.5714 
C 166.863844 185.5714 166.863844 185.5714 166.863844 185.5714 
L 123.790364 277.942776 
C 126.477764 279.195932 129.218573 280.331212 132.004967 281.345376 
C 134.791361 282.359541 137.620687 283.251624 140.484868 284.019079 
z
" clip-path="url(#pfc44bf9ec4)" style="fill: #003366; opacity: 0.7; stroke: #000000; stroke-width: 0.5; stroke-linejoin: miter"/>
   </g>
   <g id="patch_24">
    <path d="M 166.863844 185.5714 
C 166.863844 185.5714 166.863844 185.5714 166.863844 185.5714 
C 166.863844 185.5714 166.863844 185.5714 166.863844 185.5714 
L 111.945457 264.002985 
C 114.227301 265.600749 116.577786 267.098173 118.990201 268.490982 
C 121.402616 269.88379 123.874666 271.170658 126.399292 272.34791 
z
" clip-path="url(#pfc44bf9ec4)" style="fill: #003366; opacity: 0.7; stroke: #000000; stroke-width: 0.5; stroke-linejoin: miter"/>
   </g>
   <g id="patch_25">
    <path d="M 166.863844 185.5714 
C 166.863844 185.5714 166.863844 185.5714 166.863844 185.5714 
C 166.863844 185.5714 166.863844 185.5714 166.863844 185.5714 
L 87.758166 264.677078 
C 90.059621 266.978534 92.460417 269.178458 94.953701 271.270571 
C 97.446984 273.362684 100.03038 275.344994 102.696515 277.211842 
z
" clip-path="url(#pfc44bf9ec4)" style="fill: #003366; opacity: 0.7; stroke: #000000; stroke-width: 0.5; stroke-linejoin: miter"/>
   </g>
   <g id="patch_26">
    <path d="M 166.863844 185.5714 
C 166.863844 185.5714 166.863844 185.5714 166.863844 185.5714 
C 166.863844 185.5714 166.863844 185.5714 166.863844 185.5714 
L 93.982321 236.603592 
C 95.467022 238.723966 97.043551 240.778537 98.707405 242.761442 
C 100.37126 244.744347 102.120857 246.653697 103.951202 248.484042 
z
" clip-path="url(#pfc44bf9ec4)" style="fill: #003366; opacity: 0.7; stroke: #000000; stroke-width: 0.5; stroke-linejoin: miter"/>
   </g>
   <g id="patch_27">
    <path d="M 166.863844 185.5714 
C 166.863844 185.5714 166.863844 185.5714 166.863844 185.5714 
C 166.863844 185.5714 166.863844 185.5714 166.863844 185.5714 
L 74.214658 228.774425 
C 75.471583 231.469908 76.84554 234.109255 78.332608 236.684933 
C 79.819676 239.26061 81.41844 241.770166 83.124334 244.206436 
z
" clip-path="url(#pfc44bf9ec4)" style="fill: #003366; opacity: 0.7; stroke: #000000; stroke-width: 0.5; stroke-linejoin: miter"/>
   </g>
   <g id="patch_28">
    <path d="M 166.863844 185.5714 
C 166.863844 185.5714 166.863844 185.5714 166.863844 185.5714 
C 166.863844 185.5714 166.863844 185.5714 166.863844 185.5714 
L 66.944519 212.344702 
C 67.723446 215.251699 68.628864 218.123319 69.658189 220.951365 
C 70.687514 223.779411 71.839765 226.561191 73.111653 229.288765 
z
" clip-path="url(#pfc44bf9ec4)" style="fill: #003366; opacity: 0.7; stroke: #000000; stroke-width: 0.5; stroke-linejoin: miter"/>
   </g>
   <g id="patch_29">
    <path d="M 166.863844 185.5714 
C 166.863844 185.5714 166.863844 185.5714 166.863844 185.5714 
C 166.863844 185.5714 166.863844 185.5714 166.863844 185.5714 
L 48.919833 195.890164 
C 49.220041 199.32156 49.669853 202.738222 50.267985 206.130396 
C 50.866117 209.52257 51.611999 212.887026 52.503502 216.214161 
z
" clip-path="url(#pfc44bf9ec4)" style="fill: #003366; opacity: 0.7; stroke: #000000; stroke-width: 0.5; stroke-linejoin: miter"/>
   </g>
   <g id="patch_30">
    <path d="M 166.863844 185.5714 
C 166.863844 185.5714 166.863844 185.5714 166.863844 185.5714 
C 166.863844 185.5714 166.863844 185.5714 166.863844 185.5714 
L 32.780087 173.840591 
C 32.438798 177.741548 32.267909 181.655542 32.267909 185.5714 
C 32.267909 189.487258 32.438798 193.401252 32.780087 197.302209 
z
" clip-path="url(#pfc44bf9ec4)" style="fill: #003366; opacity: 0.7; stroke: #000000; stroke-width: 0.5; stroke-linejoin: miter"/>
   </g>
   <g id="patch_31">
    <path d="M 166.863844 185.5714 
C 166.863844 185.5714 166.863844 185.5714 166.863844 185.5714 
C 166.863844 185.5714 166.863844 185.5714 166.863844 185.5714 
L 26.177713 147.874665 
C 25.080986 151.967708 24.163401 156.106663 23.427579 160.279717 
C 22.691757 164.45277 22.138399 168.655948 21.769082 172.877253 
z
" clip-path="url(#pfc44bf9ec4)" style="fill: #003366; opacity: 0.7; stroke: #000000; stroke-width: 0.5; stroke-linejoin: miter"/>
   </g>
   <g id="patch_32">
    <path d="M 166.863844 185.5714 
C 166.863844 185.5714 166.863844 185.5714 166.863844 185.5714 
C 166.863844 185.5714 166.863844 185.5714 166.863844 185.5714 
L 71.615875 141.156543 
C 70.323694 143.927633 69.153059 146.753795 68.107312 149.626962 
C 67.061565 152.500129 66.141701 155.417564 65.350346 158.37094 
z
" clip-path="url(#pfc44bf9ec4)" style="fill: #003366; opacity: 0.7; stroke: #000000; stroke-width: 0.5; stroke-linejoin: miter"/>
   </g>
   <g id="patch_33">
    <path d="M 166.863844 185.5714 
C 166.863844 185.5714 166.863844 185.5714 166.863844 185.5714 
C 166.863844 185.5714 166.863844 185.5714 166.863844 185.5714 
L 94.706088 135.045995 
C 93.23613 137.145312 91.858487 139.307779 90.57709 141.527222 
C 89.295694 143.746666 88.111765 146.020973 87.028682 148.343652 
z
" clip-path="url(#pfc44bf9ec4)" style="fill: #003366; opacity: 0.7; stroke: #000000; stroke-width: 0.5; stroke-linejoin: miter"/>
   </g>
   <g id="patch_34">
    <path d="M 166.863844 185.5714 
C 166.863844 185.5714 166.863844 185.5714 166.863844 185.5714 
C 166.863844 185.5714 166.863844 185.5714 166.863844 185.5714 
L 89.457412 108.164968 
C 87.205393 110.416987 85.052725 112.766212 83.005552 115.205938 
C 80.958379 117.645664 79.01865 120.173567 77.191904 122.782431 
z
" clip-path="url(#pfc44bf9ec4)" style="fill: #003366; opacity: 0.7; stroke: #000000; stroke-width: 0.5; stroke-linejoin: miter"/>
   </g>
   <g id="patch_35">
    <path d="M 166.863844 185.5714 
C 166.863844 185.5714 166.863844 185.5714 166.863844 185.5714 
C 166.863844 185.5714 166.863844 185.5714 166.863844 185.5714 
L 118.845412 116.993973 
C 116.850259 118.390994 114.917023 119.874418 113.05122 121.440013 
C 111.185418 123.005607 109.388827 124.651879 107.666575 126.374131 
z
" clip-path="url(#pfc44bf9ec4)" style="fill: #003366; opacity: 0.7; stroke: #000000; stroke-width: 0.5; stroke-linejoin: miter"/>
   </g>
   <g id="patch_36">
    <path d="M 166.863844 185.5714 
C 166.863844 185.5714 166.863844 185.5714 166.863844 185.5714 
C 166.863844 185.5714 166.863844 185.5714 166.863844 185.5714 
L 123.725543 93.061015 
C 121.034098 94.316056 118.398705 95.687955 115.826886 97.172796 
C 113.255067 98.657636 110.749271 100.254004 108.316651 101.957343 
z
" clip-path="url(#pfc44bf9ec4)" style="fill: #003366; opacity: 0.7; stroke: #000000; stroke-width: 0.5; stroke-linejoin: miter"/>
   </g>
   <g id="patch_37">
    <path d="M 166.863844 185.5714 
C 166.863844 185.5714 166.863844 185.5714 166.863844 185.5714 
C 166.863844 185.5714 166.863844 185.5714 166.863844 185.5714 
L 141.291756 90.135069 
C 138.515185 90.879049 135.772404 91.743844 133.071241 92.726987 
C 130.370078 93.71013 127.713106 94.810684 125.107908 96.025508 
z
" clip-path="url(#pfc44bf9ec4)" style="fill: #003366; opacity: 0.7; stroke: #000000; stroke-width: 0.5; stroke-linejoin: miter"/>
   </g>
   <g id="patch_38">
    <path d="M 166.863844 185.5714 
C 166.863844 185.5714 166.863844 185.5714 166.863844 185.5714 
C 166.863844 185.5714 166.863844 185.5714 166.863844 185.5714 
L 156.094268 62.47459 
C 152.512959 62.787914 148.947029 63.257378 145.406656 63.881641 
C 141.866283 64.505905 138.354839 65.284373 134.882346 66.214825 
z
" clip-path="url(#pfc44bf9ec4)" style="fill: #003366; opacity: 0.7; stroke: #000000; stroke-width: 0.5; stroke-linejoin: miter"/>
   </g>
   <g id="patch_39">
    <path d="M 166.863844 39.9224 
C 147.737392 39.9224 128.796922 43.689894 111.126385 51.00927 
C 93.455847 58.328646 77.398892 69.057561 63.874448 82.582004 
C 50.350005 96.106448 39.62109 112.163404 32.301714 129.833941 
C 24.982338 147.504478 21.214844 166.444949 21.214844 185.5714 
C 21.214844 204.697851 24.982338 223.638322 32.301714 241.308859 
C 39.62109 258.979396 50.350005 275.036352 63.874448 288.560796 
C 77.398892 302.085239 93.455847 312.814154 111.126385 320.13353 
C 128.796922 327.452906 147.737392 331.2204 166.863844 331.2204 
C 185.990295 331.2204 204.930766 327.452906 222.601303 320.13353 
C 240.27184 312.814154 256.328796 302.085239 269.853239 288.560796 
C 283.377683 275.036352 294.106598 258.979396 301.425974 241.308859 
C 308.74535 223.638322 312.512844 204.697851 312.512844 185.5714 
C 312.512844 166.444949 308.74535 147.504478 301.425974 129.833941 
C 294.106598 112.163404 283.377683 96.106448 269.853239 82.582004 
C 256.328796 69.057561 240.27184 58.328646 222.601303 51.00927 
C 204.930766 43.689894 185.990295 39.9224 166.863844 39.9224 
" style="fill: none; stroke: #000000; stroke-width: 0.8; stroke-linejoin: miter; stroke-linecap: square"/>
   </g>
   <g id="text_5">
    <!-- Breda -->
    <g transform="translate(143.362594 19.3575) scale(0.16 -0.16)">
     <defs>
      <path id="DejaVuSans-42" d="M 1259 2228 
L 1259 519 
L 2272 519 
Q 2781 519 3026 730 
Q 3272 941 3272 1375 
Q 3272 1813 3026 2020 
Q 2781 2228 2272 2228 
L 1259 2228 
z
M 1259 4147 
L 1259 2741 
L 2194 2741 
Q 2656 2741 2882 2914 
Q 3109 3088 3109 3444 
Q 3109 3797 2882 3972 
Q 2656 4147 2194 4147 
L 1259 4147 
z
M 628 4666 
L 2241 4666 
Q 2963 4666 3353 4366 
Q 3744 4066 3744 3513 
Q 3744 3084 3544 2831 
Q 3344 2578 2956 2516 
Q 3422 2416 3680 2098 
Q 3938 1781 3938 1306 
Q 3938 681 3513 340 
Q 3088 0 2303 0 
L 628 0 
L 628 4666 
z
" transform="scale(0.015625)"/>
      <path id="DejaVuSans-72" d="M 2631 2963 
Q 2534 3019 2420 3045 
Q 2306 3072 2169 3072 
Q 1681 3072 1420 2755 
Q 1159 2438 1159 1844 
L 1159 0 
L 581 0 
L 581 3500 
L 1159 3500 
L 1159 2956 
Q 1341 3275 1631 3429 
Q 1922 3584 2338 3584 
Q 2397 3584 2469 3576 
Q 2541 3569 2628 3553 
L 2631 2963 
z
" transform="scale(0.015625)"/>
      <path id="DejaVuSans-65" d="M 3597 1894 
L 3597 1613 
L 953 1613 
Q 991 1019 1311 708 
Q 1631 397 2203 397 
Q 2534 397 2845 478 
Q 3156 559 3463 722 
L 3463 178 
Q 3153 47 2828 -22 
Q 2503 -91 2169 -91 
Q 1331 -91 842 396 
Q 353 884 353 1716 
Q 353 2575 817 3079 
Q 1281 3584 2069 3584 
Q 2775 3584 3186 3129 
Q 3597 2675 3597 1894 
z
M 3022 2063 
Q 3016 2534 2758 2815 
Q 2500 3097 2075 3097 
Q 1594 3097 1305 2825 
Q 1016 2553 972 2059 
L 3022 2063 
z
" transform="scale(0.015625)"/>
      <path id="DejaVuSans-64" d="M 2906 2969 
L 2906 4863 
L 3481 4863 
L 3481 0 
L 2906 0 
L 2906 525 
Q 2725 213 2448 61 
Q 2172 -91 1784 -91 
Q 1150 -91 751 415 
Q 353 922 353 1747 
Q 353 2572 751 3078 
Q 1150 3584 1784 3584 
Q 2172 3584 2448 3432 
Q 2725 3281 2906 2969 
z
M 947 1747 
Q 947 1113 1208 752 
Q 1469 391 1925 391 
Q 2381 391 2643 752 
Q 2906 1113 2906 1747 
Q 2906 2381 2643 2742 
Q 2381 3103 1925 3103 
Q 1469 3103 1208 2742 
Q 947 2381 947 1747 
z
" transform="scale(0.015625)"/>
      <path id="DejaVuSans-61" d="M 2194 1759 
Q 1497 1759 1228 1600 
Q 959 1441 959 1056 
Q 959 750 1161 570 
Q 1363 391 1709 391 
Q 2188 391 2477 730 
Q 2766 1069 2766 1631 
L 2766 1759 
L 2194 1759 
z
M 3341 1997 
L 3341 0 
L 2766 0 
L 2766 531 
Q 2569 213 2275 61 
Q 1981 -91 1556 -91 
Q 1019 -91 701 211 
Q 384 513 384 1019 
Q 384 1609 779 1909 
Q 1175 2209 1959 2209 
L 2766 2209 
L 2766 2266 
Q 2766 2663 2505 2880 
Q 2244 3097 1772 3097 
Q 1472 3097 1187 3025 
Q 903 2953 641 2809 
L 641 3341 
Q 956 3463 1253 3523 
Q 1550 3584 1831 3584 
Q 2591 3584 2966 3190 
Q 3341 2797 3341 1997 
z
" transform="scale(0.015625)"/>
     </defs>
     <use xlink:href="#DejaVuSans-42"/>
     <use xlink:href="#DejaVuSans-72" x="68.603516"/>
     <use xlink:href="#DejaVuSans-65" x="107.466797"/>
     <use xlink:href="#DejaVuSans-64" x="168.990234"/>
     <use xlink:href="#DejaVuSans-61" x="232.466797"/>
    </g>
   </g>
  </g>
 </g>
 <defs>
  <clipPath id="pfc44bf9ec4">
   <path d="M 312.512844 185.5714 
C 312.512844 166.444949 308.74535 147.504478 301.425974 129.833941 
C 294.106598 112.163404 283.377683 96.106448 269.853239 82.582004 
C 256.328796 69.057561 240.27184 58.328646 222.601303 51.00927 
C 204.930766 43.689894 185.990295 39.9224 166.863844 39.9224 
C 147.737392 39.9224 128.796922 43.689894 111.126385 51.00927 
C 93.455847 58.328646 77.398892 69.057561 63.874448 82.582004 
C 50.350005 96.106448 39.62109 112.163404 32.301714 129.833941 
C 24.982338 147.504478 21.214844 166.444949 21.214844 185.5714 
C 21.214844 204.697851 24.982338 223.638322 32.301714 241.308859 
C 39.62109 258.979396 50.350005 275.036352 63.874448 288.560796 
C 77.398892 302.085239 93.455847 312.814154 111.126385 320.13353 
C 128.796922 327.452906 147.737392 331.2204 166.863844 331.2204 
C 185.990295 331.2204 204.930766 327.452906 222.601303 320.13353 
C 240.27184 312.814154 256.328796 302.085239 269.853239 288.560796 
C 283.377683 275.036352 294.106598 258.979396 301.425974 241.308859 
C 308.74535 223.638322 312.512844 204.697851 312.512844 185.5714 
M 166.863844 185.5714 
C 166.863844 185.5714 166.863844 185.5714 166.863844 185.5714 
C 166.863844 185.5714 166.863844 185.5714 166.863844 185.5714 
C 166.863844 185.5714 166.863844 185.5714 166.863844 185.5714 
C 166.863844 185.5714 166.863844 185.5714 166.863844 185.5714 
C 166.863844 185.5714 166.863844 185.5714 166.863844 185.5714 
C 166.863844 185.5714 166.863844 185.5714 166.863844 185.5714 
C 166.863844 185.5714 166.863844 185.5714 166.863844 185.5714 
C 166.863844 185.5714 166.863844 185.5714 166.863844 185.5714 
C 166.863844 185.5714 166.863844 185.5714 166.863844 185.5714 
C 166.863844 185.5714 166.863844 185.5714 166.863844 185.5714 
C 166.863844 185.5714 166.863844 185.5714 166.863844 185.5714 
C 166.863844 185.5714 166.863844 185.5714 166.863844 185.5714 
C 166.863844 185.5714 166.863844 185.5714 166.863844 185.5714 
C 166.863844 185.5714 166.863844 185.5714 166.863844 185.5714 
C 166.863844 185.5714 166.863844 185.5714 166.863844 185.5714 
C 166.863844 185.5714 166.863844 185.5714 166.863844 185.5714 
z
"/>
  </clipPath>
 </defs>
</svg>
