<?xml version="1.0" encoding="utf-8" standalone="no"?>
<!DOCTYPE svg PUBLIC "-//W3C//DTD SVG 1.1//EN"
  "http://www.w3.org/Graphics/SVG/1.1/DTD/svg11.dtd">
<svg xmlns:xlink="http://www.w3.org/1999/xlink" width="331.628469pt" height="351.759462pt" viewBox="0 0 331.628469 351.759462" xmlns="http://www.w3.org/2000/svg" version="1.1">
 <metadata>
  <rdf:RDF xmlns:dc="http://purl.org/dc/elements/1.1/" xmlns:cc="http://creativecommons.org/ns#" xmlns:rdf="http://www.w3.org/1999/02/22-rdf-syntax-ns#">
   <cc:Work>
    <dc:type rdf:resource="http://purl.org/dc/dcmitype/StillImage"/>
    <dc:date>2023-08-26T13:01:33.824711</dc:date>
    <dc:format>image/svg+xml</dc:format>
    <dc:creator>
     <cc:Agent>
      <dc:title>Matplotlib v3.7.1, https://matplotlib.org/</dc:title>
     </cc:Agent>
    </dc:creator>
   </cc:Work>
  </rdf:RDF>
 </metadata>
 <defs>
  <style type="text/css">*{stroke-linejoin: round; stroke-linecap: butt}</style>
 </defs>
 <g id="figure_1">
  <g id="patch_1">
   <path d="M 0 351.759462 
L 331.628469 351.759462 
L 331.628469 0 
L 0 0 
z
" style="fill: #ffffff"/>
  </g>
  <g id="axes_1">
   <g id="patch_2">
    <path d="M 312.512844 185.5714 
C 312.512844 166.444949 308.74535 147.504478 301.425974 129.833941 
C 294.106598 112.163404 283.377683 96.106448 269.853239 82.582004 
C 256.328796 69.057561 240.27184 58.328646 222.601303 51.00927 
C 204.930766 43.689894 185.990295 39.9224 166.863844 39.9224 
C 147.737392 39.9224 128.796922 43.689894 111.126385 51.00927 
C 93.455847 58.328646 77.398892 69.057561 63.874448 82.582004 
C 50.350005 96.106448 39.62109 112.163404 32.301714 129.833941 
C 24.982338 147.504478 21.214844 166.444949 21.214844 185.5714 
C 21.214844 204.697851 24.982338 223.638322 32.301714 241.308859 
C 39.62109 258.979396 50.350005 275.036352 63.874448 288.560796 
C 77.398892 302.085239 93.455847 312.814154 111.126385 320.13353 
C 128.796922 327.452906 147.737392 331.2204 166.863844 331.2204 
C 185.990295 331.2204 204.930766 327.452906 222.601303 320.13353 
C 240.27184 312.814154 256.328796 302.085239 269.853239 288.560796 
C 283.377683 275.036352 294.106598 258.979396 301.425974 241.308859 
C 308.74535 223.638322 312.512844 204.697851 312.512844 185.5714 
M 166.863844 185.5714 
C 166.863844 185.5714 166.863844 185.5714 166.863844 185.5714 
C 166.863844 185.5714 166.863844 185.5714 166.863844 185.5714 
C 166.863844 185.5714 166.863844 185.5714 166.863844 185.5714 
C 166.863844 185.5714 166.863844 185.5714 166.863844 185.5714 
C 166.863844 185.5714 166.863844 185.5714 166.863844 185.5714 
C 166.863844 185.5714 166.863844 185.5714 166.863844 185.5714 
C 166.863844 185.5714 166.863844 185.5714 166.863844 185.5714 
C 166.863844 185.5714 166.863844 185.5714 166.863844 185.5714 
C 166.863844 185.5714 166.863844 185.5714 166.863844 185.5714 
C 166.863844 185.5714 166.863844 185.5714 166.863844 185.5714 
C 166.863844 185.5714 166.863844 185.5714 166.863844 185.5714 
C 166.863844 185.5714 166.863844 185.5714 166.863844 185.5714 
C 166.863844 185.5714 166.863844 185.5714 166.863844 185.5714 
C 166.863844 185.5714 166.863844 185.5714 166.863844 185.5714 
C 166.863844 185.5714 166.863844 185.5714 166.863844 185.5714 
C 166.863844 185.5714 166.863844 185.5714 166.863844 185.5714 
z
" style="fill: #ffffff"/>
   </g>
   <g id="matplotlib.axis_1">
    <g id="xtick_1">
     <g id="line2d_1">
      <path d="M 166.863844 185.5714 
L 166.863844 39.9224 
" clip-path="url(#pbce85fe7d0)" style="fill: none; stroke: #b0b0b0; stroke-width: 0.8; stroke-linecap: square"/>
     </g>
     <g id="text_1">
      <!-- N -->
      <g transform="translate(162.679469 34.181775) scale(0.1 -0.1)">
       <defs>
        <path id="DejaVuSans-Bold-4e" d="M 588 4666 
L 1931 4666 
L 3628 1466 
L 3628 4666 
L 4769 4666 
L 4769 0 
L 3425 0 
L 1728 3200 
L 1728 0 
L 588 0 
L 588 4666 
z
" transform="scale(0.015625)"/>
       </defs>
       <use xlink:href="#DejaVuSans-Bold-4e"/>
      </g>
     </g>
    </g>
    <g id="xtick_2">
     <g id="line2d_2">
      <path d="M 166.863844 185.5714 
L 269.853239 82.582004 
" clip-path="url(#pbce85fe7d0)" style="fill: none; stroke: #b0b0b0; stroke-width: 0.8; stroke-linecap: square"/>
     </g>
    </g>
    <g id="xtick_3">
     <g id="line2d_3">
      <path d="M 166.863844 185.5714 
L 312.512844 185.5714 
" clip-path="url(#pbce85fe7d0)" style="fill: none; stroke: #b0b0b0; stroke-width: 0.8; stroke-linecap: square"/>
     </g>
     <g id="text_2">
      <!-- E -->
      <g transform="translate(317.597219 188.330775) scale(0.1 -0.1)">
       <defs>
        <path id="DejaVuSans-Bold-45" d="M 588 4666 
L 3834 4666 
L 3834 3756 
L 1791 3756 
L 1791 2888 
L 3713 2888 
L 3713 1978 
L 1791 1978 
L 1791 909 
L 3903 909 
L 3903 0 
L 588 0 
L 588 4666 
z
" transform="scale(0.015625)"/>
       </defs>
       <use xlink:href="#DejaVuSans-Bold-45"/>
      </g>
     </g>
    </g>
    <g id="xtick_4">
     <g id="line2d_4">
      <path d="M 166.863844 185.5714 
L 269.853239 288.560796 
" clip-path="url(#pbce85fe7d0)" style="fill: none; stroke: #b0b0b0; stroke-width: 0.8; stroke-linecap: square"/>
     </g>
    </g>
    <g id="xtick_5">
     <g id="line2d_5">
      <path d="M 166.863844 185.5714 
L 166.863844 331.2204 
" clip-path="url(#pbce85fe7d0)" style="fill: none; stroke: #b0b0b0; stroke-width: 0.8; stroke-linecap: square"/>
     </g>
     <g id="text_3">
      <!-- S -->
      <g transform="translate(163.263062 342.479775) scale(0.1 -0.1)">
       <defs>
        <path id="DejaVuSans-Bold-53" d="M 3834 4519 
L 3834 3531 
Q 3450 3703 3084 3790 
Q 2719 3878 2394 3878 
Q 1963 3878 1756 3759 
Q 1550 3641 1550 3391 
Q 1550 3203 1689 3098 
Q 1828 2994 2194 2919 
L 2706 2816 
Q 3484 2659 3812 2340 
Q 4141 2022 4141 1434 
Q 4141 663 3683 286 
Q 3225 -91 2284 -91 
Q 1841 -91 1394 -6 
Q 947 78 500 244 
L 500 1259 
Q 947 1022 1364 901 
Q 1781 781 2169 781 
Q 2563 781 2772 912 
Q 2981 1044 2981 1288 
Q 2981 1506 2839 1625 
Q 2697 1744 2272 1838 
L 1806 1941 
Q 1106 2091 782 2419 
Q 459 2747 459 3303 
Q 459 4000 909 4375 
Q 1359 4750 2203 4750 
Q 2588 4750 2994 4692 
Q 3400 4634 3834 4519 
z
" transform="scale(0.015625)"/>
       </defs>
       <use xlink:href="#DejaVuSans-Bold-53"/>
      </g>
     </g>
    </g>
    <g id="xtick_6">
     <g id="line2d_6">
      <path d="M 166.863844 185.5714 
L 63.874448 288.560796 
" clip-path="url(#pbce85fe7d0)" style="fill: none; stroke: #b0b0b0; stroke-width: 0.8; stroke-linecap: square"/>
     </g>
    </g>
    <g id="xtick_7">
     <g id="line2d_7">
      <path d="M 166.863844 185.5714 
L 21.214844 185.5714 
" clip-path="url(#pbce85fe7d0)" style="fill: none; stroke: #b0b0b0; stroke-width: 0.8; stroke-linecap: square"/>
     </g>
     <g id="text_4">
      <!-- W -->
      <g transform="translate(7.2 188.330775) scale(0.1 -0.1)">
       <defs>
        <path id="DejaVuSans-Bold-57" d="M 191 4666 
L 1344 4666 
L 2150 1275 
L 2950 4666 
L 4109 4666 
L 4909 1275 
L 5716 4666 
L 6859 4666 
L 5759 0 
L 4372 0 
L 3525 3547 
L 2688 0 
L 1300 0 
L 191 4666 
z
" transform="scale(0.015625)"/>
       </defs>
       <use xlink:href="#DejaVuSans-Bold-57"/>
      </g>
     </g>
    </g>
    <g id="xtick_8">
     <g id="line2d_8">
      <path d="M 166.863844 185.5714 
L 63.874448 82.582004 
" clip-path="url(#pbce85fe7d0)" style="fill: none; stroke: #b0b0b0; stroke-width: 0.8; stroke-linecap: square"/>
     </g>
    </g>
   </g>
   <g id="matplotlib.axis_2">
    <g id="ytick_1">
     <g id="line2d_9">
      <path d="M 166.863844 185.5714 
C 166.863844 185.5714 166.863844 185.5714 166.863844 185.5714 
C 166.863844 185.5714 166.863844 185.5714 166.863844 185.5714 
C 166.863844 185.5714 166.863844 185.5714 166.863844 185.5714 
C 166.863844 185.5714 166.863844 185.5714 166.863844 185.5714 
C 166.863844 185.5714 166.863844 185.5714 166.863844 185.5714 
C 166.863844 185.5714 166.863844 185.5714 166.863844 185.5714 
C 166.863844 185.5714 166.863844 185.5714 166.863844 185.5714 
C 166.863844 185.5714 166.863844 185.5714 166.863844 185.5714 
C 166.863844 185.5714 166.863844 185.5714 166.863844 185.5714 
C 166.863844 185.5714 166.863844 185.5714 166.863844 185.5714 
C 166.863844 185.5714 166.863844 185.5714 166.863844 185.5714 
C 166.863844 185.5714 166.863844 185.5714 166.863844 185.5714 
C 166.863844 185.5714 166.863844 185.5714 166.863844 185.5714 
C 166.863844 185.5714 166.863844 185.5714 166.863844 185.5714 
C 166.863844 185.5714 166.863844 185.5714 166.863844 185.5714 
C 166.863844 185.5714 166.863844 185.5714 166.863844 185.5714 
" clip-path="url(#pbce85fe7d0)" style="fill: none; stroke: #b0b0b0; stroke-width: 0.8; stroke-linecap: square"/>
     </g>
    </g>
    <g id="ytick_2">
     <g id="line2d_10">
      <path d="M 166.863844 149.15915 
C 171.645457 149.15915 176.380574 150.101023 180.798209 151.930867 
C 185.215843 153.760712 189.230082 156.44294 192.611193 159.824051 
C 195.992304 163.205162 198.674532 167.219401 200.504376 171.637035 
C 202.33422 176.054669 203.276094 180.789787 203.276094 185.5714 
C 203.276094 190.353013 202.33422 195.088131 200.504376 199.505765 
C 198.674532 203.923399 195.992304 207.937638 192.611193 211.318749 
C 189.230082 214.69986 185.215843 217.382088 180.798209 219.211933 
C 176.380574 221.041777 171.645457 221.98365 166.863844 221.98365 
C 162.082231 221.98365 157.347113 221.041777 152.929479 219.211933 
C 148.511845 217.382088 144.497606 214.69986 141.116495 211.318749 
C 137.735384 207.937638 135.053155 203.923399 133.223311 199.505765 
C 131.393467 195.088131 130.451594 190.353013 130.451594 185.5714 
C 130.451594 180.789787 131.393467 176.054669 133.223311 171.637035 
C 135.053155 167.219401 137.735384 163.205162 141.116495 159.824051 
C 144.497606 156.44294 148.511845 153.760712 152.929479 151.930867 
C 157.347113 150.101023 162.082231 149.15915 166.863844 149.15915 
" clip-path="url(#pbce85fe7d0)" style="fill: none; stroke: #b0b0b0; stroke-width: 0.8; stroke-linecap: square"/>
     </g>
    </g>
    <g id="ytick_3">
     <g id="line2d_11">
      <path d="M 166.863844 112.7469 
C 176.427069 112.7469 185.897305 114.630647 194.732573 118.290335 
C 203.567842 121.950023 211.59632 127.31448 218.358542 134.076702 
C 225.120763 140.838924 230.485221 148.867402 234.144909 157.70267 
C 237.804597 166.537939 239.688344 176.008174 239.688344 185.5714 
C 239.688344 195.134626 237.804597 204.604861 234.144909 213.44013 
C 230.485221 222.275398 225.120763 230.303876 218.358542 237.066098 
C 211.59632 243.82832 203.567842 249.192777 194.732573 252.852465 
C 185.897305 256.512153 176.427069 258.3959 166.863844 258.3959 
C 157.300618 258.3959 147.830383 256.512153 138.995114 252.852465 
C 130.159846 249.192777 122.131368 243.82832 115.369146 237.066098 
C 108.606924 230.303876 103.242467 222.275398 99.582779 213.44013 
C 95.923091 204.604861 94.039344 195.134626 94.039344 185.5714 
C 94.039344 176.008174 95.923091 166.537939 99.582779 157.70267 
C 103.242467 148.867402 108.606924 140.838924 115.369146 134.076702 
C 122.131368 127.31448 130.159846 121.950023 138.995114 118.290335 
C 147.830383 114.630647 157.300618 112.7469 166.863844 112.7469 
" clip-path="url(#pbce85fe7d0)" style="fill: none; stroke: #b0b0b0; stroke-width: 0.8; stroke-linecap: square"/>
     </g>
    </g>
    <g id="ytick_4">
     <g id="line2d_12">
      <path d="M 166.863844 76.33465 
C 181.208682 76.33465 195.414035 79.16027 208.666938 84.649802 
C 221.919841 90.139335 233.962558 98.186021 244.10589 108.329353 
C 254.249223 118.472686 262.295909 130.515403 267.785441 143.768306 
C 273.274973 157.021208 276.100594 171.226561 276.100594 185.5714 
C 276.100594 199.916239 273.274973 214.121592 267.785441 227.374494 
C 262.295909 240.627397 254.249223 252.670114 244.10589 262.813447 
C 233.962558 272.956779 221.919841 281.003465 208.666938 286.492998 
C 195.414035 291.98253 181.208682 294.80815 166.863844 294.80815 
C 152.519005 294.80815 138.313652 291.98253 125.060749 286.492998 
C 111.807847 281.003465 99.76513 272.956779 89.621797 262.813447 
C 79.478464 252.670114 71.431778 240.627397 65.942246 227.374494 
C 60.452714 214.121592 57.627094 199.916239 57.627094 185.5714 
C 57.627094 171.226561 60.452714 157.021208 65.942246 143.768306 
C 71.431778 130.515403 79.478464 118.472686 89.621797 108.329353 
C 99.76513 98.186021 111.807847 90.139335 125.060749 84.649802 
C 138.313652 79.16027 152.519005 76.33465 166.863844 76.33465 
" clip-path="url(#pbce85fe7d0)" style="fill: none; stroke: #b0b0b0; stroke-width: 0.8; stroke-linecap: square"/>
     </g>
    </g>
    <g id="ytick_5">
     <g id="line2d_13">
      <path d="M 166.863844 39.9224 
C 185.990295 39.9224 204.930766 43.689894 222.601303 51.00927 
C 240.27184 58.328646 256.328796 69.057561 269.853239 82.582004 
C 283.377683 96.106448 294.106598 112.163404 301.425974 129.833941 
C 308.74535 147.504478 312.512844 166.444949 312.512844 185.5714 
C 312.512844 204.697851 308.74535 223.638322 301.425974 241.308859 
C 294.106598 258.979396 283.377683 275.036352 269.853239 288.560796 
C 256.328796 302.085239 240.27184 312.814154 222.601303 320.13353 
C 204.930766 327.452906 185.990295 331.2204 166.863844 331.2204 
C 147.737392 331.2204 128.796922 327.452906 111.126385 320.13353 
C 93.455847 312.814154 77.398892 302.085239 63.874448 288.560796 
C 50.350005 275.036352 39.62109 258.979396 32.301714 241.308859 
C 24.982338 223.638322 21.214844 204.697851 21.214844 185.5714 
C 21.214844 166.444949 24.982338 147.504478 32.301714 129.833941 
C 39.62109 112.163404 50.350005 96.106448 63.874448 82.582004 
C 77.398892 69.057561 93.455847 58.328646 111.126385 51.00927 
C 128.796922 43.689894 147.737392 39.9224 166.863844 39.9224 
" clip-path="url(#pbce85fe7d0)" style="fill: none; stroke: #b0b0b0; stroke-width: 0.8; stroke-linecap: square"/>
     </g>
    </g>
   </g>
   <g id="patch_3">
    <path d="M 166.863844 185.5714 
C 166.863844 185.5714 166.863844 185.5714 166.863844 185.5714 
C 166.863844 185.5714 166.863844 185.5714 166.863844 185.5714 
L 179.360586 42.732984 
C 175.204926 42.369411 171.035378 42.187365 166.863844 42.187365 
C 162.69231 42.187365 158.522762 42.369411 154.367102 42.732984 
z
" clip-path="url(#pbce85fe7d0)" style="fill: #003366; opacity: 0.7; stroke: #000000; stroke-width: 0.5; stroke-linejoin: miter"/>
   </g>
   <g id="patch_4">
    <path d="M 166.863844 185.5714 
C 166.863844 185.5714 166.863844 185.5714 166.863844 185.5714 
C 166.863844 185.5714 166.863844 185.5714 166.863844 185.5714 
L 200.042571 61.746703 
C 196.440086 60.78142 192.79719 59.973809 189.124283 59.326177 
C 185.451376 58.678544 181.751955 58.191506 178.036579 57.866453 
z
" clip-path="url(#pbce85fe7d0)" style="fill: #003366; opacity: 0.7; stroke: #000000; stroke-width: 0.5; stroke-linejoin: miter"/>
   </g>
   <g id="patch_5">
    <path d="M 166.863844 185.5714 
C 166.863844 185.5714 166.863844 185.5714 166.863844 185.5714 
C 166.863844 185.5714 166.863844 185.5714 166.863844 185.5714 
L 216.412616 79.313715 
C 213.321215 77.872171 210.168377 76.566222 206.963101 75.399597 
C 203.757824 74.232972 200.503163 73.206781 197.208406 72.323954 
z
" clip-path="url(#pbce85fe7d0)" style="fill: #003366; opacity: 0.7; stroke: #000000; stroke-width: 0.5; stroke-linejoin: miter"/>
   </g>
   <g id="patch_6">
    <path d="M 166.863844 185.5714 
C 166.863844 185.5714 166.863844 185.5714 166.863844 185.5714 
C 166.863844 185.5714 166.863844 185.5714 166.863844 185.5714 
L 232.260958 92.174641 
C 229.543726 90.272015 226.744756 88.488874 223.872038 86.83031 
C 220.999321 85.171746 218.055591 83.639337 215.049252 82.237458 
z
" clip-path="url(#pbce85fe7d0)" style="fill: #003366; opacity: 0.7; stroke: #000000; stroke-width: 0.5; stroke-linejoin: miter"/>
   </g>
   <g id="patch_7">
    <path d="M 166.863844 185.5714 
C 166.863844 185.5714 166.863844 185.5714 166.863844 185.5714 
C 166.863844 185.5714 166.863844 185.5714 166.863844 185.5714 
L 247.618516 104.816727 
C 245.269086 102.467296 242.818244 100.221514 240.272987 98.08579 
C 237.72773 95.950066 235.090482 93.926434 232.36877 92.02067 
z
" clip-path="url(#pbce85fe7d0)" style="fill: #003366; opacity: 0.7; stroke: #000000; stroke-width: 0.5; stroke-linejoin: miter"/>
   </g>
   <g id="patch_8">
    <path d="M 166.863844 185.5714 
C 166.863844 185.5714 166.863844 185.5714 166.863844 185.5714 
C 166.863844 185.5714 166.863844 185.5714 166.863844 185.5714 
L 268.135962 114.659899 
C 266.072903 111.713546 263.882247 108.858627 261.570246 106.103292 
C 259.258246 103.347958 256.827104 100.694831 254.283758 98.151486 
z
" clip-path="url(#pbce85fe7d0)" style="fill: #003366; opacity: 0.7; stroke: #000000; stroke-width: 0.5; stroke-linejoin: miter"/>
   </g>
   <g id="patch_9">
    <path d="M 166.863844 185.5714 
C 166.863844 185.5714 166.863844 185.5714 166.863844 185.5714 
C 166.863844 185.5714 166.863844 185.5714 166.863844 185.5714 
L 287.572856 129.283863 
C 285.935259 125.772023 284.145183 122.333321 282.20774 118.97757 
C 280.270297 115.62182 278.187331 112.352218 275.964787 109.178097 
z
" clip-path="url(#pbce85fe7d0)" style="fill: #003366; opacity: 0.7; stroke: #000000; stroke-width: 0.5; stroke-linejoin: miter"/>
   </g>
   <g id="patch_10">
    <path d="M 166.863844 185.5714 
C 166.863844 185.5714 166.863844 185.5714 166.863844 185.5714 
C 166.863844 185.5714 166.863844 185.5714 166.863844 185.5714 
L 306.855591 148.060724 
C 305.764277 143.987883 304.495743 139.964607 303.05361 136.002379 
C 301.611476 132.040151 299.997118 128.142744 298.215142 124.321284 
z
" clip-path="url(#pbce85fe7d0)" style="fill: #003366; opacity: 0.7; stroke: #000000; stroke-width: 0.5; stroke-linejoin: miter"/>
   </g>
   <g id="patch_11">
    <path d="M 166.863844 185.5714 
C 166.863844 185.5714 166.863844 185.5714 166.863844 185.5714 
C 166.863844 185.5714 166.863844 185.5714 166.863844 185.5714 
L 308.903094 173.144576 
C 308.541555 169.012166 307.999849 164.897502 307.279522 160.812327 
C 306.559196 156.727153 305.660935 152.675359 304.587303 148.66851 
z
" clip-path="url(#pbce85fe7d0)" style="fill: #003366; opacity: 0.7; stroke: #000000; stroke-width: 0.5; stroke-linejoin: miter"/>
   </g>
   <g id="patch_12">
    <path d="M 166.863844 185.5714 
C 166.863844 185.5714 166.863844 185.5714 166.863844 185.5714 
C 166.863844 185.5714 166.863844 185.5714 166.863844 185.5714 
L 309.501266 198.050557 
C 309.864327 193.900745 310.046118 189.737064 310.046118 185.5714 
C 310.046118 181.405736 309.864327 177.242055 309.501266 173.092243 
z
" clip-path="url(#pbce85fe7d0)" style="fill: #003366; opacity: 0.7; stroke: #000000; stroke-width: 0.5; stroke-linejoin: miter"/>
   </g>
   <g id="patch_13">
    <path d="M 166.863844 185.5714 
C 166.863844 185.5714 166.863844 185.5714 166.863844 185.5714 
C 166.863844 185.5714 166.863844 185.5714 166.863844 185.5714 
L 290.948257 218.819718 
C 291.915564 215.209676 292.724869 211.55914 293.37386 207.878529 
C 294.022851 204.197918 294.51091 200.490738 294.836646 196.767569 
z
" clip-path="url(#pbce85fe7d0)" style="fill: #003366; opacity: 0.7; stroke: #000000; stroke-width: 0.5; stroke-linejoin: miter"/>
   </g>
   <g id="patch_14">
    <path d="M 166.863844 185.5714 
C 166.863844 185.5714 166.863844 185.5714 166.863844 185.5714 
C 166.863844 185.5714 166.863844 185.5714 166.863844 185.5714 
L 273.797009 235.435154 
C 275.247717 232.324101 276.561967 229.15122 277.736008 225.925568 
C 278.91005 222.699916 279.942764 219.424564 280.831204 216.108862 
z
" clip-path="url(#pbce85fe7d0)" style="fill: #003366; opacity: 0.7; stroke: #000000; stroke-width: 0.5; stroke-linejoin: miter"/>
   </g>
   <g id="patch_15">
    <path d="M 166.863844 185.5714 
C 166.863844 185.5714 166.863844 185.5714 166.863844 185.5714 
C 166.863844 185.5714 166.863844 185.5714 166.863844 185.5714 
L 260.213691 250.935667 
C 262.115362 248.219799 263.897607 245.422235 265.555338 242.550961 
C 267.213069 239.679686 268.744708 236.737435 270.145883 233.732606 
z
" clip-path="url(#pbce85fe7d0)" style="fill: #003366; opacity: 0.7; stroke: #000000; stroke-width: 0.5; stroke-linejoin: miter"/>
   </g>
   <g id="patch_16">
    <path d="M 166.863844 185.5714 
C 166.863844 185.5714 166.863844 185.5714 166.863844 185.5714 
C 166.863844 185.5714 166.863844 185.5714 166.863844 185.5714 
L 247.474038 266.181594 
C 249.819266 263.836367 252.06103 261.38991 254.192933 258.849207 
C 256.324836 256.308504 258.344848 253.675974 260.247202 250.959131 
z
" clip-path="url(#pbce85fe7d0)" style="fill: #003366; opacity: 0.7; stroke: #000000; stroke-width: 0.5; stroke-linejoin: miter"/>
   </g>
   <g id="patch_17">
    <path d="M 166.863844 185.5714 
C 166.863844 185.5714 166.863844 185.5714 166.863844 185.5714 
C 166.863844 185.5714 166.863844 185.5714 166.863844 185.5714 
L 238.047393 287.232043 
C 241.00505 285.161069 243.870921 282.962009 246.636827 280.641139 
C 249.402732 278.320269 252.066037 275.879799 254.61914 273.326696 
z
" clip-path="url(#pbce85fe7d0)" style="fill: #003366; opacity: 0.7; stroke: #000000; stroke-width: 0.5; stroke-linejoin: miter"/>
   </g>
   <g id="patch_18">
    <path d="M 166.863844 185.5714 
C 166.863844 185.5714 166.863844 185.5714 166.863844 185.5714 
C 166.863844 185.5714 166.863844 185.5714 166.863844 185.5714 
L 223.189836 306.362879 
C 226.704075 304.724163 230.145127 302.932865 233.503169 300.994098 
C 236.861212 299.055331 240.133048 296.970942 243.309337 294.746879 
z
" clip-path="url(#pbce85fe7d0)" style="fill: #003366; opacity: 0.7; stroke: #000000; stroke-width: 0.5; stroke-linejoin: miter"/>
   </g>
   <g id="patch_19">
    <path d="M 166.863844 185.5714 
C 166.863844 185.5714 166.863844 185.5714 166.863844 185.5714 
C 166.863844 185.5714 166.863844 185.5714 166.863844 185.5714 
L 204.560579 326.257531 
C 208.653622 325.160803 212.696854 323.885977 216.678736 322.436691 
C 220.660617 320.987404 224.577355 319.365038 228.417771 317.574223 
z
" clip-path="url(#pbce85fe7d0)" style="fill: #003366; opacity: 0.7; stroke: #000000; stroke-width: 0.5; stroke-linejoin: miter"/>
   </g>
   <g id="patch_20">
    <path d="M 166.863844 185.5714 
C 166.863844 185.5714 166.863844 185.5714 166.863844 185.5714 
C 166.863844 185.5714 166.863844 185.5714 166.863844 185.5714 
L 179.286677 327.565034 
C 183.41776 327.203611 187.531102 326.662079 191.614965 325.941984 
C 195.698827 325.221889 199.74932 324.323916 203.754882 323.250629 
z
" clip-path="url(#pbce85fe7d0)" style="fill: #003366; opacity: 0.7; stroke: #000000; stroke-width: 0.5; stroke-linejoin: miter"/>
   </g>
   <g id="patch_21">
    <path d="M 166.863844 185.5714 
C 166.863844 185.5714 166.863844 185.5714 166.863844 185.5714 
C 166.863844 185.5714 166.863844 185.5714 166.863844 185.5714 
L 154.367102 328.409816 
C 158.522762 328.773389 162.69231 328.955435 166.863844 328.955435 
C 171.035378 328.955435 175.204926 328.773389 179.360586 328.409816 
z
" clip-path="url(#pbce85fe7d0)" style="fill: #003366; opacity: 0.7; stroke: #000000; stroke-width: 0.5; stroke-linejoin: miter"/>
   </g>
   <g id="patch_22">
    <path d="M 166.863844 185.5714 
C 166.863844 185.5714 166.863844 185.5714 166.863844 185.5714 
C 166.863844 185.5714 166.863844 185.5714 166.863844 185.5714 
L 133.685116 309.396097 
C 137.287602 310.36138 140.930497 311.168991 144.603405 311.816623 
C 148.276312 312.464256 151.975733 312.951294 155.691109 313.276347 
z
" clip-path="url(#pbce85fe7d0)" style="fill: #003366; opacity: 0.7; stroke: #000000; stroke-width: 0.5; stroke-linejoin: miter"/>
   </g>
   <g id="patch_23">
    <path d="M 166.863844 185.5714 
C 166.863844 185.5714 166.863844 185.5714 166.863844 185.5714 
C 166.863844 185.5714 166.863844 185.5714 166.863844 185.5714 
L 117.315071 291.829085 
C 120.406472 293.270629 123.559311 294.576578 126.764587 295.743203 
C 129.969863 296.909828 133.224525 297.936019 136.519282 298.818846 
z
" clip-path="url(#pbce85fe7d0)" style="fill: #003366; opacity: 0.7; stroke: #000000; stroke-width: 0.5; stroke-linejoin: miter"/>
   </g>
   <g id="patch_24">
    <path d="M 166.863844 185.5714 
C 166.863844 185.5714 166.863844 185.5714 166.863844 185.5714 
C 166.863844 185.5714 166.863844 185.5714 166.863844 185.5714 
L 101.466729 278.968159 
C 104.183962 280.870785 106.982932 282.653926 109.855649 284.31249 
C 112.728366 285.971054 115.672096 287.503463 118.678435 288.905342 
z
" clip-path="url(#pbce85fe7d0)" style="fill: #003366; opacity: 0.7; stroke: #000000; stroke-width: 0.5; stroke-linejoin: miter"/>
   </g>
   <g id="patch_25">
    <path d="M 166.863844 185.5714 
C 166.863844 185.5714 166.863844 185.5714 166.863844 185.5714 
C 166.863844 185.5714 166.863844 185.5714 166.863844 185.5714 
L 86.109171 266.326073 
C 88.458602 268.675504 90.909443 270.921286 93.4547 273.05701 
C 95.999957 275.192734 98.637206 277.216366 101.358918 279.12213 
z
" clip-path="url(#pbce85fe7d0)" style="fill: #003366; opacity: 0.7; stroke: #000000; stroke-width: 0.5; stroke-linejoin: miter"/>
   </g>
   <g id="patch_26">
    <path d="M 166.863844 185.5714 
C 166.863844 185.5714 166.863844 185.5714 166.863844 185.5714 
C 166.863844 185.5714 166.863844 185.5714 166.863844 185.5714 
L 65.591726 256.482901 
C 67.654785 259.429254 69.845441 262.284173 72.157441 265.039508 
C 74.469441 267.794842 76.900584 270.447969 79.443929 272.991314 
z
" clip-path="url(#pbce85fe7d0)" style="fill: #003366; opacity: 0.7; stroke: #000000; stroke-width: 0.5; stroke-linejoin: miter"/>
   </g>
   <g id="patch_27">
    <path d="M 166.863844 185.5714 
C 166.863844 185.5714 166.863844 185.5714 166.863844 185.5714 
C 166.863844 185.5714 166.863844 185.5714 166.863844 185.5714 
L 46.154831 241.858937 
C 47.792429 245.370777 49.582504 248.809479 51.519947 252.16523 
C 53.457391 255.52098 55.540357 258.790582 57.7629 261.964703 
z
" clip-path="url(#pbce85fe7d0)" style="fill: #003366; opacity: 0.7; stroke: #000000; stroke-width: 0.5; stroke-linejoin: miter"/>
   </g>
   <g id="patch_28">
    <path d="M 166.863844 185.5714 
C 166.863844 185.5714 166.863844 185.5714 166.863844 185.5714 
C 166.863844 185.5714 166.863844 185.5714 166.863844 185.5714 
L 26.872096 223.082076 
C 27.963411 227.154917 29.231945 231.178193 30.674078 235.140421 
C 32.116211 239.102649 33.73057 243.000056 35.512546 246.821516 
z
" clip-path="url(#pbce85fe7d0)" style="fill: #003366; opacity: 0.7; stroke: #000000; stroke-width: 0.5; stroke-linejoin: miter"/>
   </g>
   <g id="patch_29">
    <path d="M 166.863844 185.5714 
C 166.863844 185.5714 166.863844 185.5714 166.863844 185.5714 
C 166.863844 185.5714 166.863844 185.5714 166.863844 185.5714 
L 24.824594 197.998224 
C 25.186133 202.130634 25.727839 206.245298 26.448165 210.330473 
C 27.168492 214.415647 28.066753 218.467441 29.140385 222.47429 
z
" clip-path="url(#pbce85fe7d0)" style="fill: #003366; opacity: 0.7; stroke: #000000; stroke-width: 0.5; stroke-linejoin: miter"/>
   </g>
   <g id="patch_30">
    <path d="M 166.863844 185.5714 
C 166.863844 185.5714 166.863844 185.5714 166.863844 185.5714 
C 166.863844 185.5714 166.863844 185.5714 166.863844 185.5714 
L 24.226422 173.092243 
C 23.86336 177.242055 23.68157 181.405736 23.68157 185.5714 
C 23.68157 189.737064 23.86336 193.900745 24.226422 198.050557 
z
" clip-path="url(#pbce85fe7d0)" style="fill: #003366; opacity: 0.7; stroke: #000000; stroke-width: 0.5; stroke-linejoin: miter"/>
   </g>
   <g id="patch_31">
    <path d="M 166.863844 185.5714 
C 166.863844 185.5714 166.863844 185.5714 166.863844 185.5714 
C 166.863844 185.5714 166.863844 185.5714 166.863844 185.5714 
L 42.779431 152.323082 
C 41.812123 155.933124 41.002819 159.58366 40.353828 163.264271 
C 39.704837 166.944882 39.216777 170.652062 38.891042 174.375231 
z
" clip-path="url(#pbce85fe7d0)" style="fill: #003366; opacity: 0.7; stroke: #000000; stroke-width: 0.5; stroke-linejoin: miter"/>
   </g>
   <g id="patch_32">
    <path d="M 166.863844 185.5714 
C 166.863844 185.5714 166.863844 185.5714 166.863844 185.5714 
C 166.863844 185.5714 166.863844 185.5714 166.863844 185.5714 
L 59.930679 135.707646 
C 58.479971 138.818699 57.16572 141.99158 55.991679 145.217232 
C 54.817638 148.442884 53.784923 151.718236 52.896484 155.033938 
z
" clip-path="url(#pbce85fe7d0)" style="fill: #003366; opacity: 0.7; stroke: #000000; stroke-width: 0.5; stroke-linejoin: miter"/>
   </g>
   <g id="patch_33">
    <path d="M 166.863844 185.5714 
C 166.863844 185.5714 166.863844 185.5714 166.863844 185.5714 
C 166.863844 185.5714 166.863844 185.5714 166.863844 185.5714 
L 73.513996 120.207133 
C 71.612325 122.923001 69.830081 125.720565 68.172349 128.591839 
C 66.514618 131.463114 64.982979 134.405365 63.581804 137.410194 
z
" clip-path="url(#pbce85fe7d0)" style="fill: #003366; opacity: 0.7; stroke: #000000; stroke-width: 0.5; stroke-linejoin: miter"/>
   </g>
   <g id="patch_34">
    <path d="M 166.863844 185.5714 
C 166.863844 185.5714 166.863844 185.5714 166.863844 185.5714 
C 166.863844 185.5714 166.863844 185.5714 166.863844 185.5714 
L 86.253649 104.961206 
C 83.908422 107.306433 81.666657 109.75289 79.534754 112.293593 
C 77.402851 114.834296 75.38284 117.466826 73.480486 120.183669 
z
" clip-path="url(#pbce85fe7d0)" style="fill: #003366; opacity: 0.7; stroke: #000000; stroke-width: 0.5; stroke-linejoin: miter"/>
   </g>
   <g id="patch_35">
    <path d="M 166.863844 185.5714 
C 166.863844 185.5714 166.863844 185.5714 166.863844 185.5714 
C 166.863844 185.5714 166.863844 185.5714 166.863844 185.5714 
L 95.680295 83.910757 
C 92.722638 85.981731 89.856766 88.180791 87.090861 90.501661 
C 84.324956 92.822531 81.661651 95.263001 79.108548 97.816104 
z
" clip-path="url(#pbce85fe7d0)" style="fill: #003366; opacity: 0.7; stroke: #000000; stroke-width: 0.5; stroke-linejoin: miter"/>
   </g>
   <g id="patch_36">
    <path d="M 166.863844 185.5714 
C 166.863844 185.5714 166.863844 185.5714 166.863844 185.5714 
C 166.863844 185.5714 166.863844 185.5714 166.863844 185.5714 
L 110.537852 64.779921 
C 107.023613 66.418637 103.582561 68.209935 100.224518 70.148702 
C 96.866475 72.087469 93.59464 74.171858 90.41835 76.395921 
z
" clip-path="url(#pbce85fe7d0)" style="fill: #003366; opacity: 0.7; stroke: #000000; stroke-width: 0.5; stroke-linejoin: miter"/>
   </g>
   <g id="patch_37">
    <path d="M 166.863844 185.5714 
C 166.863844 185.5714 166.863844 185.5714 166.863844 185.5714 
C 166.863844 185.5714 166.863844 185.5714 166.863844 185.5714 
L 129.167109 44.885269 
C 125.074066 45.981997 121.030833 47.256823 117.048952 48.706109 
C 113.06707 50.155396 109.150332 51.777762 105.309917 53.568577 
z
" clip-path="url(#pbce85fe7d0)" style="fill: #003366; opacity: 0.7; stroke: #000000; stroke-width: 0.5; stroke-linejoin: miter"/>
   </g>
   <g id="patch_38">
    <path d="M 166.863844 185.5714 
C 166.863844 185.5714 166.863844 185.5714 166.863844 185.5714 
C 166.863844 185.5714 166.863844 185.5714 166.863844 185.5714 
L 154.441011 43.577766 
C 150.309928 43.939189 146.196585 44.480721 142.112723 45.200816 
C 138.02886 45.920911 133.978367 46.818884 129.972806 47.892171 
z
" clip-path="url(#pbce85fe7d0)" style="fill: #003366; opacity: 0.7; stroke: #000000; stroke-width: 0.5; stroke-linejoin: miter"/>
   </g>
   <g id="patch_39">
    <path d="M 166.863844 39.9224 
C 147.737392 39.9224 128.796922 43.689894 111.126385 51.00927 
C 93.455847 58.328646 77.398892 69.057561 63.874448 82.582004 
C 50.350005 96.106448 39.62109 112.163404 32.301714 129.833941 
C 24.982338 147.504478 21.214844 166.444949 21.214844 185.5714 
C 21.214844 204.697851 24.982338 223.638322 32.301714 241.308859 
C 39.62109 258.979396 50.350005 275.036352 63.874448 288.560796 
C 77.398892 302.085239 93.455847 312.814154 111.126385 320.13353 
C 128.796922 327.452906 147.737392 331.2204 166.863844 331.2204 
C 185.990295 331.2204 204.930766 327.452906 222.601303 320.13353 
C 240.27184 312.814154 256.328796 302.085239 269.853239 288.560796 
C 283.377683 275.036352 294.106598 258.979396 301.425974 241.308859 
C 308.74535 223.638322 312.512844 204.697851 312.512844 185.5714 
C 312.512844 166.444949 308.74535 147.504478 301.425974 129.833941 
C 294.106598 112.163404 283.377683 96.106448 269.853239 82.582004 
C 256.328796 69.057561 240.27184 58.328646 222.601303 51.00927 
C 204.930766 43.689894 185.990295 39.9224 166.863844 39.9224 
" style="fill: none; stroke: #000000; stroke-width: 0.8; stroke-linejoin: miter; stroke-linecap: square"/>
   </g>
   <g id="text_5">
    <!-- London -->
    <g transform="translate(137.537594 19.3575) scale(0.16 -0.16)">
     <defs>
      <path id="DejaVuSans-4c" d="M 628 4666 
L 1259 4666 
L 1259 531 
L 3531 531 
L 3531 0 
L 628 0 
L 628 4666 
z
" transform="scale(0.015625)"/>
      <path id="DejaVuSans-6f" d="M 1959 3097 
Q 1497 3097 1228 2736 
Q 959 2375 959 1747 
Q 959 1119 1226 758 
Q 1494 397 1959 397 
Q 2419 397 2687 759 
Q 2956 1122 2956 1747 
Q 2956 2369 2687 2733 
Q 2419 3097 1959 3097 
z
M 1959 3584 
Q 2709 3584 3137 3096 
Q 3566 2609 3566 1747 
Q 3566 888 3137 398 
Q 2709 -91 1959 -91 
Q 1206 -91 779 398 
Q 353 888 353 1747 
Q 353 2609 779 3096 
Q 1206 3584 1959 3584 
z
" transform="scale(0.015625)"/>
      <path id="DejaVuSans-6e" d="M 3513 2113 
L 3513 0 
L 2938 0 
L 2938 2094 
Q 2938 2591 2744 2837 
Q 2550 3084 2163 3084 
Q 1697 3084 1428 2787 
Q 1159 2491 1159 1978 
L 1159 0 
L 581 0 
L 581 3500 
L 1159 3500 
L 1159 2956 
Q 1366 3272 1645 3428 
Q 1925 3584 2291 3584 
Q 2894 3584 3203 3211 
Q 3513 2838 3513 2113 
z
" transform="scale(0.015625)"/>
      <path id="DejaVuSans-64" d="M 2906 2969 
L 2906 4863 
L 3481 4863 
L 3481 0 
L 2906 0 
L 2906 525 
Q 2725 213 2448 61 
Q 2172 -91 1784 -91 
Q 1150 -91 751 415 
Q 353 922 353 1747 
Q 353 2572 751 3078 
Q 1150 3584 1784 3584 
Q 2172 3584 2448 3432 
Q 2725 3281 2906 2969 
z
M 947 1747 
Q 947 1113 1208 752 
Q 1469 391 1925 391 
Q 2381 391 2643 752 
Q 2906 1113 2906 1747 
Q 2906 2381 2643 2742 
Q 2381 3103 1925 3103 
Q 1469 3103 1208 2742 
Q 947 2381 947 1747 
z
" transform="scale(0.015625)"/>
     </defs>
     <use xlink:href="#DejaVuSans-4c"/>
     <use xlink:href="#DejaVuSans-6f" x="53.962891"/>
     <use xlink:href="#DejaVuSans-6e" x="115.144531"/>
     <use xlink:href="#DejaVuSans-64" x="178.523438"/>
     <use xlink:href="#DejaVuSans-6f" x="242"/>
     <use xlink:href="#DejaVuSans-6e" x="303.181641"/>
    </g>
   </g>
  </g>
 </g>
 <defs>
  <clipPath id="pbce85fe7d0">
   <path d="M 312.512844 185.5714 
C 312.512844 166.444949 308.74535 147.504478 301.425974 129.833941 
C 294.106598 112.163404 283.377683 96.106448 269.853239 82.582004 
C 256.328796 69.057561 240.27184 58.328646 222.601303 51.00927 
C 204.930766 43.689894 185.990295 39.9224 166.863844 39.9224 
C 147.737392 39.9224 128.796922 43.689894 111.126385 51.00927 
C 93.455847 58.328646 77.398892 69.057561 63.874448 82.582004 
C 50.350005 96.106448 39.62109 112.163404 32.301714 129.833941 
C 24.982338 147.504478 21.214844 166.444949 21.214844 185.5714 
C 21.214844 204.697851 24.982338 223.638322 32.301714 241.308859 
C 39.62109 258.979396 50.350005 275.036352 63.874448 288.560796 
C 77.398892 302.085239 93.455847 312.814154 111.126385 320.13353 
C 128.796922 327.452906 147.737392 331.2204 166.863844 331.2204 
C 185.990295 331.2204 204.930766 327.452906 222.601303 320.13353 
C 240.27184 312.814154 256.328796 302.085239 269.853239 288.560796 
C 283.377683 275.036352 294.106598 258.979396 301.425974 241.308859 
C 308.74535 223.638322 312.512844 204.697851 312.512844 185.5714 
M 166.863844 185.5714 
C 166.863844 185.5714 166.863844 185.5714 166.863844 185.5714 
C 166.863844 185.5714 166.863844 185.5714 166.863844 185.5714 
C 166.863844 185.5714 166.863844 185.5714 166.863844 185.5714 
C 166.863844 185.5714 166.863844 185.5714 166.863844 185.5714 
C 166.863844 185.5714 166.863844 185.5714 166.863844 185.5714 
C 166.863844 185.5714 166.863844 185.5714 166.863844 185.5714 
C 166.863844 185.5714 166.863844 185.5714 166.863844 185.5714 
C 166.863844 185.5714 166.863844 185.5714 166.863844 185.5714 
C 166.863844 185.5714 166.863844 185.5714 166.863844 185.5714 
C 166.863844 185.5714 166.863844 185.5714 166.863844 185.5714 
C 166.863844 185.5714 166.863844 185.5714 166.863844 185.5714 
C 166.863844 185.5714 166.863844 185.5714 166.863844 185.5714 
C 166.863844 185.5714 166.863844 185.5714 166.863844 185.5714 
C 166.863844 185.5714 166.863844 185.5714 166.863844 185.5714 
C 166.863844 185.5714 166.863844 185.5714 166.863844 185.5714 
C 166.863844 185.5714 166.863844 185.5714 166.863844 185.5714 
z
"/>
  </clipPath>
 </defs>
</svg>
