<?xml version="1.0" encoding="utf-8" standalone="no"?>
<!DOCTYPE svg PUBLIC "-//W3C//DTD SVG 1.1//EN"
  "http://www.w3.org/Graphics/SVG/1.1/DTD/svg11.dtd">
<svg xmlns:xlink="http://www.w3.org/1999/xlink" width="332.996469pt" height="352.990862pt" viewBox="0 0 332.996469 352.990862" xmlns="http://www.w3.org/2000/svg" version="1.1">
 <metadata>
  <rdf:RDF xmlns:dc="http://purl.org/dc/elements/1.1/" xmlns:cc="http://creativecommons.org/ns#" xmlns:rdf="http://www.w3.org/1999/02/22-rdf-syntax-ns#">
   <cc:Work>
    <dc:type rdf:resource="http://purl.org/dc/dcmitype/StillImage"/>
    <dc:date>2022-12-13T14:46:19.413111</dc:date>
    <dc:format>image/svg+xml</dc:format>
    <dc:creator>
     <cc:Agent>
      <dc:title>Matplotlib v3.6.2, https://matplotlib.org/</dc:title>
     </cc:Agent>
    </dc:creator>
   </cc:Work>
  </rdf:RDF>
 </metadata>
 <defs>
  <style type="text/css">*{stroke-linejoin: round; stroke-linecap: butt}</style>
 </defs>
 <g id="figure_1">
  <g id="patch_1">
   <path d="M 0 352.990862 
L 332.996469 352.990862 
L 332.996469 0 
L 0 0 
z
" style="fill: #ffffff"/>
  </g>
  <g id="axes_1">
   <g id="patch_2">
    <path d="M 313.880844 186.1188 
C 313.880844 166.902527 310.095657 147.873107 302.741907 130.119585 
C 295.388158 112.366064 284.608858 96.233701 271.0209 82.645743 
C 257.432943 69.057786 241.30058 58.278486 223.547058 50.924736 
C 205.793537 43.570987 186.764117 39.7858 167.547844 39.7858 
C 148.33157 39.7858 129.302151 43.570987 111.548629 50.924736 
C 93.795107 58.278486 77.662744 69.057786 64.074787 82.645743 
C 50.48683 96.233701 39.70753 112.366064 32.35378 130.119585 
C 25.000031 147.873107 21.214844 166.902527 21.214844 186.1188 
C 21.214844 205.335073 25.000031 224.364493 32.35378 242.118015 
C 39.70753 259.871536 50.48683 276.003899 64.074787 289.591857 
C 77.662744 303.179814 93.795107 313.959114 111.548629 321.312864 
C 129.302151 328.666613 148.33157 332.4518 167.547844 332.4518 
C 186.764117 332.4518 205.793537 328.666613 223.547058 321.312864 
C 241.30058 313.959114 257.432943 303.179814 271.0209 289.591857 
C 284.608858 276.003899 295.388158 259.871536 302.741907 242.118015 
C 310.095657 224.364493 313.880844 205.335073 313.880844 186.1188 
M 167.547844 186.1188 
C 167.547844 186.1188 167.547844 186.1188 167.547844 186.1188 
C 167.547844 186.1188 167.547844 186.1188 167.547844 186.1188 
C 167.547844 186.1188 167.547844 186.1188 167.547844 186.1188 
C 167.547844 186.1188 167.547844 186.1188 167.547844 186.1188 
C 167.547844 186.1188 167.547844 186.1188 167.547844 186.1188 
C 167.547844 186.1188 167.547844 186.1188 167.547844 186.1188 
C 167.547844 186.1188 167.547844 186.1188 167.547844 186.1188 
C 167.547844 186.1188 167.547844 186.1188 167.547844 186.1188 
C 167.547844 186.1188 167.547844 186.1188 167.547844 186.1188 
C 167.547844 186.1188 167.547844 186.1188 167.547844 186.1188 
C 167.547844 186.1188 167.547844 186.1188 167.547844 186.1188 
C 167.547844 186.1188 167.547844 186.1188 167.547844 186.1188 
C 167.547844 186.1188 167.547844 186.1188 167.547844 186.1188 
C 167.547844 186.1188 167.547844 186.1188 167.547844 186.1188 
C 167.547844 186.1188 167.547844 186.1188 167.547844 186.1188 
C 167.547844 186.1188 167.547844 186.1188 167.547844 186.1188 
M 313.880844 186.1188 
z
" style="fill: #ffffff"/>
   </g>
   <g id="matplotlib.axis_1">
    <g id="xtick_1">
     <g id="line2d_1">
      <path d="M 167.547844 186.1188 
L 167.547844 39.7858 
" clip-path="url(#p7cab9adef0)" style="fill: none; stroke: #b0b0b0; stroke-width: 0.8; stroke-linecap: square"/>
     </g>
     <g id="text_1">
      <!-- N -->
      <g transform="translate(163.363469 34.045175) scale(0.1 -0.1)">
       <defs>
        <path id="DejaVuSans-Bold-4e" d="M 588 4666 
L 1931 4666 
L 3628 1466 
L 3628 4666 
L 4769 4666 
L 4769 0 
L 3425 0 
L 1728 3200 
L 1728 0 
L 588 0 
L 588 4666 
z
" transform="scale(0.015625)"/>
       </defs>
       <use xlink:href="#DejaVuSans-Bold-4e"/>
      </g>
     </g>
    </g>
    <g id="xtick_2">
     <g id="line2d_2">
      <path d="M 167.547844 186.1188 
L 271.0209 82.645743 
" clip-path="url(#p7cab9adef0)" style="fill: none; stroke: #b0b0b0; stroke-width: 0.8; stroke-linecap: square"/>
     </g>
    </g>
    <g id="xtick_3">
     <g id="line2d_3">
      <path d="M 167.547844 186.1188 
L 313.880844 186.1188 
" clip-path="url(#p7cab9adef0)" style="fill: none; stroke: #b0b0b0; stroke-width: 0.8; stroke-linecap: square"/>
     </g>
     <g id="text_2">
      <!-- E -->
      <g transform="translate(318.965219 188.878175) scale(0.1 -0.1)">
       <defs>
        <path id="DejaVuSans-Bold-45" d="M 588 4666 
L 3834 4666 
L 3834 3756 
L 1791 3756 
L 1791 2888 
L 3713 2888 
L 3713 1978 
L 1791 1978 
L 1791 909 
L 3903 909 
L 3903 0 
L 588 0 
L 588 4666 
z
" transform="scale(0.015625)"/>
       </defs>
       <use xlink:href="#DejaVuSans-Bold-45"/>
      </g>
     </g>
    </g>
    <g id="xtick_4">
     <g id="line2d_4">
      <path d="M 167.547844 186.1188 
L 271.0209 289.591857 
" clip-path="url(#p7cab9adef0)" style="fill: none; stroke: #b0b0b0; stroke-width: 0.8; stroke-linecap: square"/>
     </g>
    </g>
    <g id="xtick_5">
     <g id="line2d_5">
      <path d="M 167.547844 186.1188 
L 167.547844 332.4518 
" clip-path="url(#p7cab9adef0)" style="fill: none; stroke: #b0b0b0; stroke-width: 0.8; stroke-linecap: square"/>
     </g>
     <g id="text_3">
      <!-- S -->
      <g transform="translate(163.947062 343.711175) scale(0.1 -0.1)">
       <defs>
        <path id="DejaVuSans-Bold-53" d="M 3834 4519 
L 3834 3531 
Q 3450 3703 3084 3790 
Q 2719 3878 2394 3878 
Q 1963 3878 1756 3759 
Q 1550 3641 1550 3391 
Q 1550 3203 1689 3098 
Q 1828 2994 2194 2919 
L 2706 2816 
Q 3484 2659 3812 2340 
Q 4141 2022 4141 1434 
Q 4141 663 3683 286 
Q 3225 -91 2284 -91 
Q 1841 -91 1394 -6 
Q 947 78 500 244 
L 500 1259 
Q 947 1022 1364 901 
Q 1781 781 2169 781 
Q 2563 781 2772 912 
Q 2981 1044 2981 1288 
Q 2981 1506 2839 1625 
Q 2697 1744 2272 1838 
L 1806 1941 
Q 1106 2091 782 2419 
Q 459 2747 459 3303 
Q 459 4000 909 4375 
Q 1359 4750 2203 4750 
Q 2588 4750 2994 4692 
Q 3400 4634 3834 4519 
z
" transform="scale(0.015625)"/>
       </defs>
       <use xlink:href="#DejaVuSans-Bold-53"/>
      </g>
     </g>
    </g>
    <g id="xtick_6">
     <g id="line2d_6">
      <path d="M 167.547844 186.1188 
L 64.074787 289.591857 
" clip-path="url(#p7cab9adef0)" style="fill: none; stroke: #b0b0b0; stroke-width: 0.8; stroke-linecap: square"/>
     </g>
    </g>
    <g id="xtick_7">
     <g id="line2d_7">
      <path d="M 167.547844 186.1188 
L 21.214844 186.1188 
" clip-path="url(#p7cab9adef0)" style="fill: none; stroke: #b0b0b0; stroke-width: 0.8; stroke-linecap: square"/>
     </g>
     <g id="text_4">
      <!-- W -->
      <g transform="translate(7.2 188.878175) scale(0.1 -0.1)">
       <defs>
        <path id="DejaVuSans-Bold-57" d="M 191 4666 
L 1344 4666 
L 2150 1275 
L 2950 4666 
L 4109 4666 
L 4909 1275 
L 5716 4666 
L 6859 4666 
L 5759 0 
L 4372 0 
L 3525 3547 
L 2688 0 
L 1300 0 
L 191 4666 
z
" transform="scale(0.015625)"/>
       </defs>
       <use xlink:href="#DejaVuSans-Bold-57"/>
      </g>
     </g>
    </g>
    <g id="xtick_8">
     <g id="line2d_8">
      <path d="M 167.547844 186.1188 
L 64.074787 82.645743 
" clip-path="url(#p7cab9adef0)" style="fill: none; stroke: #b0b0b0; stroke-width: 0.8; stroke-linecap: square"/>
     </g>
    </g>
   </g>
   <g id="matplotlib.axis_2">
    <g id="ytick_1">
     <g id="line2d_9">
      <path d="M 167.547844 186.1188 
C 167.547844 186.1188 167.547844 186.1188 167.547844 186.1188 
C 167.547844 186.1188 167.547844 186.1188 167.547844 186.1188 
C 167.547844 186.1188 167.547844 186.1188 167.547844 186.1188 
C 167.547844 186.1188 167.547844 186.1188 167.547844 186.1188 
C 167.547844 186.1188 167.547844 186.1188 167.547844 186.1188 
C 167.547844 186.1188 167.547844 186.1188 167.547844 186.1188 
C 167.547844 186.1188 167.547844 186.1188 167.547844 186.1188 
C 167.547844 186.1188 167.547844 186.1188 167.547844 186.1188 
C 167.547844 186.1188 167.547844 186.1188 167.547844 186.1188 
C 167.547844 186.1188 167.547844 186.1188 167.547844 186.1188 
C 167.547844 186.1188 167.547844 186.1188 167.547844 186.1188 
C 167.547844 186.1188 167.547844 186.1188 167.547844 186.1188 
C 167.547844 186.1188 167.547844 186.1188 167.547844 186.1188 
C 167.547844 186.1188 167.547844 186.1188 167.547844 186.1188 
C 167.547844 186.1188 167.547844 186.1188 167.547844 186.1188 
C 167.547844 186.1188 167.547844 186.1188 167.547844 186.1188 
" clip-path="url(#p7cab9adef0)" style="fill: none; stroke: #b0b0b0; stroke-width: 0.8; stroke-linecap: square"/>
     </g>
    </g>
    <g id="ytick_2">
     <g id="line2d_10">
      <path d="M 167.547844 149.53555 
C 172.351912 149.53555 177.109267 150.481847 181.547647 152.320284 
C 185.986028 154.158721 190.019119 156.853547 193.416108 160.250536 
C 196.813097 163.647525 199.507922 167.680616 201.34636 172.118996 
C 203.184797 176.557377 204.131094 181.314732 204.131094 186.1188 
C 204.131094 190.922868 203.184797 195.680223 201.34636 200.118604 
C 199.507922 204.556984 196.813097 208.590075 193.416108 211.987064 
C 190.019119 215.384053 185.986028 218.078879 181.547647 219.917316 
C 177.109267 221.755753 172.351912 222.70205 167.547844 222.70205 
C 162.743775 222.70205 157.986421 221.755753 153.54804 219.917316 
C 149.10966 218.078879 145.076569 215.384053 141.67958 211.987064 
C 138.28259 208.590075 135.587765 204.556984 133.749328 200.118604 
C 131.91089 195.680223 130.964594 190.922868 130.964594 186.1188 
C 130.964594 181.314732 131.91089 176.557377 133.749328 172.118996 
C 135.587765 167.680616 138.28259 163.647525 141.67958 160.250536 
C 145.076569 156.853547 149.10966 154.158721 153.54804 152.320284 
C 157.986421 150.481847 162.743775 149.53555 167.547844 149.53555 
" clip-path="url(#p7cab9adef0)" style="fill: none; stroke: #b0b0b0; stroke-width: 0.8; stroke-linecap: square"/>
     </g>
    </g>
    <g id="ytick_3">
     <g id="line2d_11">
      <path d="M 167.547844 112.9523 
C 177.15598 112.9523 186.67069 114.844893 195.547451 118.521768 
C 204.424212 122.198643 212.490393 127.588293 219.284372 134.382272 
C 226.078351 141.17625 231.468001 149.242432 235.144876 158.119193 
C 238.82175 166.995954 240.714344 176.510663 240.714344 186.1188 
C 240.714344 195.726937 238.82175 205.241646 235.144876 214.118407 
C 231.468001 222.995168 226.078351 231.06135 219.284372 237.855328 
C 212.490393 244.649307 204.424212 250.038957 195.547451 253.715832 
C 186.67069 257.392707 177.15598 259.2853 167.547844 259.2853 
C 157.939707 259.2853 148.424997 257.392707 139.548236 253.715832 
C 130.671476 250.038957 122.605294 244.649307 115.811315 237.855328 
C 109.017337 231.06135 103.627687 222.995168 99.950812 214.118407 
C 96.273937 205.241646 94.381344 195.726937 94.381344 186.1188 
C 94.381344 176.510663 96.273937 166.995954 99.950812 158.119193 
C 103.627687 149.242432 109.017337 141.17625 115.811315 134.382272 
C 122.605294 127.588293 130.671476 122.198643 139.548236 118.521768 
C 148.424997 114.844893 157.939707 112.9523 167.547844 112.9523 
" clip-path="url(#p7cab9adef0)" style="fill: none; stroke: #b0b0b0; stroke-width: 0.8; stroke-linecap: square"/>
     </g>
    </g>
    <g id="ytick_4">
     <g id="line2d_12">
      <path d="M 167.547844 76.36905 
C 181.960049 76.36905 196.232113 79.20794 209.547255 84.723252 
C 222.862396 90.238564 234.961668 98.32304 245.152636 108.514008 
C 255.343604 118.704976 263.428079 130.804248 268.943391 144.119389 
C 274.458704 157.43453 277.297594 171.706595 277.297594 186.1188 
C 277.297594 200.531005 274.458704 214.80307 268.943391 228.118211 
C 263.428079 241.433352 255.343604 253.532624 245.152636 263.723592 
C 234.961668 273.91456 222.862396 281.999036 209.547255 287.514348 
C 196.232113 293.02966 181.960049 295.86855 167.547844 295.86855 
C 153.135639 295.86855 138.863574 293.02966 125.548433 287.514348 
C 112.233291 281.999036 100.134019 273.91456 89.943051 263.723592 
C 79.752083 253.532624 71.667608 241.433352 66.152296 228.118211 
C 60.636984 214.80307 57.798094 200.531005 57.798094 186.1188 
C 57.798094 171.706595 60.636984 157.43453 66.152296 144.119389 
C 71.667608 130.804248 79.752083 118.704976 89.943051 108.514008 
C 100.134019 98.32304 112.233291 90.238564 125.548433 84.723252 
C 138.863574 79.20794 153.135639 76.36905 167.547844 76.36905 
" clip-path="url(#p7cab9adef0)" style="fill: none; stroke: #b0b0b0; stroke-width: 0.8; stroke-linecap: square"/>
     </g>
    </g>
    <g id="ytick_5">
     <g id="line2d_13">
      <path d="M 167.547844 39.7858 
C 186.764117 39.7858 205.793537 43.570987 223.547058 50.924736 
C 241.30058 58.278486 257.432943 69.057786 271.0209 82.645743 
C 284.608858 96.233701 295.388158 112.366064 302.741907 130.119585 
C 310.095657 147.873107 313.880844 166.902527 313.880844 186.1188 
C 313.880844 205.335073 310.095657 224.364493 302.741907 242.118015 
C 295.388158 259.871536 284.608858 276.003899 271.0209 289.591857 
C 257.432943 303.179814 241.30058 313.959114 223.547058 321.312864 
C 205.793537 328.666613 186.764117 332.4518 167.547844 332.4518 
C 148.33157 332.4518 129.302151 328.666613 111.548629 321.312864 
C 93.795107 313.959114 77.662744 303.179814 64.074787 289.591857 
C 50.48683 276.003899 39.70753 259.871536 32.35378 242.118015 
C 25.000031 224.364493 21.214844 205.335073 21.214844 186.1188 
C 21.214844 166.902527 25.000031 147.873107 32.35378 130.119585 
C 39.70753 112.366064 50.48683 96.233701 64.074787 82.645743 
C 77.662744 69.057786 93.795107 58.278486 111.548629 50.924736 
C 129.302151 43.570987 148.33157 39.7858 167.547844 39.7858 
" clip-path="url(#p7cab9adef0)" style="fill: none; stroke: #b0b0b0; stroke-width: 0.8; stroke-linecap: square"/>
     </g>
    </g>
   </g>
   <g id="patch_3">
    <path d="M 167.547844 186.1188 
C 167.547844 186.1188 167.547844 186.1188 167.547844 186.1188 
C 167.547844 186.1188 167.547844 186.1188 167.547844 186.1188 
L 180.11675 42.455545 
C 175.937092 42.089872 171.743467 41.906775 167.547844 41.906775 
C 163.352221 41.906775 159.158595 42.089872 154.978938 42.455545 
z
" clip-path="url(#p7cab9adef0)" style="fill: #003366; opacity: 0.7; stroke: #000000; stroke-width: 0.5; stroke-linejoin: miter"/>
   </g>
   <g id="patch_4">
    <path d="M 167.547844 186.1188 
C 167.547844 186.1188 167.547844 186.1188 167.547844 186.1188 
C 167.547844 186.1188 167.547844 186.1188 167.547844 186.1188 
L 200.96137 61.417823 
C 197.33339 60.445709 193.664714 59.632383 189.965815 58.980168 
C 186.266915 58.327952 182.541314 57.837467 178.799646 57.510114 
z
" clip-path="url(#p7cab9adef0)" style="fill: #003366; opacity: 0.7; stroke: #000000; stroke-width: 0.5; stroke-linejoin: miter"/>
   </g>
   <g id="patch_5">
    <path d="M 167.547844 186.1188 
C 167.547844 186.1188 167.547844 186.1188 167.547844 186.1188 
C 167.547844 186.1188 167.547844 186.1188 167.547844 186.1188 
L 217.22002 79.596475 
C 214.120919 78.151341 210.960229 76.84214 207.74697 75.672609 
C 204.533711 74.503079 201.270943 73.474332 197.96798 72.589306 
z
" clip-path="url(#p7cab9adef0)" style="fill: #003366; opacity: 0.7; stroke: #000000; stroke-width: 0.5; stroke-linejoin: miter"/>
   </g>
   <g id="patch_6">
    <path d="M 167.547844 186.1188 
C 167.547844 186.1188 167.547844 186.1188 167.547844 186.1188 
C 167.547844 186.1188 167.547844 186.1188 167.547844 186.1188 
L 233.28136 92.24161 
C 230.55015 90.329196 227.736782 88.536884 224.849288 86.869788 
C 221.961793 85.202692 219.002921 83.662401 215.981117 82.25331 
z
" clip-path="url(#p7cab9adef0)" style="fill: #003366; opacity: 0.7; stroke: #000000; stroke-width: 0.5; stroke-linejoin: miter"/>
   </g>
   <g id="patch_7">
    <path d="M 167.547844 186.1188 
C 167.547844 186.1188 167.547844 186.1188 167.547844 186.1188 
C 167.547844 186.1188 167.547844 186.1188 167.547844 186.1188 
L 248.566826 105.099818 
C 246.209705 102.742697 243.750842 100.489564 241.197255 98.34685 
C 238.643667 96.204136 235.997787 94.17388 233.267167 92.26188 
z
" clip-path="url(#p7cab9adef0)" style="fill: #003366; opacity: 0.7; stroke: #000000; stroke-width: 0.5; stroke-linejoin: miter"/>
   </g>
   <g id="patch_8">
    <path d="M 167.547844 186.1188 
C 167.547844 186.1188 167.547844 186.1188 167.547844 186.1188 
C 167.547844 186.1188 167.547844 186.1188 167.547844 186.1188 
L 269.171713 114.961001 
C 267.101488 112.004414 264.903223 109.139579 262.583192 106.374674 
C 260.263162 103.609769 257.823575 100.947428 255.271396 98.395248 
z
" clip-path="url(#p7cab9adef0)" style="fill: #003366; opacity: 0.7; stroke: #000000; stroke-width: 0.5; stroke-linejoin: miter"/>
   </g>
   <g id="patch_9">
    <path d="M 167.547844 186.1188 
C 167.547844 186.1188 167.547844 186.1188 167.547844 186.1188 
C 167.547844 186.1188 167.547844 186.1188 167.547844 186.1188 
L 288.941881 129.511831 
C 287.29499 125.980061 285.494756 122.521844 283.546317 119.14705 
C 281.597879 115.772256 279.503092 112.484099 277.267936 109.291965 
z
" clip-path="url(#p7cab9adef0)" style="fill: #003366; opacity: 0.7; stroke: #000000; stroke-width: 0.5; stroke-linejoin: miter"/>
   </g>
   <g id="patch_10">
    <path d="M 167.547844 186.1188 
C 167.547844 186.1188 167.547844 186.1188 167.547844 186.1188 
C 167.547844 186.1188 167.547844 186.1188 167.547844 186.1188 
L 308.212992 148.427687 
C 307.116428 144.335255 305.841792 140.292625 304.392722 136.311338 
C 302.943652 132.33005 301.321527 128.413896 299.530979 124.574053 
z
" clip-path="url(#p7cab9adef0)" style="fill: #003366; opacity: 0.7; stroke: #000000; stroke-width: 0.5; stroke-linejoin: miter"/>
   </g>
   <g id="patch_11">
    <path d="M 167.547844 186.1188 
C 167.547844 186.1188 167.547844 186.1188 167.547844 186.1188 
C 167.547844 186.1188 167.547844 186.1188 167.547844 186.1188 
L 310.464859 173.615181 
C 310.101086 169.457234 309.556033 165.317142 308.831255 161.206723 
C 308.106477 157.096303 307.202665 153.01947 306.122398 148.98786 
z
" clip-path="url(#p7cab9adef0)" style="fill: #003366; opacity: 0.7; stroke: #000000; stroke-width: 0.5; stroke-linejoin: miter"/>
   </g>
   <g id="patch_12">
    <path d="M 167.547844 186.1188 
C 167.547844 186.1188 167.547844 186.1188 167.547844 186.1188 
C 167.547844 186.1188 167.547844 186.1188 167.547844 186.1188 
L 310.799184 198.651668 
C 311.163808 194.483995 311.346381 190.302393 311.346381 186.1188 
C 311.346381 181.935207 311.163808 177.753605 310.799184 173.585932 
z
" clip-path="url(#p7cab9adef0)" style="fill: #003366; opacity: 0.7; stroke: #000000; stroke-width: 0.5; stroke-linejoin: miter"/>
   </g>
   <g id="patch_13">
    <path d="M 167.547844 186.1188 
C 167.547844 186.1188 167.547844 186.1188 167.547844 186.1188 
C 167.547844 186.1188 167.547844 186.1188 167.547844 186.1188 
L 292.241748 219.530431 
C 293.213808 215.902657 294.027087 212.23419 294.679266 208.5355 
C 295.331445 204.83681 295.821902 201.11142 296.149237 197.369964 
z
" clip-path="url(#p7cab9adef0)" style="fill: #003366; opacity: 0.7; stroke: #000000; stroke-width: 0.5; stroke-linejoin: miter"/>
   </g>
   <g id="patch_14">
    <path d="M 167.547844 186.1188 
C 167.547844 186.1188 167.547844 186.1188 167.547844 186.1188 
C 167.547844 186.1188 167.547844 186.1188 167.547844 186.1188 
L 274.803737 236.133044 
C 276.258823 233.012602 277.57704 229.830145 278.754625 226.594758 
C 279.932209 223.359371 280.968041 220.074134 281.859162 216.748425 
z
" clip-path="url(#p7cab9adef0)" style="fill: #003366; opacity: 0.7; stroke: #000000; stroke-width: 0.5; stroke-linejoin: miter"/>
   </g>
   <g id="patch_15">
    <path d="M 167.547844 186.1188 
C 167.547844 186.1188 167.547844 186.1188 167.547844 186.1188 
C 167.547844 186.1188 167.547844 186.1188 167.547844 186.1188 
L 261.667924 252.02239 
C 263.585286 249.284114 265.382236 246.463467 267.053645 243.568501 
C 268.725055 240.673536 270.269331 237.707008 271.682067 234.677386 
z
" clip-path="url(#p7cab9adef0)" style="fill: #003366; opacity: 0.7; stroke: #000000; stroke-width: 0.5; stroke-linejoin: miter"/>
   </g>
   <g id="patch_16">
    <path d="M 167.547844 186.1188 
C 167.547844 186.1188 167.547844 186.1188 167.547844 186.1188 
C 167.547844 186.1188 167.547844 186.1188 167.547844 186.1188 
L 248.344872 266.915828 
C 250.695535 264.565165 252.942495 262.113038 255.07934 259.566446 
C 257.216184 257.019854 259.240877 254.381223 261.14764 251.658083 
z
" clip-path="url(#p7cab9adef0)" style="fill: #003366; opacity: 0.7; stroke: #000000; stroke-width: 0.5; stroke-linejoin: miter"/>
   </g>
   <g id="patch_17">
    <path d="M 167.547844 186.1188 
C 167.547844 186.1188 167.547844 186.1188 167.547844 186.1188 
C 167.547844 186.1188 167.547844 186.1188 167.547844 186.1188 
L 239.015225 288.184798 
C 241.984676 286.105566 244.861974 283.897738 247.638908 281.567613 
C 250.415842 279.237489 253.089766 276.787289 255.653049 274.224006 
z
" clip-path="url(#p7cab9adef0)" style="fill: #003366; opacity: 0.7; stroke: #000000; stroke-width: 0.5; stroke-linejoin: miter"/>
   </g>
   <g id="patch_18">
    <path d="M 167.547844 186.1188 
C 167.547844 186.1188 167.547844 186.1188 167.547844 186.1188 
C 167.547844 186.1188 167.547844 186.1188 167.547844 186.1188 
L 224.142883 307.487253 
C 227.673908 305.840709 231.131397 304.040855 234.50548 302.092827 
C 237.879562 300.144799 241.167026 298.050454 244.358488 295.815768 
z
" clip-path="url(#p7cab9adef0)" style="fill: #003366; opacity: 0.7; stroke: #000000; stroke-width: 0.5; stroke-linejoin: miter"/>
   </g>
   <g id="patch_19">
    <path d="M 167.547844 186.1188 
C 167.547844 186.1188 167.547844 186.1188 167.547844 186.1188 
C 167.547844 186.1188 167.547844 186.1188 167.547844 186.1188 
L 205.421611 327.465624 
C 209.533876 326.363746 213.596096 325.082933 217.596677 323.62684 
C 221.597259 322.170748 225.532391 320.540763 229.390842 318.741537 
z
" clip-path="url(#p7cab9adef0)" style="fill: #003366; opacity: 0.7; stroke: #000000; stroke-width: 0.5; stroke-linejoin: miter"/>
   </g>
   <g id="patch_20">
    <path d="M 167.547844 186.1188 
C 167.547844 186.1188 167.547844 186.1188 167.547844 186.1188 
C 167.547844 186.1188 167.547844 186.1188 167.547844 186.1188 
L 180.0348 328.84536 
C 184.187206 328.482072 188.32178 327.937745 192.426722 327.213932 
C 196.531665 326.49012 200.603065 325.587513 204.629302 324.508686 
z
" clip-path="url(#p7cab9adef0)" style="fill: #003366; opacity: 0.7; stroke: #000000; stroke-width: 0.5; stroke-linejoin: miter"/>
   </g>
   <g id="patch_21">
    <path d="M 167.547844 186.1188 
C 167.547844 186.1188 167.547844 186.1188 167.547844 186.1188 
C 167.547844 186.1188 167.547844 186.1188 167.547844 186.1188 
L 154.978938 329.782055 
C 159.158595 330.147728 163.352221 330.330825 167.547844 330.330825 
C 171.743467 330.330825 175.937092 330.147728 180.11675 329.782055 
z
" clip-path="url(#p7cab9adef0)" style="fill: #003366; opacity: 0.7; stroke: #000000; stroke-width: 0.5; stroke-linejoin: miter"/>
   </g>
   <g id="patch_22">
    <path d="M 167.547844 186.1188 
C 167.547844 186.1188 167.547844 186.1188 167.547844 186.1188 
C 167.547844 186.1188 167.547844 186.1188 167.547844 186.1188 
L 134.134318 310.819777 
C 137.762298 311.791891 141.430973 312.605217 145.129873 313.257432 
C 148.828772 313.909648 152.554373 314.400133 156.296042 314.727486 
z
" clip-path="url(#p7cab9adef0)" style="fill: #003366; opacity: 0.7; stroke: #000000; stroke-width: 0.5; stroke-linejoin: miter"/>
   </g>
   <g id="patch_23">
    <path d="M 167.547844 186.1188 
C 167.547844 186.1188 167.547844 186.1188 167.547844 186.1188 
C 167.547844 186.1188 167.547844 186.1188 167.547844 186.1188 
L 117.875668 292.641125 
C 120.974768 294.086259 124.135459 295.39546 127.348718 296.564991 
C 130.561977 297.734521 133.824744 298.763268 137.127707 299.648294 
z
" clip-path="url(#p7cab9adef0)" style="fill: #003366; opacity: 0.7; stroke: #000000; stroke-width: 0.5; stroke-linejoin: miter"/>
   </g>
   <g id="patch_24">
    <path d="M 167.547844 186.1188 
C 167.547844 186.1188 167.547844 186.1188 167.547844 186.1188 
C 167.547844 186.1188 167.547844 186.1188 167.547844 186.1188 
L 101.814328 279.99599 
C 104.545538 281.908404 107.358905 283.700716 110.2464 285.367812 
C 113.133895 287.034908 116.092767 288.575199 119.114571 289.98429 
z
" clip-path="url(#p7cab9adef0)" style="fill: #003366; opacity: 0.7; stroke: #000000; stroke-width: 0.5; stroke-linejoin: miter"/>
   </g>
   <g id="patch_25">
    <path d="M 167.547844 186.1188 
C 167.547844 186.1188 167.547844 186.1188 167.547844 186.1188 
C 167.547844 186.1188 167.547844 186.1188 167.547844 186.1188 
L 86.528862 267.137782 
C 88.885982 269.494903 91.344845 271.748036 93.898433 273.89075 
C 96.45202 276.033464 99.0979 278.06372 101.828521 279.97572 
z
" clip-path="url(#p7cab9adef0)" style="fill: #003366; opacity: 0.7; stroke: #000000; stroke-width: 0.5; stroke-linejoin: miter"/>
   </g>
   <g id="patch_26">
    <path d="M 167.547844 186.1188 
C 167.547844 186.1188 167.547844 186.1188 167.547844 186.1188 
C 167.547844 186.1188 167.547844 186.1188 167.547844 186.1188 
L 65.923975 257.276599 
C 67.9942 260.233186 70.192465 263.098021 72.512495 265.862926 
C 74.832526 268.627831 77.272112 271.290172 79.824292 273.842352 
z
" clip-path="url(#p7cab9adef0)" style="fill: #003366; opacity: 0.7; stroke: #000000; stroke-width: 0.5; stroke-linejoin: miter"/>
   </g>
   <g id="patch_27">
    <path d="M 167.547844 186.1188 
C 167.547844 186.1188 167.547844 186.1188 167.547844 186.1188 
C 167.547844 186.1188 167.547844 186.1188 167.547844 186.1188 
L 46.153807 242.725769 
C 47.800698 246.257539 49.600932 249.715756 51.54937 253.09055 
C 53.497808 256.465344 55.592595 259.753501 57.827752 262.945635 
z
" clip-path="url(#p7cab9adef0)" style="fill: #003366; opacity: 0.7; stroke: #000000; stroke-width: 0.5; stroke-linejoin: miter"/>
   </g>
   <g id="patch_28">
    <path d="M 167.547844 186.1188 
C 167.547844 186.1188 167.547844 186.1188 167.547844 186.1188 
C 167.547844 186.1188 167.547844 186.1188 167.547844 186.1188 
L 26.882696 223.809913 
C 27.979259 227.902345 29.253896 231.944975 30.702966 235.926262 
C 32.152036 239.90755 33.77416 243.823704 35.564708 247.663547 
z
" clip-path="url(#p7cab9adef0)" style="fill: #003366; opacity: 0.7; stroke: #000000; stroke-width: 0.5; stroke-linejoin: miter"/>
   </g>
   <g id="patch_29">
    <path d="M 167.547844 186.1188 
C 167.547844 186.1188 167.547844 186.1188 167.547844 186.1188 
C 167.547844 186.1188 167.547844 186.1188 167.547844 186.1188 
L 24.630828 198.622419 
C 24.994602 202.780366 25.539655 206.920458 26.264433 211.030877 
C 26.989211 215.141297 27.893023 219.21813 28.97329 223.24974 
z
" clip-path="url(#p7cab9adef0)" style="fill: #003366; opacity: 0.7; stroke: #000000; stroke-width: 0.5; stroke-linejoin: miter"/>
   </g>
   <g id="patch_30">
    <path d="M 167.547844 186.1188 
C 167.547844 186.1188 167.547844 186.1188 167.547844 186.1188 
C 167.547844 186.1188 167.547844 186.1188 167.547844 186.1188 
L 24.296504 173.585932 
C 23.93188 177.753605 23.749307 181.935207 23.749307 186.1188 
C 23.749307 190.302393 23.93188 194.483995 24.296504 198.651668 
z
" clip-path="url(#p7cab9adef0)" style="fill: #003366; opacity: 0.7; stroke: #000000; stroke-width: 0.5; stroke-linejoin: miter"/>
   </g>
   <g id="patch_31">
    <path d="M 167.547844 186.1188 
C 167.547844 186.1188 167.547844 186.1188 167.547844 186.1188 
C 167.547844 186.1188 167.547844 186.1188 167.547844 186.1188 
L 42.853939 152.707169 
C 41.88188 156.334943 41.0686 160.00341 40.416421 163.7021 
C 39.764243 167.40079 39.273786 171.12618 38.946451 174.867636 
z
" clip-path="url(#p7cab9adef0)" style="fill: #003366; opacity: 0.7; stroke: #000000; stroke-width: 0.5; stroke-linejoin: miter"/>
   </g>
   <g id="patch_32">
    <path d="M 167.547844 186.1188 
C 167.547844 186.1188 167.547844 186.1188 167.547844 186.1188 
C 167.547844 186.1188 167.547844 186.1188 167.547844 186.1188 
L 60.29195 136.104556 
C 58.836864 139.224998 57.518647 142.407455 56.341063 145.642842 
C 55.163478 148.878229 54.127647 152.163466 53.236526 155.489175 
z
" clip-path="url(#p7cab9adef0)" style="fill: #003366; opacity: 0.7; stroke: #000000; stroke-width: 0.5; stroke-linejoin: miter"/>
   </g>
   <g id="patch_33">
    <path d="M 167.547844 186.1188 
C 167.547844 186.1188 167.547844 186.1188 167.547844 186.1188 
C 167.547844 186.1188 167.547844 186.1188 167.547844 186.1188 
L 73.427763 120.21521 
C 71.510401 122.953486 69.713451 125.774133 68.042042 128.669099 
C 66.370633 131.564064 64.826356 134.530592 63.41362 137.560214 
z
" clip-path="url(#p7cab9adef0)" style="fill: #003366; opacity: 0.7; stroke: #000000; stroke-width: 0.5; stroke-linejoin: miter"/>
   </g>
   <g id="patch_34">
    <path d="M 167.547844 186.1188 
C 167.547844 186.1188 167.547844 186.1188 167.547844 186.1188 
C 167.547844 186.1188 167.547844 186.1188 167.547844 186.1188 
L 86.750816 105.321772 
C 84.400153 107.672435 82.153192 110.124562 80.016348 112.671154 
C 77.879504 115.217746 75.85481 117.856377 73.948047 120.579517 
z
" clip-path="url(#p7cab9adef0)" style="fill: #003366; opacity: 0.7; stroke: #000000; stroke-width: 0.5; stroke-linejoin: miter"/>
   </g>
   <g id="patch_35">
    <path d="M 167.547844 186.1188 
C 167.547844 186.1188 167.547844 186.1188 167.547844 186.1188 
C 167.547844 186.1188 167.547844 186.1188 167.547844 186.1188 
L 96.080462 84.052802 
C 93.111012 86.132034 90.233713 88.339862 87.45678 90.669987 
C 84.679846 93.000111 82.005921 95.450311 79.442638 98.013594 
z
" clip-path="url(#p7cab9adef0)" style="fill: #003366; opacity: 0.7; stroke: #000000; stroke-width: 0.5; stroke-linejoin: miter"/>
   </g>
   <g id="patch_36">
    <path d="M 167.547844 186.1188 
C 167.547844 186.1188 167.547844 186.1188 167.547844 186.1188 
C 167.547844 186.1188 167.547844 186.1188 167.547844 186.1188 
L 110.952804 64.750347 
C 107.421779 66.396891 103.964291 68.196745 100.590208 70.144773 
C 97.216125 72.092801 93.928661 74.187146 90.7372 76.421832 
z
" clip-path="url(#p7cab9adef0)" style="fill: #003366; opacity: 0.7; stroke: #000000; stroke-width: 0.5; stroke-linejoin: miter"/>
   </g>
   <g id="patch_37">
    <path d="M 167.547844 186.1188 
C 167.547844 186.1188 167.547844 186.1188 167.547844 186.1188 
C 167.547844 186.1188 167.547844 186.1188 167.547844 186.1188 
L 129.674076 44.771976 
C 125.561812 45.873854 121.499591 47.154667 117.49901 48.61076 
C 113.498429 50.066852 109.563297 51.696837 105.704846 53.496063 
z
" clip-path="url(#p7cab9adef0)" style="fill: #003366; opacity: 0.7; stroke: #000000; stroke-width: 0.5; stroke-linejoin: miter"/>
   </g>
   <g id="patch_38">
    <path d="M 167.547844 186.1188 
C 167.547844 186.1188 167.547844 186.1188 167.547844 186.1188 
C 167.547844 186.1188 167.547844 186.1188 167.547844 186.1188 
L 155.060888 43.39224 
C 150.908482 43.755528 146.773907 44.299855 142.668965 45.023668 
C 138.564023 45.74748 134.492623 46.650087 130.466386 47.728914 
z
" clip-path="url(#p7cab9adef0)" style="fill: #003366; opacity: 0.7; stroke: #000000; stroke-width: 0.5; stroke-linejoin: miter"/>
   </g>
   <g id="patch_39">
    <path d="M 167.547844 39.7858 
C 148.33157 39.7858 129.302151 43.570987 111.548629 50.924736 
C 93.795107 58.278486 77.662744 69.057786 64.074787 82.645743 
C 50.48683 96.233701 39.70753 112.366064 32.35378 130.119585 
C 25.000031 147.873107 21.214844 166.902527 21.214844 186.1188 
C 21.214844 205.335073 25.000031 224.364493 32.35378 242.118015 
C 39.70753 259.871536 50.48683 276.003899 64.074787 289.591857 
C 77.662744 303.179814 93.795107 313.959114 111.548629 321.312864 
C 129.302151 328.666613 148.33157 332.4518 167.547844 332.4518 
C 186.764117 332.4518 205.793537 328.666613 223.547058 321.312864 
C 241.30058 313.959114 257.432943 303.179814 271.0209 289.591857 
C 284.608858 276.003899 295.388158 259.871536 302.741907 242.118015 
C 310.095657 224.364493 313.880844 205.335073 313.880844 186.1188 
C 313.880844 166.902527 310.095657 147.873107 302.741907 130.119585 
C 295.388158 112.366064 284.608858 96.233701 271.0209 82.645743 
C 257.432943 69.057786 241.30058 58.278486 223.547058 50.924736 
C 205.793537 43.570987 186.764117 39.7858 167.547844 39.7858 
" style="fill: none; stroke: #000000; stroke-width: 0.8; stroke-linejoin: miter; stroke-linecap: square"/>
   </g>
   <g id="text_5">
    <!-- London -->
    <g transform="translate(142.047844 19.1525) scale(0.16 -0.16)">
     <defs>
      <path id="EconSansRegIta-4c" d="M 2829 0 
L 2944 602 
L 986 602 
L 1747 4518 
L 1101 4518 
L 224 0 
L 2829 0 
z
" transform="scale(0.015625)"/>
      <path id="EconSansRegIta-6f" d="M 3232 1958 
C 3232 2797 2778 3264 2035 3264 
C 1613 3264 1190 3110 864 2790 
C 461 2394 250 1779 250 1242 
C 250 397 723 -77 1491 -77 
C 1907 -77 2304 64 2611 365 
C 3040 781 3232 1402 3232 1958 
z
M 2643 1901 
C 2643 1498 2490 1005 2240 730 
C 2054 531 1811 435 1574 435 
C 1088 435 838 736 838 1286 
C 838 1664 998 2157 1242 2419 
C 1446 2637 1683 2746 1958 2746 
C 2426 2746 2643 2426 2643 1901 
z
" transform="scale(0.015625)"/>
      <path id="EconSansRegIta-6e" d="M 813 0 
L 1248 2259 
C 1440 2554 1805 2739 2118 2739 
C 2445 2739 2611 2611 2611 2253 
C 2611 2131 2586 1926 2547 1741 
L 2214 0 
L 2803 0 
L 3136 1734 
C 3194 2035 3226 2285 3226 2502 
C 3226 3014 2925 3258 2419 3258 
C 1997 3258 1600 3066 1338 2771 
L 1414 3181 
L 845 3181 
L 230 0 
L 813 0 
z
" transform="scale(0.015625)"/>
      <path id="EconSansRegIta-64" d="M 2701 0 
L 3610 4781 
L 3034 4781 
L 2733 3219 
C 2624 3238 2470 3264 2342 3264 
C 992 3264 237 2150 237 979 
C 237 339 570 -77 1222 -77 
C 1574 -77 1914 58 2195 320 
L 2131 0 
L 2701 0 
z
M 2259 787 
C 2029 557 1722 422 1453 422 
C 1101 422 826 614 826 1114 
C 826 1830 1306 2765 2202 2765 
C 2368 2765 2515 2746 2637 2714 
L 2259 787 
z
" transform="scale(0.015625)"/>
     </defs>
     <use xlink:href="#EconSansRegIta-4c"/>
     <use xlink:href="#EconSansRegIta-6f" x="46.849991"/>
     <use xlink:href="#EconSansRegIta-6e" x="100.549988"/>
     <use xlink:href="#EconSansRegIta-64" x="155.749985"/>
     <use xlink:href="#EconSansRegIta-6f" x="209.849976"/>
     <use xlink:href="#EconSansRegIta-6e" x="263.549973"/>
    </g>
   </g>
  </g>
 </g>
 <defs>
  <clipPath id="p7cab9adef0">
   <path d="M 313.880844 186.1188 
C 313.880844 166.902527 310.095657 147.873107 302.741907 130.119585 
C 295.388158 112.366064 284.608858 96.233701 271.0209 82.645743 
C 257.432943 69.057786 241.30058 58.278486 223.547058 50.924736 
C 205.793537 43.570987 186.764117 39.7858 167.547844 39.7858 
C 148.33157 39.7858 129.302151 43.570987 111.548629 50.924736 
C 93.795107 58.278486 77.662744 69.057786 64.074787 82.645743 
C 50.48683 96.233701 39.70753 112.366064 32.35378 130.119585 
C 25.000031 147.873107 21.214844 166.902527 21.214844 186.1188 
C 21.214844 205.335073 25.000031 224.364493 32.35378 242.118015 
C 39.70753 259.871536 50.48683 276.003899 64.074787 289.591857 
C 77.662744 303.179814 93.795107 313.959114 111.548629 321.312864 
C 129.302151 328.666613 148.33157 332.4518 167.547844 332.4518 
C 186.764117 332.4518 205.793537 328.666613 223.547058 321.312864 
C 241.30058 313.959114 257.432943 303.179814 271.0209 289.591857 
C 284.608858 276.003899 295.388158 259.871536 302.741907 242.118015 
C 310.095657 224.364493 313.880844 205.335073 313.880844 186.1188 
M 167.547844 186.1188 
C 167.547844 186.1188 167.547844 186.1188 167.547844 186.1188 
C 167.547844 186.1188 167.547844 186.1188 167.547844 186.1188 
C 167.547844 186.1188 167.547844 186.1188 167.547844 186.1188 
C 167.547844 186.1188 167.547844 186.1188 167.547844 186.1188 
C 167.547844 186.1188 167.547844 186.1188 167.547844 186.1188 
C 167.547844 186.1188 167.547844 186.1188 167.547844 186.1188 
C 167.547844 186.1188 167.547844 186.1188 167.547844 186.1188 
C 167.547844 186.1188 167.547844 186.1188 167.547844 186.1188 
C 167.547844 186.1188 167.547844 186.1188 167.547844 186.1188 
C 167.547844 186.1188 167.547844 186.1188 167.547844 186.1188 
C 167.547844 186.1188 167.547844 186.1188 167.547844 186.1188 
C 167.547844 186.1188 167.547844 186.1188 167.547844 186.1188 
C 167.547844 186.1188 167.547844 186.1188 167.547844 186.1188 
C 167.547844 186.1188 167.547844 186.1188 167.547844 186.1188 
C 167.547844 186.1188 167.547844 186.1188 167.547844 186.1188 
C 167.547844 186.1188 167.547844 186.1188 167.547844 186.1188 
M 313.880844 186.1188 
z
"/>
  </clipPath>
 </defs>
</svg>
