<?xml version="1.0" encoding="utf-8" standalone="no"?>
<!DOCTYPE svg PUBLIC "-//W3C//DTD SVG 1.1//EN"
  "http://www.w3.org/Graphics/SVG/1.1/DTD/svg11.dtd">
<svg xmlns:xlink="http://www.w3.org/1999/xlink" width="331.628469pt" height="351.759463pt" viewBox="0 0 331.628469 351.759463" xmlns="http://www.w3.org/2000/svg" version="1.1">
 <metadata>
  <rdf:RDF xmlns:dc="http://purl.org/dc/elements/1.1/" xmlns:cc="http://creativecommons.org/ns#" xmlns:rdf="http://www.w3.org/1999/02/22-rdf-syntax-ns#">
   <cc:Work>
    <dc:type rdf:resource="http://purl.org/dc/dcmitype/StillImage"/>
    <dc:date>2023-08-26T13:05:42.582963</dc:date>
    <dc:format>image/svg+xml</dc:format>
    <dc:creator>
     <cc:Agent>
      <dc:title>Matplotlib v3.7.1, https://matplotlib.org/</dc:title>
     </cc:Agent>
    </dc:creator>
   </cc:Work>
  </rdf:RDF>
 </metadata>
 <defs>
  <style type="text/css">*{stroke-linejoin: round; stroke-linecap: butt}</style>
 </defs>
 <g id="figure_1">
  <g id="patch_1">
   <path d="M 0 351.759463 
L 331.628469 351.759463 
L 331.628469 0 
L 0 0 
z
" style="fill: #ffffff"/>
  </g>
  <g id="axes_1">
   <g id="patch_2">
    <path d="M 312.512844 185.5714 
C 312.512844 166.444949 308.74535 147.504478 301.425974 129.833941 
C 294.106598 112.163404 283.377683 96.106448 269.853239 82.582004 
C 256.328796 69.057561 240.27184 58.328646 222.601303 51.00927 
C 204.930766 43.689894 185.990295 39.9224 166.863844 39.9224 
C 147.737392 39.9224 128.796922 43.689894 111.126385 51.00927 
C 93.455847 58.328646 77.398892 69.057561 63.874448 82.582004 
C 50.350005 96.106448 39.62109 112.163404 32.301714 129.833941 
C 24.982338 147.504478 21.214844 166.444949 21.214844 185.5714 
C 21.214844 204.697851 24.982338 223.638322 32.301714 241.308859 
C 39.62109 258.979396 50.350005 275.036352 63.874448 288.560796 
C 77.398892 302.085239 93.455847 312.814154 111.126385 320.13353 
C 128.796922 327.452906 147.737392 331.2204 166.863844 331.2204 
C 185.990295 331.2204 204.930766 327.452906 222.601303 320.13353 
C 240.27184 312.814154 256.328796 302.085239 269.853239 288.560796 
C 283.377683 275.036352 294.106598 258.979396 301.425974 241.308859 
C 308.74535 223.638322 312.512844 204.697851 312.512844 185.5714 
M 166.863844 185.5714 
C 166.863844 185.5714 166.863844 185.5714 166.863844 185.5714 
C 166.863844 185.5714 166.863844 185.5714 166.863844 185.5714 
C 166.863844 185.5714 166.863844 185.5714 166.863844 185.5714 
C 166.863844 185.5714 166.863844 185.5714 166.863844 185.5714 
C 166.863844 185.5714 166.863844 185.5714 166.863844 185.5714 
C 166.863844 185.5714 166.863844 185.5714 166.863844 185.5714 
C 166.863844 185.5714 166.863844 185.5714 166.863844 185.5714 
C 166.863844 185.5714 166.863844 185.5714 166.863844 185.5714 
C 166.863844 185.5714 166.863844 185.5714 166.863844 185.5714 
C 166.863844 185.5714 166.863844 185.5714 166.863844 185.5714 
C 166.863844 185.5714 166.863844 185.5714 166.863844 185.5714 
C 166.863844 185.5714 166.863844 185.5714 166.863844 185.5714 
C 166.863844 185.5714 166.863844 185.5714 166.863844 185.5714 
C 166.863844 185.5714 166.863844 185.5714 166.863844 185.5714 
C 166.863844 185.5714 166.863844 185.5714 166.863844 185.5714 
C 166.863844 185.5714 166.863844 185.5714 166.863844 185.5714 
z
" style="fill: #ffffff"/>
   </g>
   <g id="matplotlib.axis_1">
    <g id="xtick_1">
     <g id="line2d_1">
      <path d="M 166.863844 185.5714 
L 166.863844 39.9224 
" clip-path="url(#pfd83b82405)" style="fill: none; stroke: #b0b0b0; stroke-width: 0.8; stroke-linecap: square"/>
     </g>
     <g id="text_1">
      <!-- N -->
      <g transform="translate(162.679469 34.181775) scale(0.1 -0.1)">
       <defs>
        <path id="DejaVuSans-Bold-4e" d="M 588 4666 
L 1931 4666 
L 3628 1466 
L 3628 4666 
L 4769 4666 
L 4769 0 
L 3425 0 
L 1728 3200 
L 1728 0 
L 588 0 
L 588 4666 
z
" transform="scale(0.015625)"/>
       </defs>
       <use xlink:href="#DejaVuSans-Bold-4e"/>
      </g>
     </g>
    </g>
    <g id="xtick_2">
     <g id="line2d_2">
      <path d="M 166.863844 185.5714 
L 269.853239 82.582004 
" clip-path="url(#pfd83b82405)" style="fill: none; stroke: #b0b0b0; stroke-width: 0.8; stroke-linecap: square"/>
     </g>
    </g>
    <g id="xtick_3">
     <g id="line2d_3">
      <path d="M 166.863844 185.5714 
L 312.512844 185.5714 
" clip-path="url(#pfd83b82405)" style="fill: none; stroke: #b0b0b0; stroke-width: 0.8; stroke-linecap: square"/>
     </g>
     <g id="text_2">
      <!-- E -->
      <g transform="translate(317.597219 188.330775) scale(0.1 -0.1)">
       <defs>
        <path id="DejaVuSans-Bold-45" d="M 588 4666 
L 3834 4666 
L 3834 3756 
L 1791 3756 
L 1791 2888 
L 3713 2888 
L 3713 1978 
L 1791 1978 
L 1791 909 
L 3903 909 
L 3903 0 
L 588 0 
L 588 4666 
z
" transform="scale(0.015625)"/>
       </defs>
       <use xlink:href="#DejaVuSans-Bold-45"/>
      </g>
     </g>
    </g>
    <g id="xtick_4">
     <g id="line2d_4">
      <path d="M 166.863844 185.5714 
L 269.853239 288.560796 
" clip-path="url(#pfd83b82405)" style="fill: none; stroke: #b0b0b0; stroke-width: 0.8; stroke-linecap: square"/>
     </g>
    </g>
    <g id="xtick_5">
     <g id="line2d_5">
      <path d="M 166.863844 185.5714 
L 166.863844 331.2204 
" clip-path="url(#pfd83b82405)" style="fill: none; stroke: #b0b0b0; stroke-width: 0.8; stroke-linecap: square"/>
     </g>
     <g id="text_3">
      <!-- S -->
      <g transform="translate(163.263063 342.479775) scale(0.1 -0.1)">
       <defs>
        <path id="DejaVuSans-Bold-53" d="M 3834 4519 
L 3834 3531 
Q 3450 3703 3084 3790 
Q 2719 3878 2394 3878 
Q 1963 3878 1756 3759 
Q 1550 3641 1550 3391 
Q 1550 3203 1689 3098 
Q 1828 2994 2194 2919 
L 2706 2816 
Q 3484 2659 3812 2340 
Q 4141 2022 4141 1434 
Q 4141 663 3683 286 
Q 3225 -91 2284 -91 
Q 1841 -91 1394 -6 
Q 947 78 500 244 
L 500 1259 
Q 947 1022 1364 901 
Q 1781 781 2169 781 
Q 2563 781 2772 912 
Q 2981 1044 2981 1288 
Q 2981 1506 2839 1625 
Q 2697 1744 2272 1838 
L 1806 1941 
Q 1106 2091 782 2419 
Q 459 2747 459 3303 
Q 459 4000 909 4375 
Q 1359 4750 2203 4750 
Q 2588 4750 2994 4692 
Q 3400 4634 3834 4519 
z
" transform="scale(0.015625)"/>
       </defs>
       <use xlink:href="#DejaVuSans-Bold-53"/>
      </g>
     </g>
    </g>
    <g id="xtick_6">
     <g id="line2d_6">
      <path d="M 166.863844 185.5714 
L 63.874448 288.560796 
" clip-path="url(#pfd83b82405)" style="fill: none; stroke: #b0b0b0; stroke-width: 0.8; stroke-linecap: square"/>
     </g>
    </g>
    <g id="xtick_7">
     <g id="line2d_7">
      <path d="M 166.863844 185.5714 
L 21.214844 185.5714 
" clip-path="url(#pfd83b82405)" style="fill: none; stroke: #b0b0b0; stroke-width: 0.8; stroke-linecap: square"/>
     </g>
     <g id="text_4">
      <!-- W -->
      <g transform="translate(7.2 188.330775) scale(0.1 -0.1)">
       <defs>
        <path id="DejaVuSans-Bold-57" d="M 191 4666 
L 1344 4666 
L 2150 1275 
L 2950 4666 
L 4109 4666 
L 4909 1275 
L 5716 4666 
L 6859 4666 
L 5759 0 
L 4372 0 
L 3525 3547 
L 2688 0 
L 1300 0 
L 191 4666 
z
" transform="scale(0.015625)"/>
       </defs>
       <use xlink:href="#DejaVuSans-Bold-57"/>
      </g>
     </g>
    </g>
    <g id="xtick_8">
     <g id="line2d_8">
      <path d="M 166.863844 185.5714 
L 63.874448 82.582004 
" clip-path="url(#pfd83b82405)" style="fill: none; stroke: #b0b0b0; stroke-width: 0.8; stroke-linecap: square"/>
     </g>
    </g>
   </g>
   <g id="matplotlib.axis_2">
    <g id="ytick_1">
     <g id="line2d_9">
      <path d="M 166.863844 185.5714 
C 166.863844 185.5714 166.863844 185.5714 166.863844 185.5714 
C 166.863844 185.5714 166.863844 185.5714 166.863844 185.5714 
C 166.863844 185.5714 166.863844 185.5714 166.863844 185.5714 
C 166.863844 185.5714 166.863844 185.5714 166.863844 185.5714 
C 166.863844 185.5714 166.863844 185.5714 166.863844 185.5714 
C 166.863844 185.5714 166.863844 185.5714 166.863844 185.5714 
C 166.863844 185.5714 166.863844 185.5714 166.863844 185.5714 
C 166.863844 185.5714 166.863844 185.5714 166.863844 185.5714 
C 166.863844 185.5714 166.863844 185.5714 166.863844 185.5714 
C 166.863844 185.5714 166.863844 185.5714 166.863844 185.5714 
C 166.863844 185.5714 166.863844 185.5714 166.863844 185.5714 
C 166.863844 185.5714 166.863844 185.5714 166.863844 185.5714 
C 166.863844 185.5714 166.863844 185.5714 166.863844 185.5714 
C 166.863844 185.5714 166.863844 185.5714 166.863844 185.5714 
C 166.863844 185.5714 166.863844 185.5714 166.863844 185.5714 
C 166.863844 185.5714 166.863844 185.5714 166.863844 185.5714 
" clip-path="url(#pfd83b82405)" style="fill: none; stroke: #b0b0b0; stroke-width: 0.8; stroke-linecap: square"/>
     </g>
    </g>
    <g id="ytick_2">
     <g id="line2d_10">
      <path d="M 166.863844 149.15915 
C 171.645457 149.15915 176.380574 150.101023 180.798209 151.930867 
C 185.215843 153.760712 189.230082 156.44294 192.611193 159.824051 
C 195.992304 163.205162 198.674532 167.219401 200.504376 171.637035 
C 202.33422 176.054669 203.276094 180.789787 203.276094 185.5714 
C 203.276094 190.353013 202.33422 195.088131 200.504376 199.505765 
C 198.674532 203.923399 195.992304 207.937638 192.611193 211.318749 
C 189.230082 214.69986 185.215843 217.382088 180.798209 219.211933 
C 176.380574 221.041777 171.645457 221.98365 166.863844 221.98365 
C 162.082231 221.98365 157.347113 221.041777 152.929479 219.211933 
C 148.511845 217.382088 144.497606 214.69986 141.116495 211.318749 
C 137.735384 207.937638 135.053155 203.923399 133.223311 199.505765 
C 131.393467 195.088131 130.451594 190.353013 130.451594 185.5714 
C 130.451594 180.789787 131.393467 176.054669 133.223311 171.637035 
C 135.053155 167.219401 137.735384 163.205162 141.116495 159.824051 
C 144.497606 156.44294 148.511845 153.760712 152.929479 151.930867 
C 157.347113 150.101023 162.082231 149.15915 166.863844 149.15915 
" clip-path="url(#pfd83b82405)" style="fill: none; stroke: #b0b0b0; stroke-width: 0.8; stroke-linecap: square"/>
     </g>
    </g>
    <g id="ytick_3">
     <g id="line2d_11">
      <path d="M 166.863844 112.7469 
C 176.427069 112.7469 185.897305 114.630647 194.732573 118.290335 
C 203.567842 121.950023 211.59632 127.31448 218.358542 134.076702 
C 225.120763 140.838924 230.485221 148.867402 234.144909 157.70267 
C 237.804597 166.537939 239.688344 176.008174 239.688344 185.5714 
C 239.688344 195.134626 237.804597 204.604861 234.144909 213.44013 
C 230.485221 222.275398 225.120763 230.303876 218.358542 237.066098 
C 211.59632 243.82832 203.567842 249.192777 194.732573 252.852465 
C 185.897305 256.512153 176.427069 258.3959 166.863844 258.3959 
C 157.300618 258.3959 147.830383 256.512153 138.995114 252.852465 
C 130.159846 249.192777 122.131368 243.82832 115.369146 237.066098 
C 108.606924 230.303876 103.242467 222.275398 99.582779 213.44013 
C 95.923091 204.604861 94.039344 195.134626 94.039344 185.5714 
C 94.039344 176.008174 95.923091 166.537939 99.582779 157.70267 
C 103.242467 148.867402 108.606924 140.838924 115.369146 134.076702 
C 122.131368 127.31448 130.159846 121.950023 138.995114 118.290335 
C 147.830383 114.630647 157.300618 112.7469 166.863844 112.7469 
" clip-path="url(#pfd83b82405)" style="fill: none; stroke: #b0b0b0; stroke-width: 0.8; stroke-linecap: square"/>
     </g>
    </g>
    <g id="ytick_4">
     <g id="line2d_12">
      <path d="M 166.863844 76.33465 
C 181.208682 76.33465 195.414035 79.16027 208.666938 84.649802 
C 221.919841 90.139335 233.962558 98.186021 244.10589 108.329353 
C 254.249223 118.472686 262.295909 130.515403 267.785441 143.768306 
C 273.274973 157.021208 276.100594 171.226561 276.100594 185.5714 
C 276.100594 199.916239 273.274973 214.121592 267.785441 227.374494 
C 262.295909 240.627397 254.249223 252.670114 244.10589 262.813447 
C 233.962558 272.956779 221.919841 281.003465 208.666938 286.492998 
C 195.414035 291.98253 181.208682 294.80815 166.863844 294.80815 
C 152.519005 294.80815 138.313652 291.98253 125.060749 286.492998 
C 111.807847 281.003465 99.76513 272.956779 89.621797 262.813447 
C 79.478464 252.670114 71.431778 240.627397 65.942246 227.374494 
C 60.452714 214.121592 57.627094 199.916239 57.627094 185.5714 
C 57.627094 171.226561 60.452714 157.021208 65.942246 143.768306 
C 71.431778 130.515403 79.478464 118.472686 89.621797 108.329353 
C 99.76513 98.186021 111.807847 90.139335 125.060749 84.649802 
C 138.313652 79.16027 152.519005 76.33465 166.863844 76.33465 
" clip-path="url(#pfd83b82405)" style="fill: none; stroke: #b0b0b0; stroke-width: 0.8; stroke-linecap: square"/>
     </g>
    </g>
    <g id="ytick_5">
     <g id="line2d_13">
      <path d="M 166.863844 39.9224 
C 185.990295 39.9224 204.930766 43.689894 222.601303 51.00927 
C 240.27184 58.328646 256.328796 69.057561 269.853239 82.582004 
C 283.377683 96.106448 294.106598 112.163404 301.425974 129.833941 
C 308.74535 147.504478 312.512844 166.444949 312.512844 185.5714 
C 312.512844 204.697851 308.74535 223.638322 301.425974 241.308859 
C 294.106598 258.979396 283.377683 275.036352 269.853239 288.560796 
C 256.328796 302.085239 240.27184 312.814154 222.601303 320.13353 
C 204.930766 327.452906 185.990295 331.2204 166.863844 331.2204 
C 147.737392 331.2204 128.796922 327.452906 111.126385 320.13353 
C 93.455847 312.814154 77.398892 302.085239 63.874448 288.560796 
C 50.350005 275.036352 39.62109 258.979396 32.301714 241.308859 
C 24.982338 223.638322 21.214844 204.697851 21.214844 185.5714 
C 21.214844 166.444949 24.982338 147.504478 32.301714 129.833941 
C 39.62109 112.163404 50.350005 96.106448 63.874448 82.582004 
C 77.398892 69.057561 93.455847 58.328646 111.126385 51.00927 
C 128.796922 43.689894 147.737392 39.9224 166.863844 39.9224 
" clip-path="url(#pfd83b82405)" style="fill: none; stroke: #b0b0b0; stroke-width: 0.8; stroke-linecap: square"/>
     </g>
    </g>
   </g>
   <g id="patch_3">
    <path d="M 166.863844 185.5714 
C 166.863844 185.5714 166.863844 185.5714 166.863844 185.5714 
C 166.863844 185.5714 166.863844 185.5714 166.863844 185.5714 
L 171.635211 131.034423 
C 170.048543 130.895608 168.456573 130.826101 166.863844 130.826101 
C 165.271115 130.826101 163.679145 130.895608 162.092477 131.034423 
z
" clip-path="url(#pfd83b82405)" style="fill: #003366; opacity: 0.7; stroke: #000000; stroke-width: 0.5; stroke-linejoin: miter"/>
   </g>
   <g id="patch_4">
    <path d="M 166.863844 185.5714 
C 166.863844 185.5714 166.863844 185.5714 166.863844 185.5714 
C 166.863844 185.5714 166.863844 185.5714 166.863844 185.5714 
L 182.01436 129.028903 
C 180.369345 128.588123 178.705877 128.219341 177.028704 127.92361 
C 175.351532 127.627879 173.662253 127.405482 171.965688 127.257051 
z
" clip-path="url(#pfd83b82405)" style="fill: #003366; opacity: 0.7; stroke: #000000; stroke-width: 0.5; stroke-linejoin: miter"/>
   </g>
   <g id="patch_5">
    <path d="M 166.863844 185.5714 
C 166.863844 185.5714 166.863844 185.5714 166.863844 185.5714 
C 166.863844 185.5714 166.863844 185.5714 166.863844 185.5714 
L 188.318812 139.561073 
C 186.980213 138.936874 185.615012 138.37139 184.227105 137.866233 
C 182.839197 137.361076 181.429906 136.916728 180.003253 136.534457 
z
" clip-path="url(#pfd83b82405)" style="fill: #003366; opacity: 0.7; stroke: #000000; stroke-width: 0.5; stroke-linejoin: miter"/>
   </g>
   <g id="patch_6">
    <path d="M 166.863844 185.5714 
C 166.863844 185.5714 166.863844 185.5714 166.863844 185.5714 
C 166.863844 185.5714 166.863844 185.5714 166.863844 185.5714 
L 203.896331 132.683527 
C 202.357641 131.606125 200.772666 130.596384 199.145929 129.657187 
C 197.519193 128.717991 195.852244 127.850232 194.149842 127.056389 
z
" clip-path="url(#pfd83b82405)" style="fill: #003366; opacity: 0.7; stroke: #000000; stroke-width: 0.5; stroke-linejoin: miter"/>
   </g>
   <g id="patch_7">
    <path d="M 166.863844 185.5714 
C 166.863844 185.5714 166.863844 185.5714 166.863844 185.5714 
C 166.863844 185.5714 166.863844 185.5714 166.863844 185.5714 
L 231.541319 120.893925 
C 229.659629 119.012235 227.696718 117.213558 225.658188 115.503029 
C 223.619658 113.792499 221.507452 112.171746 219.327597 110.645395 
z
" clip-path="url(#pfd83b82405)" style="fill: #003366; opacity: 0.7; stroke: #000000; stroke-width: 0.5; stroke-linejoin: miter"/>
   </g>
   <g id="patch_8">
    <path d="M 166.863844 185.5714 
C 166.863844 185.5714 166.863844 185.5714 166.863844 185.5714 
C 166.863844 185.5714 166.863844 185.5714 166.863844 185.5714 
L 273.380152 110.987878 
C 271.210261 107.888952 268.906166 104.886197 266.474443 101.988183 
C 264.04272 99.090168 261.485686 96.299654 258.810638 93.624606 
z
" clip-path="url(#pfd83b82405)" style="fill: #003366; opacity: 0.7; stroke: #000000; stroke-width: 0.5; stroke-linejoin: miter"/>
   </g>
   <g id="patch_9">
    <path d="M 166.863844 185.5714 
C 166.863844 185.5714 166.863844 185.5714 166.863844 185.5714 
C 166.863844 185.5714 166.863844 185.5714 166.863844 185.5714 
L 298.866667 124.017473 
C 297.075851 120.177057 295.118293 116.416622 292.999578 112.7469 
C 290.880863 109.077178 288.60301 105.501665 286.17252 102.030566 
z
" clip-path="url(#pfd83b82405)" style="fill: #003366; opacity: 0.7; stroke: #000000; stroke-width: 0.5; stroke-linejoin: miter"/>
   </g>
   <g id="patch_10">
    <path d="M 166.863844 185.5714 
C 166.863844 185.5714 166.863844 185.5714 166.863844 185.5714 
C 166.863844 185.5714 166.863844 185.5714 166.863844 185.5714 
L 239.984566 165.978762 
C 239.414549 163.851429 238.751966 161.749984 237.998709 159.680427 
C 237.245451 157.610869 236.402237 155.575169 235.471472 153.579138 
z
" clip-path="url(#pfd83b82405)" style="fill: #003366; opacity: 0.7; stroke: #000000; stroke-width: 0.5; stroke-linejoin: miter"/>
   </g>
   <g id="patch_11">
    <path d="M 166.863844 185.5714 
C 166.863844 185.5714 166.863844 185.5714 166.863844 185.5714 
C 166.863844 185.5714 166.863844 185.5714 166.863844 185.5714 
L 224.425718 180.535389 
C 224.279203 178.860716 224.059675 177.193235 223.76776 175.537704 
C 223.475845 173.882174 223.111822 172.240171 222.676729 170.616382 
z
" clip-path="url(#pfd83b82405)" style="fill: #003366; opacity: 0.7; stroke: #000000; stroke-width: 0.5; stroke-linejoin: miter"/>
   </g>
   <g id="patch_12">
    <path d="M 166.863844 185.5714 
C 166.863844 185.5714 166.863844 185.5714 166.863844 185.5714 
C 166.863844 185.5714 166.863844 185.5714 166.863844 185.5714 
L 217.149269 189.970805 
C 217.277262 188.507829 217.341351 187.039964 217.341351 185.5714 
C 217.341351 184.102836 217.277262 182.634971 217.149269 181.171995 
z
" clip-path="url(#pfd83b82405)" style="fill: #003366; opacity: 0.7; stroke: #000000; stroke-width: 0.5; stroke-linejoin: miter"/>
   </g>
   <g id="patch_13">
    <path d="M 166.863844 185.5714 
C 166.863844 185.5714 166.863844 185.5714 166.863844 185.5714 
C 166.863844 185.5714 166.863844 185.5714 166.863844 185.5714 
L 224.522943 201.021109 
C 224.972428 199.343608 225.348493 197.64729 225.650064 195.936997 
C 225.951635 194.226704 226.178424 192.504064 226.329786 190.773996 
z
" clip-path="url(#pfd83b82405)" style="fill: #003366; opacity: 0.7; stroke: #000000; stroke-width: 0.5; stroke-linejoin: miter"/>
   </g>
   <g id="patch_14">
    <path d="M 166.863844 185.5714 
C 166.863844 185.5714 166.863844 185.5714 166.863844 185.5714 
C 166.863844 185.5714 166.863844 185.5714 166.863844 185.5714 
L 214.75291 207.902438 
C 215.402597 206.509181 215.991172 205.088235 216.516956 203.643655 
C 217.04274 202.199075 217.505232 200.732238 217.903112 199.247331 
z
" clip-path="url(#pfd83b82405)" style="fill: #003366; opacity: 0.7; stroke: #000000; stroke-width: 0.5; stroke-linejoin: miter"/>
   </g>
   <g id="patch_15">
    <path d="M 166.863844 185.5714 
C 166.863844 185.5714 166.863844 185.5714 166.863844 185.5714 
C 166.863844 185.5714 166.863844 185.5714 166.863844 185.5714 
L 214.265031 218.762069 
C 215.230662 217.383006 216.13565 215.962459 216.977413 214.504483 
C 217.819176 213.046507 218.596911 211.552491 219.3084 210.026698 
z
" clip-path="url(#pfd83b82405)" style="fill: #003366; opacity: 0.7; stroke: #000000; stroke-width: 0.5; stroke-linejoin: miter"/>
   </g>
   <g id="patch_16">
    <path d="M 166.863844 185.5714 
C 166.863844 185.5714 166.863844 185.5714 166.863844 185.5714 
C 166.863844 185.5714 166.863844 185.5714 166.863844 185.5714 
L 230.39919 249.106746 
C 232.247651 247.258285 234.014566 245.330036 235.694889 243.327505 
C 237.375213 241.324973 238.967345 239.250066 240.466742 237.108704 
z
" clip-path="url(#pfd83b82405)" style="fill: #003366; opacity: 0.7; stroke: #000000; stroke-width: 0.5; stroke-linejoin: miter"/>
   </g>
   <g id="patch_17">
    <path d="M 166.863844 185.5714 
C 166.863844 185.5714 166.863844 185.5714 166.863844 185.5714 
C 166.863844 185.5714 166.863844 185.5714 166.863844 185.5714 
L 237.192012 286.010433 
C 240.114128 283.964345 242.945562 281.79171 245.678231 279.498729 
C 248.410899 277.205747 251.042201 274.794604 253.564624 272.27218 
z
" clip-path="url(#pfd83b82405)" style="fill: #003366; opacity: 0.7; stroke: #000000; stroke-width: 0.5; stroke-linejoin: miter"/>
   </g>
   <g id="patch_18">
    <path d="M 166.863844 185.5714 
C 166.863844 185.5714 166.863844 185.5714 166.863844 185.5714 
C 166.863844 185.5714 166.863844 185.5714 166.863844 185.5714 
L 226.504304 313.47078 
C 230.225336 311.735634 233.868875 309.838928 237.42452 307.786076 
C 240.980164 305.733223 244.444529 303.526179 247.807726 301.171244 
z
" clip-path="url(#pfd83b82405)" style="fill: #003366; opacity: 0.7; stroke: #000000; stroke-width: 0.5; stroke-linejoin: miter"/>
   </g>
   <g id="patch_19">
    <path d="M 166.863844 185.5714 
C 166.863844 185.5714 166.863844 185.5714 166.863844 185.5714 
C 166.863844 185.5714 166.863844 185.5714 166.863844 185.5714 
L 187.56023 262.811366 
C 189.807406 262.209237 192.027235 261.509327 194.213381 260.713635 
C 196.399527 259.917943 198.549907 259.027227 200.658385 258.044027 
z
" clip-path="url(#pfd83b82405)" style="fill: #003366; opacity: 0.7; stroke: #000000; stroke-width: 0.5; stroke-linejoin: miter"/>
   </g>
   <g id="patch_20">
    <path d="M 166.863844 185.5714 
C 166.863844 185.5714 166.863844 185.5714 166.863844 185.5714 
C 166.863844 185.5714 166.863844 185.5714 166.863844 185.5714 
L 171.848051 242.541145 
C 173.505496 242.396137 175.155824 242.178867 176.794325 241.889955 
C 178.432825 241.601044 180.057937 241.240765 181.665022 240.810148 
z
" clip-path="url(#pfd83b82405)" style="fill: #003366; opacity: 0.7; stroke: #000000; stroke-width: 0.5; stroke-linejoin: miter"/>
   </g>
   <g id="patch_21">
    <path d="M 166.863844 185.5714 
C 166.863844 185.5714 166.863844 185.5714 166.863844 185.5714 
C 166.863844 185.5714 166.863844 185.5714 166.863844 185.5714 
L 162.092477 240.108377 
C 163.679145 240.247192 165.271115 240.316699 166.863844 240.316699 
C 168.456573 240.316699 170.048543 240.247192 171.635211 240.108377 
z
" clip-path="url(#pfd83b82405)" style="fill: #003366; opacity: 0.7; stroke: #000000; stroke-width: 0.5; stroke-linejoin: miter"/>
   </g>
   <g id="patch_22">
    <path d="M 166.863844 185.5714 
C 166.863844 185.5714 166.863844 185.5714 166.863844 185.5714 
C 166.863844 185.5714 166.863844 185.5714 166.863844 185.5714 
L 151.713327 242.113897 
C 153.358343 242.554677 155.021811 242.923459 156.698983 243.21919 
C 158.376155 243.514921 160.065435 243.737318 161.761999 243.885749 
z
" clip-path="url(#pfd83b82405)" style="fill: #003366; opacity: 0.7; stroke: #000000; stroke-width: 0.5; stroke-linejoin: miter"/>
   </g>
   <g id="patch_23">
    <path d="M 166.863844 185.5714 
C 166.863844 185.5714 166.863844 185.5714 166.863844 185.5714 
C 166.863844 185.5714 166.863844 185.5714 166.863844 185.5714 
L 145.408876 231.581727 
C 146.747474 232.205926 148.112676 232.77141 149.500583 233.276567 
C 150.88849 233.781724 152.297781 234.226072 153.724435 234.608343 
z
" clip-path="url(#pfd83b82405)" style="fill: #003366; opacity: 0.7; stroke: #000000; stroke-width: 0.5; stroke-linejoin: miter"/>
   </g>
   <g id="patch_24">
    <path d="M 166.863844 185.5714 
C 166.863844 185.5714 166.863844 185.5714 166.863844 185.5714 
C 166.863844 185.5714 166.863844 185.5714 166.863844 185.5714 
L 129.831356 238.459273 
C 131.370046 239.536675 132.955022 240.546416 134.581758 241.485613 
C 136.208495 242.424809 137.875443 243.292568 139.577846 244.086411 
z
" clip-path="url(#pfd83b82405)" style="fill: #003366; opacity: 0.7; stroke: #000000; stroke-width: 0.5; stroke-linejoin: miter"/>
   </g>
   <g id="patch_25">
    <path d="M 166.863844 185.5714 
C 166.863844 185.5714 166.863844 185.5714 166.863844 185.5714 
C 166.863844 185.5714 166.863844 185.5714 166.863844 185.5714 
L 102.186369 250.248875 
C 104.068059 252.130565 106.03097 253.929242 108.069499 255.639771 
C 110.108029 257.350301 112.220236 258.971054 114.400091 260.497405 
z
" clip-path="url(#pfd83b82405)" style="fill: #003366; opacity: 0.7; stroke: #000000; stroke-width: 0.5; stroke-linejoin: miter"/>
   </g>
   <g id="patch_26">
    <path d="M 166.863844 185.5714 
C 166.863844 185.5714 166.863844 185.5714 166.863844 185.5714 
C 166.863844 185.5714 166.863844 185.5714 166.863844 185.5714 
L 60.347535 260.154922 
C 62.517426 263.253848 64.821521 266.256603 67.253244 269.154617 
C 69.684967 272.052632 72.242002 274.843146 74.91705 277.518194 
z
" clip-path="url(#pfd83b82405)" style="fill: #003366; opacity: 0.7; stroke: #000000; stroke-width: 0.5; stroke-linejoin: miter"/>
   </g>
   <g id="patch_27">
    <path d="M 166.863844 185.5714 
C 166.863844 185.5714 166.863844 185.5714 166.863844 185.5714 
C 166.863844 185.5714 166.863844 185.5714 166.863844 185.5714 
L 34.861021 247.125327 
C 36.651836 250.965743 38.609395 254.726178 40.72811 258.3959 
C 42.846825 262.065622 45.124678 265.641135 47.555168 269.112234 
z
" clip-path="url(#pfd83b82405)" style="fill: #003366; opacity: 0.7; stroke: #000000; stroke-width: 0.5; stroke-linejoin: miter"/>
   </g>
   <g id="patch_28">
    <path d="M 166.863844 185.5714 
C 166.863844 185.5714 166.863844 185.5714 166.863844 185.5714 
C 166.863844 185.5714 166.863844 185.5714 166.863844 185.5714 
L 93.743121 205.164038 
C 94.313139 207.291371 94.975721 209.392816 95.728979 211.462373 
C 96.482236 213.531931 97.325451 215.567631 98.256215 217.563662 
z
" clip-path="url(#pfd83b82405)" style="fill: #003366; opacity: 0.7; stroke: #000000; stroke-width: 0.5; stroke-linejoin: miter"/>
   </g>
   <g id="patch_29">
    <path d="M 166.863844 185.5714 
C 166.863844 185.5714 166.863844 185.5714 166.863844 185.5714 
C 166.863844 185.5714 166.863844 185.5714 166.863844 185.5714 
L 109.30197 190.607411 
C 109.448485 192.282084 109.668013 193.949565 109.959928 195.605096 
C 110.251842 197.260626 110.615866 198.902629 111.050958 200.526418 
z
" clip-path="url(#pfd83b82405)" style="fill: #003366; opacity: 0.7; stroke: #000000; stroke-width: 0.5; stroke-linejoin: miter"/>
   </g>
   <g id="patch_30">
    <path d="M 166.863844 185.5714 
C 166.863844 185.5714 166.863844 185.5714 166.863844 185.5714 
C 166.863844 185.5714 166.863844 185.5714 166.863844 185.5714 
L 116.578419 181.171995 
C 116.450425 182.634971 116.386337 184.102836 116.386337 185.5714 
C 116.386337 187.039964 116.450425 188.507829 116.578419 189.970805 
z
" clip-path="url(#pfd83b82405)" style="fill: #003366; opacity: 0.7; stroke: #000000; stroke-width: 0.5; stroke-linejoin: miter"/>
   </g>
   <g id="patch_31">
    <path d="M 166.863844 185.5714 
C 166.863844 185.5714 166.863844 185.5714 166.863844 185.5714 
C 166.863844 185.5714 166.863844 185.5714 166.863844 185.5714 
L 109.204744 170.121691 
C 108.755259 171.799192 108.379195 173.49551 108.077624 175.205803 
C 107.776053 176.916096 107.549263 178.638736 107.397902 180.368804 
z
" clip-path="url(#pfd83b82405)" style="fill: #003366; opacity: 0.7; stroke: #000000; stroke-width: 0.5; stroke-linejoin: miter"/>
   </g>
   <g id="patch_32">
    <path d="M 166.863844 185.5714 
C 166.863844 185.5714 166.863844 185.5714 166.863844 185.5714 
C 166.863844 185.5714 166.863844 185.5714 166.863844 185.5714 
L 118.974777 163.240362 
C 118.325091 164.633619 117.736515 166.054565 117.210731 167.499145 
C 116.684947 168.943725 116.222455 170.410562 115.824576 171.895469 
z
" clip-path="url(#pfd83b82405)" style="fill: #003366; opacity: 0.7; stroke: #000000; stroke-width: 0.5; stroke-linejoin: miter"/>
   </g>
   <g id="patch_33">
    <path d="M 166.863844 185.5714 
C 166.863844 185.5714 166.863844 185.5714 166.863844 185.5714 
C 166.863844 185.5714 166.863844 185.5714 166.863844 185.5714 
L 119.462656 152.380731 
C 118.497025 153.759794 117.592037 155.180341 116.750274 156.638317 
C 115.908512 158.096293 115.130776 159.590309 114.419287 161.116102 
z
" clip-path="url(#pfd83b82405)" style="fill: #003366; opacity: 0.7; stroke: #000000; stroke-width: 0.5; stroke-linejoin: miter"/>
   </g>
   <g id="patch_34">
    <path d="M 166.863844 185.5714 
C 166.863844 185.5714 166.863844 185.5714 166.863844 185.5714 
C 166.863844 185.5714 166.863844 185.5714 166.863844 185.5714 
L 103.328498 122.036054 
C 101.480036 123.884515 99.713122 125.812764 98.032798 127.815295 
C 96.352475 129.817827 94.760342 131.892734 93.260945 134.034096 
z
" clip-path="url(#pfd83b82405)" style="fill: #003366; opacity: 0.7; stroke: #000000; stroke-width: 0.5; stroke-linejoin: miter"/>
   </g>
   <g id="patch_35">
    <path d="M 166.863844 185.5714 
C 166.863844 185.5714 166.863844 185.5714 166.863844 185.5714 
C 166.863844 185.5714 166.863844 185.5714 166.863844 185.5714 
L 96.535676 85.132367 
C 93.613559 87.178455 90.782126 89.35109 88.049457 91.644071 
C 85.316788 93.937053 82.685487 96.348196 80.163063 98.87062 
z
" clip-path="url(#pfd83b82405)" style="fill: #003366; opacity: 0.7; stroke: #000000; stroke-width: 0.5; stroke-linejoin: miter"/>
   </g>
   <g id="patch_36">
    <path d="M 166.863844 185.5714 
C 166.863844 185.5714 166.863844 185.5714 166.863844 185.5714 
C 166.863844 185.5714 166.863844 185.5714 166.863844 185.5714 
L 107.223383 57.67202 
C 103.502351 59.407166 99.858813 61.303872 96.303168 63.356724 
C 92.747523 65.409577 89.283158 67.616621 85.919962 69.971556 
z
" clip-path="url(#pfd83b82405)" style="fill: #003366; opacity: 0.7; stroke: #000000; stroke-width: 0.5; stroke-linejoin: miter"/>
   </g>
   <g id="patch_37">
    <path d="M 166.863844 185.5714 
C 166.863844 185.5714 166.863844 185.5714 166.863844 185.5714 
C 166.863844 185.5714 166.863844 185.5714 166.863844 185.5714 
L 146.167457 108.331434 
C 143.920281 108.933563 141.700452 109.633473 139.514307 110.429165 
C 137.328161 111.224857 135.17778 112.115573 133.069303 113.098773 
z
" clip-path="url(#pfd83b82405)" style="fill: #003366; opacity: 0.7; stroke: #000000; stroke-width: 0.5; stroke-linejoin: miter"/>
   </g>
   <g id="patch_38">
    <path d="M 166.863844 185.5714 
C 166.863844 185.5714 166.863844 185.5714 166.863844 185.5714 
C 166.863844 185.5714 166.863844 185.5714 166.863844 185.5714 
L 161.879637 128.601655 
C 160.222191 128.746663 158.571863 128.963933 156.933363 129.252845 
C 155.294863 129.541756 153.669751 129.902035 152.062666 130.332652 
z
" clip-path="url(#pfd83b82405)" style="fill: #003366; opacity: 0.7; stroke: #000000; stroke-width: 0.5; stroke-linejoin: miter"/>
   </g>
   <g id="patch_39">
    <path d="M 166.863844 39.9224 
C 147.737392 39.9224 128.796922 43.689894 111.126385 51.00927 
C 93.455847 58.328646 77.398892 69.057561 63.874448 82.582004 
C 50.350005 96.106448 39.62109 112.163404 32.301714 129.833941 
C 24.982338 147.504478 21.214844 166.444949 21.214844 185.5714 
C 21.214844 204.697851 24.982338 223.638322 32.301714 241.308859 
C 39.62109 258.979396 50.350005 275.036352 63.874448 288.560796 
C 77.398892 302.085239 93.455847 312.814154 111.126385 320.13353 
C 128.796922 327.452906 147.737392 331.2204 166.863844 331.2204 
C 185.990295 331.2204 204.930766 327.452906 222.601303 320.13353 
C 240.27184 312.814154 256.328796 302.085239 269.853239 288.560796 
C 283.377683 275.036352 294.106598 258.979396 301.425974 241.308859 
C 308.74535 223.638322 312.512844 204.697851 312.512844 185.5714 
C 312.512844 166.444949 308.74535 147.504478 301.425974 129.833941 
C 294.106598 112.163404 283.377683 96.106448 269.853239 82.582004 
C 256.328796 69.057561 240.27184 58.328646 222.601303 51.00927 
C 204.930766 43.689894 185.990295 39.9224 166.863844 39.9224 
" style="fill: none; stroke: #000000; stroke-width: 0.8; stroke-linejoin: miter; stroke-linecap: square"/>
   </g>
   <g id="text_5">
    <!-- The Hague -->
    <g transform="translate(123.452594 19.3575) scale(0.16 -0.16)">
     <defs>
      <path id="DejaVuSans-54" d="M -19 4666 
L 3928 4666 
L 3928 4134 
L 2272 4134 
L 2272 0 
L 1638 0 
L 1638 4134 
L -19 4134 
L -19 4666 
z
" transform="scale(0.015625)"/>
      <path id="DejaVuSans-68" d="M 3513 2113 
L 3513 0 
L 2938 0 
L 2938 2094 
Q 2938 2591 2744 2837 
Q 2550 3084 2163 3084 
Q 1697 3084 1428 2787 
Q 1159 2491 1159 1978 
L 1159 0 
L 581 0 
L 581 4863 
L 1159 4863 
L 1159 2956 
Q 1366 3272 1645 3428 
Q 1925 3584 2291 3584 
Q 2894 3584 3203 3211 
Q 3513 2838 3513 2113 
z
" transform="scale(0.015625)"/>
      <path id="DejaVuSans-65" d="M 3597 1894 
L 3597 1613 
L 953 1613 
Q 991 1019 1311 708 
Q 1631 397 2203 397 
Q 2534 397 2845 478 
Q 3156 559 3463 722 
L 3463 178 
Q 3153 47 2828 -22 
Q 2503 -91 2169 -91 
Q 1331 -91 842 396 
Q 353 884 353 1716 
Q 353 2575 817 3079 
Q 1281 3584 2069 3584 
Q 2775 3584 3186 3129 
Q 3597 2675 3597 1894 
z
M 3022 2063 
Q 3016 2534 2758 2815 
Q 2500 3097 2075 3097 
Q 1594 3097 1305 2825 
Q 1016 2553 972 2059 
L 3022 2063 
z
" transform="scale(0.015625)"/>
      <path id="DejaVuSans-20" transform="scale(0.015625)"/>
      <path id="DejaVuSans-48" d="M 628 4666 
L 1259 4666 
L 1259 2753 
L 3553 2753 
L 3553 4666 
L 4184 4666 
L 4184 0 
L 3553 0 
L 3553 2222 
L 1259 2222 
L 1259 0 
L 628 0 
L 628 4666 
z
" transform="scale(0.015625)"/>
      <path id="DejaVuSans-61" d="M 2194 1759 
Q 1497 1759 1228 1600 
Q 959 1441 959 1056 
Q 959 750 1161 570 
Q 1363 391 1709 391 
Q 2188 391 2477 730 
Q 2766 1069 2766 1631 
L 2766 1759 
L 2194 1759 
z
M 3341 1997 
L 3341 0 
L 2766 0 
L 2766 531 
Q 2569 213 2275 61 
Q 1981 -91 1556 -91 
Q 1019 -91 701 211 
Q 384 513 384 1019 
Q 384 1609 779 1909 
Q 1175 2209 1959 2209 
L 2766 2209 
L 2766 2266 
Q 2766 2663 2505 2880 
Q 2244 3097 1772 3097 
Q 1472 3097 1187 3025 
Q 903 2953 641 2809 
L 641 3341 
Q 956 3463 1253 3523 
Q 1550 3584 1831 3584 
Q 2591 3584 2966 3190 
Q 3341 2797 3341 1997 
z
" transform="scale(0.015625)"/>
      <path id="DejaVuSans-67" d="M 2906 1791 
Q 2906 2416 2648 2759 
Q 2391 3103 1925 3103 
Q 1463 3103 1205 2759 
Q 947 2416 947 1791 
Q 947 1169 1205 825 
Q 1463 481 1925 481 
Q 2391 481 2648 825 
Q 2906 1169 2906 1791 
z
M 3481 434 
Q 3481 -459 3084 -895 
Q 2688 -1331 1869 -1331 
Q 1566 -1331 1297 -1286 
Q 1028 -1241 775 -1147 
L 775 -588 
Q 1028 -725 1275 -790 
Q 1522 -856 1778 -856 
Q 2344 -856 2625 -561 
Q 2906 -266 2906 331 
L 2906 616 
Q 2728 306 2450 153 
Q 2172 0 1784 0 
Q 1141 0 747 490 
Q 353 981 353 1791 
Q 353 2603 747 3093 
Q 1141 3584 1784 3584 
Q 2172 3584 2450 3431 
Q 2728 3278 2906 2969 
L 2906 3500 
L 3481 3500 
L 3481 434 
z
" transform="scale(0.015625)"/>
      <path id="DejaVuSans-75" d="M 544 1381 
L 544 3500 
L 1119 3500 
L 1119 1403 
Q 1119 906 1312 657 
Q 1506 409 1894 409 
Q 2359 409 2629 706 
Q 2900 1003 2900 1516 
L 2900 3500 
L 3475 3500 
L 3475 0 
L 2900 0 
L 2900 538 
Q 2691 219 2414 64 
Q 2138 -91 1772 -91 
Q 1169 -91 856 284 
Q 544 659 544 1381 
z
M 1991 3584 
L 1991 3584 
z
" transform="scale(0.015625)"/>
     </defs>
     <use xlink:href="#DejaVuSans-54"/>
     <use xlink:href="#DejaVuSans-68" x="61.083984"/>
     <use xlink:href="#DejaVuSans-65" x="124.462891"/>
     <use xlink:href="#DejaVuSans-20" x="185.986328"/>
     <use xlink:href="#DejaVuSans-48" x="217.773438"/>
     <use xlink:href="#DejaVuSans-61" x="292.96875"/>
     <use xlink:href="#DejaVuSans-67" x="354.248047"/>
     <use xlink:href="#DejaVuSans-75" x="417.724609"/>
     <use xlink:href="#DejaVuSans-65" x="481.103516"/>
    </g>
   </g>
  </g>
 </g>
 <defs>
  <clipPath id="pfd83b82405">
   <path d="M 312.512844 185.5714 
C 312.512844 166.444949 308.74535 147.504478 301.425974 129.833941 
C 294.106598 112.163404 283.377683 96.106448 269.853239 82.582004 
C 256.328796 69.057561 240.27184 58.328646 222.601303 51.00927 
C 204.930766 43.689894 185.990295 39.9224 166.863844 39.9224 
C 147.737392 39.9224 128.796922 43.689894 111.126385 51.00927 
C 93.455847 58.328646 77.398892 69.057561 63.874448 82.582004 
C 50.350005 96.106448 39.62109 112.163404 32.301714 129.833941 
C 24.982338 147.504478 21.214844 166.444949 21.214844 185.5714 
C 21.214844 204.697851 24.982338 223.638322 32.301714 241.308859 
C 39.62109 258.979396 50.350005 275.036352 63.874448 288.560796 
C 77.398892 302.085239 93.455847 312.814154 111.126385 320.13353 
C 128.796922 327.452906 147.737392 331.2204 166.863844 331.2204 
C 185.990295 331.2204 204.930766 327.452906 222.601303 320.13353 
C 240.27184 312.814154 256.328796 302.085239 269.853239 288.560796 
C 283.377683 275.036352 294.106598 258.979396 301.425974 241.308859 
C 308.74535 223.638322 312.512844 204.697851 312.512844 185.5714 
M 166.863844 185.5714 
C 166.863844 185.5714 166.863844 185.5714 166.863844 185.5714 
C 166.863844 185.5714 166.863844 185.5714 166.863844 185.5714 
C 166.863844 185.5714 166.863844 185.5714 166.863844 185.5714 
C 166.863844 185.5714 166.863844 185.5714 166.863844 185.5714 
C 166.863844 185.5714 166.863844 185.5714 166.863844 185.5714 
C 166.863844 185.5714 166.863844 185.5714 166.863844 185.5714 
C 166.863844 185.5714 166.863844 185.5714 166.863844 185.5714 
C 166.863844 185.5714 166.863844 185.5714 166.863844 185.5714 
C 166.863844 185.5714 166.863844 185.5714 166.863844 185.5714 
C 166.863844 185.5714 166.863844 185.5714 166.863844 185.5714 
C 166.863844 185.5714 166.863844 185.5714 166.863844 185.5714 
C 166.863844 185.5714 166.863844 185.5714 166.863844 185.5714 
C 166.863844 185.5714 166.863844 185.5714 166.863844 185.5714 
C 166.863844 185.5714 166.863844 185.5714 166.863844 185.5714 
C 166.863844 185.5714 166.863844 185.5714 166.863844 185.5714 
C 166.863844 185.5714 166.863844 185.5714 166.863844 185.5714 
z
"/>
  </clipPath>
 </defs>
</svg>
